<svg xmlns="http://www.w3.org/2000/svg" width="28.714" height="28.712" viewBox="0 0 28.714 28.712">
  <g id="bank-icon" transform="translate(0 -0.015)">
    <g id="Group_6801" data-name="Group 6801" transform="translate(12.444 13.893)">
      <g id="Group_6800" data-name="Group 6800">
        <path id="Path_3331" data-name="Path 3331" d="M209.946,235.367a.957.957,0,1,1,.957-.957h.957a1.914,1.914,0,0,0-1.436-1.846v-.546h-.957v.546a1.91,1.91,0,0,0,.479,3.76.957.957,0,1,1-.957.957h-.957a1.914,1.914,0,0,0,1.436,1.846v.547h.957v-.547a1.91,1.91,0,0,0-.478-3.76Z" transform="translate(-208.032 -232.017)"/>
      </g>
    </g>
    <g id="Group_6803" data-name="Group 6803" transform="translate(8.137 11.5)">
      <g id="Group_6802" data-name="Group 6802">
        <path id="Path_3332" data-name="Path 3332" d="M142.253,192.017a6.221,6.221,0,1,0,6.221,6.221A6.221,6.221,0,0,0,142.253,192.017Zm0,11.485a5.264,5.264,0,1,1,5.264-5.264A5.264,5.264,0,0,1,142.253,203.5Z" transform="translate(-136.032 -192.017)"/>
      </g>
    </g>
    <g id="Group_6805" data-name="Group 6805" transform="translate(0 0.015)">
      <g id="Group_6804" data-name="Group 6804" transform="translate(0 0)">
        <path id="Path_3333" data-name="Path 3333" d="M28.236,10.543a.479.479,0,0,0,.479-.479V8.15c0-.006,0-.011,0-.017a.471.471,0,0,0-.031-.153.029.029,0,0,0,0-.018.479.479,0,0,0-.1-.141.539.539,0,0,0-.045-.035.481.481,0,0,0-.069-.055L14.588.075a.476.476,0,0,0-.462,0L.248,7.731a.481.481,0,0,0-.069.055.54.54,0,0,0-.045.035.479.479,0,0,0-.1.141.029.029,0,0,1,0,.018A.471.471,0,0,0,0,8.133c0,.006,0,.011,0,.017v1.914a.479.479,0,0,0,.479.479H1.916V24.9H.48A.479.479,0,0,0,0,25.377v2.871a.479.479,0,0,0,.479.479H28.236a.479.479,0,0,0,.479-.479V25.377a.479.479,0,0,0-.479-.479H26.8V10.543ZM14.358,1.04,26.377,7.672H2.339Zm13.4,24.816V27.77H.959V25.856ZM2.873,24.9V10.543H4.787V24.9Zm2.871,0V10.543H22.972V24.9Zm18.184,0V10.543h1.914V24.9ZM.959,9.586V8.629h26.8v.957Z" transform="translate(0 -0.015)"/>
      </g>
    </g>
  </g>
</svg>
