<svg xmlns="http://www.w3.org/2000/svg" width="79.007" height="69.9" viewBox="0 0 79.007 69.9">
  <g id="blog-image-icon" transform="translate(0 -24)">
    <g id="Group_6665" data-name="Group 6665" transform="translate(-0.001 23.999)">
      <g id="Group_6664" data-name="Group 6664" transform="translate(0 0)">
        <circle id="Ellipse_328" data-name="Ellipse 328" cx="5.427" cy="5.427" r="5.427" transform="translate(24.348 17.262)" fill="rgba(135,111,189,0.67)"/>
        <path id="Path_6787" data-name="Path 6787" d="M74.326,66.665a16.714,16.714,0,0,0-9.35-4.447V34.628a10.852,10.852,0,0,0-3.09-7.538A10.532,10.532,0,0,0,54.348,24H10.628A10.852,10.852,0,0,0,3.09,27.09,10.532,10.532,0,0,0,0,34.628v45a10.852,10.852,0,0,0,3.09,7.538,10.532,10.532,0,0,0,7.538,3.09H52.916a15.948,15.948,0,0,0,21.41-23.593ZM4,34.628a6.309,6.309,0,0,1,1.957-4.6,6.614,6.614,0,0,1,4.675-1.96H54.348a6.692,6.692,0,0,1,6.63,6.635V58.222L49.826,47.066a2.024,2.024,0,0,0-2.865,0L30.15,63.951,18.768,52.493a2.024,2.024,0,0,0-2.865,0L4,64.554Zm6.558,51.786v-.148A6.614,6.614,0,0,1,5.88,84.3,6.879,6.879,0,0,1,4,79.626V70.283L17.337,56.867,28.72,68.25a2.1,2.1,0,0,0,2.865,0l16.81-16.885,11,11.078-.678.226a7,7,0,0,0-.98.3c-.3.075-.6.226-.9.3a2.257,2.257,0,0,0-.6.3,7,7,0,0,0-.754.377l-1.131.678c-.226.151-.377.226-.6.377-.151.075-.226.151-.377.226a9.094,9.094,0,0,0-1.809,1.583,15.946,15.946,0,0,0-4.675,11.307,16.573,16.573,0,0,0,.377,3.32c.075.3.151.528.226.829.226.754.453,1.508.754,2.262v.075a13.827,13.827,0,0,0,.98,1.809Zm60.831,0a11.925,11.925,0,0,1-16.659.151c-.3-.3-.6-.678-.9-.98-.226-.226-.453-.528-.678-.754a7.158,7.158,0,0,1-.754-1.281c-.151-.3-.3-.528-.453-.829a6.369,6.369,0,0,1-.377-1.281c-.075-.3-.226-.678-.3-.98a12.477,12.477,0,0,1-.226-2.412A12.1,12.1,0,0,1,54.5,69.606a11.654,11.654,0,0,1,8.441-3.469A12.1,12.1,0,0,1,71.386,69.6a11.782,11.782,0,0,1,3.468,8.442,12.056,12.056,0,0,1-3.469,8.368Z" transform="translate(0.001 -23.999)" fill="rgba(135,111,189,0.67)"/>
        <path id="Path_6788" data-name="Path 6788" d="M306.691,265a2.631,2.631,0,0,0-.678-.453,2.2,2.2,0,0,0-.678-.151h-.151a2.2,2.2,0,0,0-.678.151,1.781,1.781,0,0,0-.678.453l-4.675,4.675a2.026,2.026,0,0,0,2.865,2.865l1.206-1.206v8.292a2.035,2.035,0,1,0,4.071,0v-8.294l1.206,1.206a2.026,2.026,0,1,0,2.865-2.865Z" transform="translate(-242.317 -219.096)" fill="rgba(135,111,189,0.67)"/>
      </g>
    </g>
  </g>
</svg>
