<svg id="email-icon" xmlns="http://www.w3.org/2000/svg" width="34.404" height="24.191" viewBox="0 0 34.404 24.191">
  <path id="Path_48300" data-name="Path 48300" d="M31.38,76H3.024A3.028,3.028,0,0,0,0,79.024V97.167a3.028,3.028,0,0,0,3.024,3.024H31.38A3.028,3.028,0,0,0,34.4,97.167V79.024A3.028,3.028,0,0,0,31.38,76Zm-.464,2.016L17.983,90.991a1.177,1.177,0,0,1-1.562,0L3.488,78.016ZM2.016,96.8v-17.4l8.673,8.7Zm1.472,1.379,8.624-8.652,2.882,2.891a3.19,3.19,0,0,0,4.418,0l2.882-2.891,8.623,8.652Zm28.9-1.379-8.673-8.7,8.673-8.7Z" transform="translate(0 -76)"/>
</svg>
