<svg xmlns="http://www.w3.org/2000/svg" width="21.727" height="21.729" viewBox="0 0 21.727 21.729">
  <path id="home-icon" d="M21.643,9.45l0,0L12.778.585a2,2,0,0,0-2.829,0L1.09,9.444l-.009.009a2,2,0,0,0,1.331,3.408c.021,0,.041,0,.062,0h.353v6.523a2.344,2.344,0,0,0,2.341,2.341H8.636a.637.637,0,0,0,.637-.637V15.978a1.069,1.069,0,0,1,1.068-1.068h2.045a1.069,1.069,0,0,1,1.068,1.068v5.114a.637.637,0,0,0,.637.637h3.468A2.344,2.344,0,0,0,19.9,19.387V12.864h.328A2,2,0,0,0,21.643,9.45Zm-.9,1.928a.723.723,0,0,1-.514.213h-.964a.637.637,0,0,0-.637.637v7.159a1.069,1.069,0,0,1-1.068,1.068H14.727V15.978a2.344,2.344,0,0,0-2.341-2.341H10.341A2.344,2.344,0,0,0,8,15.978v4.477H5.168A1.069,1.069,0,0,1,4.1,19.387V12.228a.637.637,0,0,0-.637-.637H2.486a.726.726,0,0,1-.5-1.241h0l8.863-8.863a.727.727,0,0,1,1.028,0l8.861,8.861,0,0a.729.729,0,0,1,0,1.027Zm0,0" transform="translate(-0.5 0.001)"/>
</svg>
