<svg xmlns="http://www.w3.org/2000/svg" width="27.518" height="27.518" viewBox="0 0 27.518 27.518">
  <g id="language" transform="translate(0.25 0.25)">
    <g id="Group_2" data-name="Group 2" transform="translate(4.01 5.594)">
      <g id="Group_1" data-name="Group 1">
        <path id="Path_1" data-name="Path 1" d="M82.315,114.552l-1.583-7.916a.791.791,0,0,0-.776-.636H78.372a.791.791,0,0,0-.776.636l-1.583,7.915a.792.792,0,0,0,1.552.31l.506-2.53h2.185l.506,2.53a.792.792,0,0,0,1.552-.31Zm-3.927-3.8.633-3.166h.285l.633,3.166Z" transform="translate(-75.998 -106)" stroke="#fff" stroke-width="0.5"/>
      </g>
    </g>
    <g id="Group_4" data-name="Group 4" transform="translate(15.884 10.343)">
      <g id="Group_3" data-name="Group 3">
        <path id="Path_2" data-name="Path 2" d="M308.124,197.583h-2.375v-.792a.792.792,0,1,0-1.583,0v.792h-2.375a.792.792,0,1,0,0,1.583h.192a9.9,9.9,0,0,0,1.877,3.472c-.608.556-1.224,1.012-1.772,1.451a.792.792,0,1,0,.989,1.236c.551-.441,1.212-.931,1.88-1.544.669.614,1.331,1.1,1.88,1.544a.792.792,0,1,0,.989-1.236c-.547-.438-1.163-.894-1.772-1.451a9.9,9.9,0,0,0,1.877-3.472h.192a.792.792,0,1,0,0-1.583Zm-3.166,3.892a8.338,8.338,0,0,1-1.3-2.314h2.6A8.338,8.338,0,0,1,304.958,201.475Z" transform="translate(-301 -196)" stroke="#fff" stroke-width="0.5"/>
      </g>
    </g>
    <g id="Group_6" data-name="Group 6">
      <g id="Group_5" data-name="Group 5">
        <path id="Path_3" data-name="Path 3" d="M24.643,4.8H13.224L12.885,2.08A2.378,2.378,0,0,0,10.528,0H2.375A2.377,2.377,0,0,0,0,2.375V19.841a2.377,2.377,0,0,0,2.375,2.375H9.049l.335,2.722a2.38,2.38,0,0,0,2.356,2.08h12.9a2.377,2.377,0,0,0,2.375-2.375V7.177A2.377,2.377,0,0,0,24.643,4.8ZM2.375,20.633a.792.792,0,0,1-.792-.792V2.375a.792.792,0,0,1,.792-.792h8.154a.793.793,0,0,1,.785.693L13.6,20.633Zm8.534,3.733-.265-2.15h2.124Zm14.526.277a.792.792,0,0,1-.792.792H12.078l3.013-3.486a.79.79,0,0,0,.192-.635L13.421,6.385H24.643a.792.792,0,0,1,.792.792Z" stroke="#fff" stroke-width="0.5"/>
      </g>
    </g>
  </g>
</svg>
