<svg xmlns="http://www.w3.org/2000/svg" width="23.65" height="37.815" viewBox="0 0 23.65 37.815">
  <g id="location-icon" transform="translate(-95.898)">
    <path id="Path_48301" data-name="Path 48301" d="M178.267,89.809a6.2,6.2,0,1,0-6.2-6.2A6.206,6.206,0,0,0,178.267,89.809Zm0-10.181a3.983,3.983,0,1,1-3.983,3.983A3.988,3.988,0,0,1,178.267,79.628Z" transform="translate(-70.544 -71.695)"/>
    <path id="Path_48302" data-name="Path 48302" d="M100.973,23.053c1.679,2.273,1,1.389,5.841,8.294a1.108,1.108,0,0,0,1.817,0c4.858-6.938,4.19-6.059,5.842-8.3a28.189,28.189,0,0,0,4.352-7.353,11.444,11.444,0,0,0-1.67-11.071h0a11.921,11.921,0,0,0-18.862,0A11.444,11.444,0,0,0,96.622,15.7a28.185,28.185,0,0,0,4.352,7.353Zm-.929-17.068a9.705,9.705,0,0,1,15.358,0h0a9.293,9.293,0,0,1,1.328,8.992,26.545,26.545,0,0,1-4.04,6.76c-1.226,1.659-.859,1.152-4.967,7.041-4.1-5.883-3.742-5.382-4.967-7.041a26.546,26.546,0,0,1-4.04-6.76,9.293,9.293,0,0,1,1.328-8.992Z" transform="translate(0 0)"/>
    <path id="Path_48303" data-name="Path 48303" d="M111.8,370.693a1.108,1.108,0,0,0-1.528-.345l-3.15,1.99a1.108,1.108,0,0,0,0,1.873l9.926,6.27a1.108,1.108,0,0,0,1.183,0l9.926-6.27a1.108,1.108,0,0,0,0-1.873l-3.15-1.99a1.108,1.108,0,1,0-1.183,1.873l1.667,1.053-7.852,4.959-7.852-4.959,1.667-1.053A1.108,1.108,0,0,0,111.8,370.693Z" transform="translate(-9.919 -342.836)"/>
  </g>
</svg>
