<svg xmlns="http://www.w3.org/2000/svg" width="363.956" height="346.809" viewBox="0 0 363.956 346.809">
  <path id="meditation-footer-right-img" d="M30.56,188.634a7.988,7.988,0,0,1-7.989,7.989H7.989a7.989,7.989,0,1,1,0-15.978H22.571A7.989,7.989,0,0,1,30.56,188.634ZM106.617,258.7a7.988,7.988,0,0,0,7.958,8.691h15.393a7.989,7.989,0,1,0,0-15.978h-5.717c6.172-19.981,27.071-36.914,55.054-43.878,27.981,6.964,48.88,23.9,55.054,43.878h-5.719a7.989,7.989,0,1,0,0,15.978h15.4a7.988,7.988,0,0,0,7.958-8.691c-1.391-15.765-9.148-30.537-22.43-42.722-12.623-11.58-29.38-20.033-48.458-24.442a7.993,7.993,0,0,0-3.6,0c-19.079,4.41-35.835,12.861-48.458,24.442C115.764,228.158,108.008,242.932,106.617,258.7ZM289.575,86.025a7.965,7.965,0,0,0,5.649-2.34l10.308-10.309a7.989,7.989,0,0,0-11.3-11.3L283.925,72.387a7.989,7.989,0,0,0,5.65,13.638Zm-110.6-45.81a7.988,7.988,0,0,0,7.989-7.989V17.647a7.989,7.989,0,0,0-15.978,0v14.58A7.988,7.988,0,0,0,178.976,40.216ZM62.731,83.686a7.989,7.989,0,0,0,11.3-11.3L63.717,62.079a7.989,7.989,0,0,0-11.3,11.3Zm98.1,235.41a7.989,7.989,0,0,0-7.989,7.989v7.4H95.333a18.882,18.882,0,0,1,0-37.765h57.1a7.989,7.989,0,1,0,0-15.978h-57.1a34.86,34.86,0,0,0,0,69.721h65.5a7.989,7.989,0,0,0,7.989-7.989V327.086A7.99,7.99,0,0,0,160.83,319.1ZM349.967,180.645h-14.58a7.989,7.989,0,1,0,0,15.978h14.58a7.989,7.989,0,1,0,0-15.978ZM178.976,60.173c-71.985,0-130.548,58.565-130.548,130.55a130.13,130.13,0,0,0,20.627,70.462A7.989,7.989,0,1,0,82.5,252.551a114.573,114.573,0,1,1,192.952,0,7.989,7.989,0,0,0,13.444,8.635,130.106,130.106,0,0,0,20.631-70.463C309.527,118.738,250.963,60.173,178.976,60.173Zm-2.1,115.392a38.935,38.935,0,0,1,0-74.186,8,8,0,0,1,4.849,0,38.936,38.936,0,0,1,0,74.186,7.987,7.987,0,0,1-4.851,0Zm2.425-16.148a22.964,22.964,0,0,0,0-41.889,22.964,22.964,0,0,0,0,41.889Zm83.972,121.329h-57.1a7.989,7.989,0,1,0,0,15.978h57.1a18.882,18.882,0,0,1,0,37.765H205.768v-7.4a7.989,7.989,0,0,0-15.978,0v15.392a7.988,7.988,0,0,0,7.989,7.989h65.5a34.86,34.86,0,0,0,0-69.721ZM179.3,224.22a7.988,7.988,0,0,0-7.989,7.989v56.527a7.989,7.989,0,0,0,15.978,0V232.209A7.988,7.988,0,0,0,179.3,224.22Z" transform="translate(3 -6.658)" fill="#cba135" stroke="#fff" stroke-width="6" opacity="0.5"/>
</svg>
