<svg xmlns="http://www.w3.org/2000/svg" width="271.691" height="332.421" viewBox="0 0 271.691 332.421">
  <path id="meditation-footer-left-img" d="M43.833,311.242c3.664,1.776,7.819,3.79,12.437,6.484,5.767,3.363,18.278,4.126,34.25,3.413a9.194,9.194,0,0,0,6.313,17.075l43.18-9.337c5.306.206,70.253,2.683,107.5,2.683,40.48,0,51.175-22.9,51.175-35.015,0-4.808-3.379-9.9-10.043-15.122a60.707,60.707,0,0,0-22.9-11.039l-64.018-18.006V241.329h54.507a8.042,8.042,0,0,0,7.873-6.264l1.4-6.079a8.1,8.1,0,0,0-.622-5.379l-41.163-83.794a6.728,6.728,0,0,0-4.875-3.888l-37.324-7.248V115.752c11.4-10.661,19.057-29.66,19.057-46.342,0-13.94-5.612-26.38-14.343-34.453a16.408,16.408,0,0,0,.562-3.826,24.131,24.131,0,1,0-48.261,0,13.4,13.4,0,0,0,.619,3.774c-8.763,8.074-14.4,20.535-14.4,34.506,0,16.682,7.657,35.681,19.057,46.342v12.926l-37.324,7.248a6.734,6.734,0,0,0-4.875,3.888L60.456,223.608a8.113,8.113,0,0,0-.621,5.38l1.4,6.076a8.042,8.042,0,0,0,7.873,6.265h54.507v11.046L51.52,272.4a2.8,2.8,0,0,0-.483.186C48.678,273.766,28,284.418,28,295.2c0,8.368,6.641,11.587,15.833,16.043Zm39.295,4.743c-1.877-2.279-6.646-8.724-6.646-15.4,0-6.65,3.018-12.679,4.324-14.978l22.512-2.5,69.545,12.879a8.071,8.071,0,0,0,7.185-2.232l6.907-6.907a2.741,2.741,0,0,1,2.24-.768l18.934,2.366c.073.009.144.015.217.019l26.49,1.151a2,2,0,0,1,.436,3.919c-8.874,2.362-39.289,10.245-58.1,12.457-3.833.451-9.339,1.209-15.714,2.089C141.59,310.819,107.1,315.573,83.128,315.985Zm56.756,7.5a2.65,2.65,0,0,0-.675.059L95.7,332.948a3.8,3.8,0,0,1-1.95-7.346l19.531-6.168c15.533-1.523,32.5-3.755,48.916-6.017,6.346-.874,11.827-1.631,15.607-2.075,16.185-1.9,39.967-7.7,53.473-11.19,2.11,1.7,7.151,6.311,7.151,11.714,0,5.772-3.421,11.791-4.964,14.215-39.075-.475-92.97-2.575-93.577-2.6ZM218.8,142.006c.019.043.038.086.059.128l41.189,83.85a2.7,2.7,0,0,1,.207,1.794l-1.4,6.078a2.68,2.68,0,0,1-2.625,2.087H174.6a1.349,1.349,0,0,1-.714-.2l-8.525-5.328V183.449a4.015,4.015,0,0,1,3.668,3.348l5.371,32.224a5.37,5.37,0,0,0,5.3,4.5,5.306,5.306,0,0,0,.681-.043l40.1-5.011,13.039,2.607,1.056-5.282L222.5,213.378l-15.487-36.135-7.543-39.594,18.353,3.565A1.346,1.346,0,0,1,218.8,142.006Zm-12.459,47.355L216.7,213.513l-12.107,1.514ZM143.928,31.131a18.744,18.744,0,0,1,37.487,0c0,.008,0,.018,0,.026a33.27,33.27,0,0,0-37.485,0c0-.008,0-.018,0-.026Zm18.744-.369c16.057,0,29.423,13.9,32.048,32.1-6.814-11.707-18.656-19.117-32.048-19.117-13.481,0-25.441,7.92-32.214,20.38C132.633,45.309,146.246,30.762,162.672,30.762Zm-31.71,47.708c3.5-17.023,16.755-29.333,31.71-29.333,15.415,0,28.456,11.632,31.877,28.334-3.073,19.952-16.738,41.308-31.877,41.308C147.787,118.778,134.329,98.129,130.962,78.469Zm31.71,45.7a25.027,25.027,0,0,0,13.467-4.2v23.055a13.467,13.467,0,1,1-26.934,0V119.964A25.027,25.027,0,0,0,162.672,124.165Zm0,37.708a18.875,18.875,0,0,0,18.854-18.854v-8.853l12.247,2.378,7.936,41.651-2.567,37.512-19.425,2.428-5.371-32.224a9.4,9.4,0,0,0-9.3-7.878H160.3a9.4,9.4,0,0,0-9.3,7.878l-5.371,32.224L126.2,215.707l-2.567-37.518,7.7-41.6,12.48-2.424v8.855a18.873,18.873,0,0,0,18.853,18.854ZM119,189.361l1.756,25.666-12.107-1.514ZM66.487,233.854l-1.4-6.076a2.7,2.7,0,0,1,.206-1.8l41.189-83.85c.022-.042.04-.085.059-.128a1.346,1.346,0,0,1,.982-.792l18.134-3.522-7.325,39.557-15.483,36.13-12.077,2.416,1.056,5.282,13.039-2.607,40.095,5.011a5.368,5.368,0,0,0,5.982-4.46l5.371-32.224a4.026,4.026,0,0,1,3.668-3.364v46.976l-8.526,5.329a1.349,1.349,0,0,1-.714.2H69.11a2.677,2.677,0,0,1-2.623-2.087Zm84.254,7.476a6.731,6.731,0,0,0,3.569-1.023l8.363-5.227,8.363,5.227a6.716,6.716,0,0,0,3.569,1.023H196.34V252.1H129V241.329ZM53.216,277.522,125.33,257.49h74.678l64.353,18.1a55.448,55.448,0,0,1,20.962,10.072c5.146,4.036,7.979,7.9,7.979,10.884,0,10.247-9.57,29.628-45.788,29.628-2.5,0-5.127-.011-7.851-.032,1.9-3.543,4.148-8.86,4.148-14.277,0-5.711-3.444-10.418-6.381-13.4a7.358,7.358,0,0,0,4.187-4.2c2.513-1,7.191-2.564,10.5-2.427l.224-5.382c-3.656-.149-8,1.1-10.883,2.122a7.353,7.353,0,0,0-6.39-4.338l-26.381-1.147-18.824-2.353a8.027,8.027,0,0,0-6.716,2.3l-6.907,6.907a2.687,2.687,0,0,1-2.394.743l-69.937-12.951a2.711,2.711,0,0,0-.788-.028l-36.361,4.04.594,5.355,7.053-.784c-.131.3-.264.6-.4.932A35.289,35.289,0,0,0,71.1,300.585c0,6.036,2.871,11.66,5.346,15.393-8.017-.183-14.263-1.044-17.456-2.906-4.8-2.8-9.05-4.86-12.8-6.678-9.1-4.412-12.8-6.394-12.8-11.2,0-5.3,11.516-13.47,19.829-17.676Z" transform="translate(-27.5 -6.5)" fill="#cba135" stroke="#cba135" stroke-width="1" opacity="0.5"/>
</svg>
