<svg xmlns="http://www.w3.org/2000/svg" xmlns:xlink="http://www.w3.org/1999/xlink" width="208" height="181" viewBox="0 0 208 181">
  <defs>
    <linearGradient id="linear-gradient" x1="0.46" y1="0.042" x2="0.5" y2="1" gradientUnits="objectBoundingBox">
      <stop offset="0" stop-color="#f0f5fd"/>
      <stop offset="1" stop-color="#fff" stop-opacity="0"/>
    </linearGradient>
  </defs>
  <g id="no-message-right-now-img" transform="translate(-1049 -522)">
    <ellipse id="Ellipse_338" data-name="Ellipse 338" cx="104" cy="90.5" rx="104" ry="90.5" transform="translate(1049 522)" fill="url(#linear-gradient)"/>
    <g id="ringing" transform="translate(1105.344 587.334) rotate(-16)">
      <path id="Path_48311" data-name="Path 48311" d="M76.332,42.332c-8.288-12.691-7.407-25.7-11.4-31.816S49.028-6.146,20.9,12.229-.081,50.58,4.315,57.306C24.889,88.8,91.012,64.808,76.332,42.332Z" transform="translate(0 0)" fill="#efefef"/>
      <g id="Group_6916" data-name="Group 6916" transform="translate(57.402 54.499)">
        <path id="Path_48312" data-name="Path 48312" d="M0,0H2.191V4.383H0Z" transform="translate(9.298 10.474) rotate(-45)" fill="#a4afc1"/>
        <path id="Path_48313" data-name="Path 48313" d="M0,0H4.383V2.191H0Z" transform="translate(0 12.008) rotate(-45)" fill="#a4afc1"/>
        <path id="Path_48314" data-name="Path 48314" d="M0,0H4.383V2.191H0Z" transform="translate(8.911 3.099) rotate(-45)" fill="#a4afc1"/>
      </g>
      <g id="send-invitation" transform="translate(29.858 26.245) rotate(16)">
        <path id="Path_3338" data-name="Path 3338" d="M26.251-1.332H4.185A4.189,4.189,0,0,0,0,2.852v13.5A4.189,4.189,0,0,0,4.17,20.54v6.128l8.806-6.128H26.251a4.189,4.189,0,0,0,4.184-4.184V2.852a4.189,4.189,0,0,0-4.184-4.184Zm2.4,17.688a2.4,2.4,0,0,1-2.4,2.4H12.417l-6.464,4.5v-4.5H4.185a2.4,2.4,0,0,1-2.4-2.4V2.852a2.4,2.4,0,0,1,2.4-2.4H26.251a2.4,2.4,0,0,1,2.4,2.4Zm0,0" transform="translate(0)"/>
        <path id="Path_3339" data-name="Path 3339" d="M171.293,131.172h14.143v1.783H171.293Zm0,0" transform="translate(-163.147 -126.203)"/>
        <path id="Path_3340" data-name="Path 3340" d="M171.293,211.172h14.143v1.783H171.293Zm0,0" transform="translate(-163.147 -202.399)"/>
        <path id="Path_3341" data-name="Path 3341" d="M171.293,291.172h14.143v1.783H171.293Zm0,0" transform="translate(-163.147 -278.595)"/>
      </g>
    </g>
  </g>
</svg>
