<svg xmlns="http://www.w3.org/2000/svg" xmlns:xlink="http://www.w3.org/1999/xlink" width="208" height="181" viewBox="0 0 208 181">
  <defs>
    <linearGradient id="linear-gradient" x1="0.46" y1="0.042" x2="0.5" y2="1" gradientUnits="objectBoundingBox">
      <stop offset="0" stop-color="#f0f5fd"/>
      <stop offset="1" stop-color="#fff" stop-opacity="0"/>
    </linearGradient>
  </defs>
  <g id="no-review-right-now-img" transform="translate(-1049 -522)">
    <ellipse id="Ellipse_338" data-name="Ellipse 338" cx="104" cy="90.5" rx="104" ry="90.5" transform="translate(1049 522)" fill="url(#linear-gradient)"/>
    <g id="ringing" transform="translate(1104.344 587.334) rotate(-16)">
      <path id="Path_48311" data-name="Path 48311" d="M76.332,42.332c-8.288-12.691-7.407-25.7-11.4-31.816S49.028-6.146,20.9,12.229-.081,50.58,4.315,57.306C24.889,88.8,91.012,64.808,76.332,42.332Z" transform="translate(0 0)" fill="#efefef"/>
      <g id="Group_6916" data-name="Group 6916" transform="translate(57.402 54.499)">
        <path id="Path_48312" data-name="Path 48312" d="M0,0H2.191V4.383H0Z" transform="translate(9.298 10.474) rotate(-45)" fill="#a4afc1"/>
        <path id="Path_48313" data-name="Path 48313" d="M0,0H4.383V2.191H0Z" transform="translate(0 12.008) rotate(-45)" fill="#a4afc1"/>
        <path id="Path_48314" data-name="Path 48314" d="M0,0H4.383V2.191H0Z" transform="translate(8.911 3.099) rotate(-45)" fill="#a4afc1"/>
      </g>
      <g id="Polygon_8" data-name="Polygon 8" transform="translate(22.5 20.133)" fill="none">
        <path d="M18.4,0l5.152,12.256L36.8,13.369,26.737,22.056,29.773,35,18.4,28.113,7.028,35l3.036-12.944L0,13.369l13.248-1.113Z" stroke="none"/>
        <path d="M 18.40059089660645 3.8707275390625 L 14.27918815612793 13.67490005493164 L 3.681270599365234 14.56493186950684 L 11.73200988769531 21.51428031921387 L 9.303548812866211 31.86852645874023 L 18.40058898925781 26.35927963256836 L 27.49763107299805 31.86852645874023 L 25.06916809082031 21.51428031921387 L 33.11990737915039 14.56493186950684 L 22.52199935913086 13.67490005493164 L 18.40059089660645 3.8707275390625 M 18.40058898925781 0 L 23.55275917053223 12.25617980957031 L 36.80117797851562 13.36881065368652 L 26.73696899414062 22.05617904663086 L 29.77277946472168 35 L 18.40058898925781 28.1129093170166 L 7.028398513793945 35 L 10.064208984375 22.05617904663086 L 0 13.36881065368652 L 13.24842834472656 12.25617980957031 L 18.40058898925781 0 Z" stroke="none" fill="#000"/>
      </g>
    </g>
  </g>
</svg>
