<svg xmlns="http://www.w3.org/2000/svg" xmlns:xlink="http://www.w3.org/1999/xlink" width="208" height="181" viewBox="0 0 208 181">
  <defs>
    <linearGradient id="linear-gradient" x1="0.46" y1="0.042" x2="0.5" y2="1" gradientUnits="objectBoundingBox">
      <stop offset="0" stop-color="#f0f5fd"/>
      <stop offset="1" stop-color="#fff" stop-opacity="0"/>
    </linearGradient>
  </defs>
  <g id="no-webinars-right-now-img" transform="translate(-972 -450)">
    <ellipse id="Ellipse_338" data-name="Ellipse 338" cx="104" cy="90.5" rx="104" ry="90.5" transform="translate(972 450)" fill="url(#linear-gradient)"/>
    <g id="ringing" transform="translate(1028.344 515.334) rotate(-16)">
      <path id="Path_48311" data-name="Path 48311" d="M76.332,42.332c-8.288-12.691-7.407-25.7-11.4-31.816S49.028-6.146,20.9,12.229-.081,50.58,4.315,57.306C24.889,88.8,91.012,64.808,76.332,42.332Z" transform="translate(0 0)" fill="#efefef"/>
      <g id="Group_6916" data-name="Group 6916" transform="translate(57.402 54.499)">
        <path id="Path_48312" data-name="Path 48312" d="M0,0H2.191V4.383H0Z" transform="translate(9.298 10.474) rotate(-45)" fill="#a4afc1"/>
        <path id="Path_48313" data-name="Path 48313" d="M0,0H4.383V2.191H0Z" transform="translate(0 12.008) rotate(-45)" fill="#a4afc1"/>
        <path id="Path_48314" data-name="Path 48314" d="M0,0H4.383V2.191H0Z" transform="translate(8.911 3.099) rotate(-45)" fill="#a4afc1"/>
      </g>
      <g id="webinar" transform="translate(-176.356 -122.697) rotate(16)">
        <g id="_688-speaker-lecturer-male-outline" data-name=" 688-speaker-lecturer-male-outline" transform="translate(-96.901 -320.574)">
          <g id="Group_1690" data-name="Group 1690" transform="translate(340.753 402.574)">
            <g id="Group_1690-2" data-name="Group 1690" transform="translate(0 10.389)">
              <path id="Path_24543" data-name="Path 24543" d="M341.563,419.557a.4.4,0,0,1-.4-.4h0v-.576a4.94,4.94,0,0,1,4.935-4.935h.418a.4.4,0,1,1,0,.8H346.1a4.141,4.141,0,0,0-4.136,4.136v.576a.4.4,0,0,1-.4.4Z" transform="translate(-340.924 -413.407)" fill="#030504"/>
              <path id="Path_24543-2" data-name="Path 24543" d="M341.553,419.787a.64.64,0,0,1-.639-.639v-.576a5.188,5.188,0,0,1,5.176-5.175h.417a.639.639,0,0,1,0,1.279h-.417a3.909,3.909,0,0,0-3.9,3.9v.575A.64.64,0,0,1,341.553,419.787Zm4.536-5.91a4.708,4.708,0,0,0-4.7,4.7v.575c0,.176.319.176.319,0v-.576a4.389,4.389,0,0,1,4.377-4.376h.417a.159.159,0,0,0,0-.319Z" transform="translate(-340.914 -413.397)" fill="#030504"/>
            </g>
            <g id="Group_1691" data-name="Group 1691" transform="translate(8.655 10.389)">
              <path id="Path_24544" data-name="Path 24544" d="M355.532,419.557a.4.4,0,0,1-.4-.4h0v-.576A4.141,4.141,0,0,0,351,414.446h-.418a.4.4,0,1,1,0-.8H351a4.94,4.94,0,0,1,4.935,4.935v.576a.4.4,0,0,1-.4.4Z" transform="translate(-349.941 -413.407)" fill="#030504"/>
              <path id="Path_24544-2" data-name="Path 24544" d="M355.522,419.787a.64.64,0,0,1-.639-.639v-.576a3.906,3.906,0,0,0-3.9-3.9h-.417a.639.639,0,0,1,0-1.279h.417a5.186,5.186,0,0,1,5.175,5.175v.576A.64.64,0,0,1,355.522,419.787Zm-4.952-5.91a.159.159,0,0,0,0,.319h.417a4.387,4.387,0,0,1,4.376,4.376v.576c0,.176.319.176.319,0v-.576a4.706,4.706,0,0,0-4.695-4.695Z" transform="translate(-349.931 -413.397)" fill="#030504"/>
            </g>
            <g id="Group_1692" data-name="Group 1692" transform="translate(4.952 9.335)">
              <path id="Path_24545" data-name="Path 24545" d="M348.574,416.366a.4.4,0,0,1-.185-.045c-.212-.11-2.066-1.113-2.066-2.338v-1.035a.4.4,0,0,1,.8,0v1.035c0,.522.883,1.191,1.451,1.526.568-.335,1.452-1,1.452-1.526v-1.035a.4.4,0,0,1,.8,0v1.035c0,1.225-1.855,2.228-2.067,2.338A.393.393,0,0,1,348.574,416.366Z" transform="translate(-346.083 -412.309)" fill="#030504"/>
              <path id="Path_24545-2" data-name="Path 24545" d="M348.564,416.6a.645.645,0,0,1-.295-.072c-.367-.191-2.2-1.209-2.2-2.551v-1.035a.639.639,0,0,1,1.279,0v1.035c0,.288.513.811,1.211,1.246.7-.436,1.213-.959,1.213-1.246v-1.035a.639.639,0,1,1,1.279,0v1.035c0,1.337-1.83,2.359-2.2,2.551A.651.651,0,0,1,348.564,416.6Zm-1.852-3.818a.16.16,0,0,0-.159.159v1.035c0,1.106,1.858,2.084,1.937,2.125a.158.158,0,0,0,.148,0c.718-.375,1.937-1.246,1.937-2.125v-1.035c0-.176-.319-.176-.319,0v1.035c0,.768-1.309,1.578-1.571,1.733a.241.241,0,0,1-.244,0c-.261-.154-1.569-.963-1.569-1.733v-1.035A.16.16,0,0,0,346.712,412.779Z" transform="translate(-346.073 -412.299)" fill="#030504"/>
            </g>
            <g id="Group_1693" data-name="Group 1693" transform="translate(3.442 3.658)">
              <path id="Path_24546" data-name="Path 24546" d="M348.511,413.687a3.658,3.658,0,0,1-3.654-3.53l-.107-3.049v-.075a.4.4,0,0,1,.8,0h0v.043l.107,3.052a2.858,2.858,0,0,0,5.712,0l.1-2.916a.4.4,0,1,1,.8.028l-.1,2.916A3.647,3.647,0,0,1,348.511,413.687Z" transform="translate(-344.51 -406.395)" fill="#030504"/>
              <path id="Path_24546-2" data-name="Path 24546" d="M348.511,413.917H348.5a3.885,3.885,0,0,1-3.893-3.761l-.107-3.132a.639.639,0,0,1,1.279,0l.107,3.087a2.618,2.618,0,0,0,5.233,0l.1-2.917a.632.632,0,0,1,.2-.445.724.724,0,0,1,.458-.172.641.641,0,0,1,.617.661l-.1,2.917A3.87,3.87,0,0,1,348.511,413.917Zm-3.372-7.052a.159.159,0,0,0-.159.159v.075l.107,3.04a3.406,3.406,0,0,0,3.414,3.3h.011a3.392,3.392,0,0,0,3.406-3.3l.1-2.917a.16.16,0,0,0-.154-.165.2.2,0,0,0-.114.043.157.157,0,0,0-.051.11l-.1,2.917a3.1,3.1,0,0,1-3,3,3.169,3.169,0,0,1-2.218-.837,3.082,3.082,0,0,1-.976-2.161l-.107-3.051C345.3,406.936,345.228,406.865,345.139,406.865Z" transform="translate(-344.5 -406.385)" fill="#030504"/>
            </g>
            <g id="Group_1694" data-name="Group 1694" transform="translate(3.343)">
              <path id="Path_24547" data-name="Path 24547" d="M351.863,407.474a.4.4,0,0,1-.276-.111L350.159,406a8.56,8.56,0,0,1-3.322,0l-1.44,1.2a.4.4,0,0,1-.562-.052.409.409,0,0,1-.086-.187l-.1-.56a.193.193,0,0,1,0-.034,3.159,3.159,0,0,1,.846-2.349,4.406,4.406,0,0,1,6.019-.009,3.168,3.168,0,0,1,.85,2.354v.021l-.1.755a.4.4,0,0,1-.264.323A.38.38,0,0,1,351.863,407.474Zm-1.58-2.312a.4.4,0,0,1,.276.111l1.013.969a2.367,2.367,0,0,0-.644-1.7,3.617,3.617,0,0,0-4.843.008,2.425,2.425,0,0,0-.646,1.569l1.036-.864a.4.4,0,0,1,.343-.083,7.742,7.742,0,0,0,3.378,0A.449.449,0,0,1,350.283,405.162Z" transform="translate(-344.406 -402.584)" fill="#030504"/>
              <path id="Path_24547-2" data-name="Path 24547" d="M351.866,407.7a.647.647,0,0,1-.455-.179l-1.338-1.282a8.744,8.744,0,0,1-3.18,0l-1.352,1.123a.657.657,0,0,1-.467.146.64.64,0,0,1-.572-.528l-.1-.561a.513.513,0,0,1,0-.094,3.372,3.372,0,0,1,.91-2.493,4.662,4.662,0,0,1,6.358-.02,3.436,3.436,0,0,1,.925,2.544l-.106.795a.633.633,0,0,1-.422.516A.615.615,0,0,1,351.866,407.7Zm-1.716-1.959a.237.237,0,0,1,.165.066l1.428,1.369a.178.178,0,0,0,.118.044.1.1,0,0,0,.051-.008.156.156,0,0,0,.1-.127l.1-.756a2.954,2.954,0,0,0-.787-2.178,4.173,4.173,0,0,0-5.68.019,2.918,2.918,0,0,0-.77,2.159l.092.568a.16.16,0,0,0,.036.074.156.156,0,0,0,.108.058.158.158,0,0,0,.116-.036l1.44-1.2a.227.227,0,0,1,.2-.051,8.291,8.291,0,0,0,3.229,0A.2.2,0,0,1,350.15,405.745Zm1.413.728a.241.241,0,0,1-.166-.066l-1.012-.969a.17.17,0,0,0-.153-.04,8.044,8.044,0,0,1-3.477,0,.167.167,0,0,0-.137.033l-1.034.864a.24.24,0,0,1-.394-.192,2.661,2.661,0,0,1,.709-1.725,3.851,3.851,0,0,1,5.179-.023,2.631,2.631,0,0,1,.724,1.89.24.24,0,0,1-.149.214A.248.248,0,0,1,351.563,406.473Zm-1.288-1.561h0a.637.637,0,0,1,.44.178l.535.512a2.15,2.15,0,0,0-.5-.907,3.367,3.367,0,0,0-4.508.022,2.154,2.154,0,0,0-.46.788l.535-.445a.635.635,0,0,1,.549-.132,7.556,7.556,0,0,0,3.272,0A.742.742,0,0,1,350.274,404.912Z" transform="translate(-344.396 -402.574)" fill="#030504"/>
            </g>
          </g>
          <g id="Group_1693-2" data-name="Group 1693" transform="translate(336.901 409.517)">
            <g id="Group_1695" data-name="Group 1695" transform="translate(1.774 11.77)">
              <path id="Path_24548" data-name="Path 24548" d="M356.1,426.635H340.466a.4.4,0,0,1-.384-.288l-1.065-3.509a.4.4,0,1,1,.768-.232h0l.98,3.225h15.042l.98-3.225a.4.4,0,0,1,.768.232h0l-1.065,3.509A.4.4,0,0,1,356.1,426.635Z" transform="translate(-338.759 -422.079)" fill="#030504"/>
              <path id="Path_24548-2" data-name="Path 24548" d="M356.09,426.865H340.456a.643.643,0,0,1-.614-.462l-1.064-3.506a.641.641,0,0,1,1.228-.372l.927,3.055h14.685l.929-3.054a.641.641,0,1,1,1.227.371l-1.065,3.508A.644.644,0,0,1,356.09,426.865Zm-16.7-4.315a.164.164,0,0,0-.047.007.161.161,0,0,0-.106.2l1.065,3.508a.16.16,0,0,0,.155.118H356.09a.162.162,0,0,0,.157-.116l1.066-3.51a.163.163,0,0,0-.108-.2.158.158,0,0,0-.2.108l-.981,3.225a.241.241,0,0,1-.229.171H340.754a.241.241,0,0,1-.229-.171l-.98-3.225A.163.163,0,0,0,339.389,422.55Z" transform="translate(-338.75 -422.069)" fill="#030504"/>
            </g>
            <g id="Group_1696" data-name="Group 1696" transform="translate(0 8.558)">
              <path id="Path_24549" data-name="Path 24549" d="M358.865,422.979H337.55a.4.4,0,0,1-.4-.4v-3.207a.4.4,0,0,1,.4-.4h21.314a.4.4,0,0,1,.4.4v3.207A.4.4,0,0,1,358.865,422.979Zm-20.919-.8h20.52v-2.408h-20.52Z" transform="translate(-336.911 -418.733)" fill="#030504"/>
              <path id="Path_24549-2" data-name="Path 24549" d="M358.855,423.209H337.54a.64.64,0,0,1-.639-.639v-3.207a.64.64,0,0,1,.639-.639h21.314a.64.64,0,0,1,.639.639v3.207A.639.639,0,0,1,358.855,423.209ZM337.54,419.2a.16.16,0,0,0-.159.159v3.207a.16.16,0,0,0,.159.159h21.314a.16.16,0,0,0,.159-.159v-3.207a.16.16,0,0,0-.159-.159Zm20.915,3.207h-20.52a.241.241,0,0,1-.24-.24v-2.408a.241.241,0,0,1,.24-.24h20.52a.24.24,0,0,1,.24.24v2.408A.24.24,0,0,1,358.455,422.41Zm-20.28-.48h20.04V420h-20.04Z" transform="translate(-336.901 -418.723)" fill="#030504"/>
            </g>
            <g id="Group_1691-2" data-name="Group 1691" transform="translate(15.465)">
              <g id="Group_1697" data-name="Group 1697" transform="translate(3.003 1.737)">
                <path id="Path_24550" data-name="Path 24550" d="M359.637,419.472a.4.4,0,0,1-.4-.4v-5.4l-2.6-1.04a.4.4,0,0,1,.3-.742h0l2.848,1.14a.4.4,0,0,1,.251.371v5.663a.4.4,0,0,1-.4.4Z" transform="translate(-356.15 -411.627)" fill="#030504"/>
                <path id="Path_24550-2" data-name="Path 24550" d="M359.627,419.7a.64.64,0,0,1-.639-.639V413.83l-2.445-.979a.639.639,0,1,1,.474-1.187l2.848,1.14a.637.637,0,0,1,.4.593v5.663a.639.639,0,0,1-.634.642ZM356.78,412.1a.163.163,0,0,0-.15.1.161.161,0,0,0,.09.207l2.6,1.04a.24.24,0,0,1,.151.223v5.4a.16.16,0,0,0,.159.159h0a.159.159,0,0,0,.156-.161V413.4a.16.16,0,0,0-.1-.148l-2.848-1.14A.159.159,0,0,0,356.78,412.1Z" transform="translate(-356.14 -411.617)" fill="#030504"/>
              </g>
              <g id="Group_1698" data-name="Group 1698">
                <path id="Path_24551" data-name="Path 24551" d="M355.822,413.153a1.321,1.321,0,0,1-.46-.083l-1.27-.48a1.311,1.311,0,0,1,.922-2.454l1.27.48a1.311,1.311,0,0,1-.462,2.538Zm-1.266-2.3a.513.513,0,0,0-.182.992h0l1.27.48a.513.513,0,1,0,.36-.96l-1.27-.48a.508.508,0,0,0-.178-.028Z" transform="translate(-353.022 -409.817)" fill="#030504"/>
                <path id="Path_24551-2" data-name="Path 24551" d="M355.814,413.383h0a1.537,1.537,0,0,1-.543-.1L354,412.8a1.551,1.551,0,0,1,1.088-2.9l1.274.481a1.551,1.551,0,0,1,.9,2A1.559,1.559,0,0,1,355.814,413.383Zm0-.48h0a1.08,1.08,0,0,0,1-.693,1.073,1.073,0,0,0-.625-1.38l-1.27-.48a1.071,1.071,0,0,0-.75,2.006l1.266.479A1.066,1.066,0,0,0,355.813,412.9Zm0-.32a.753.753,0,0,1-.264-.048l-1.27-.48a.753.753,0,0,1,.267-1.456h0a.263.263,0,0,1,.049,0,.757.757,0,0,1,.206.04l1.277.482a.752.752,0,0,1-.265,1.457Zm-1.3-1.5a.273.273,0,0,0-.064.526l1.269.479a.273.273,0,0,0,.35-.159.264.264,0,0,0-.007-.209.271.271,0,0,0-.153-.142l-1.27-.48a.581.581,0,0,0-.087-.012A.176.176,0,0,1,354.513,411.081Z" transform="translate(-353.012 -409.807)" fill="#030504"/>
              </g>
            </g>
            <g id="Group_1692-2" data-name="Group 1692" transform="translate(0 0.002)">
              <g id="Group_1699" data-name="Group 1699" transform="translate(0 1.738)">
                <path id="Path_24552" data-name="Path 24552" d="M337.55,419.472a.4.4,0,0,1-.4-.4h0V413.41a.4.4,0,0,1,.251-.371l2.848-1.14a.4.4,0,1,1,.3.742h0l-2.6,1.04v5.4A.4.4,0,0,1,337.55,419.472Z" transform="translate(-336.911 -411.63)" fill="#030504"/>
                <path id="Path_24552-2" data-name="Path 24552" d="M337.54,419.7a.64.64,0,0,1-.639-.639V413.4a.637.637,0,0,1,.4-.593l2.849-1.14a.638.638,0,0,1,.831.357.623.623,0,0,1-.006.488.636.636,0,0,1-.35.343l-2.446.98v5.234A.642.642,0,0,1,337.54,419.7Zm2.848-7.6a.16.16,0,0,0-.06.012l-2.848,1.14a.159.159,0,0,0-.1.148v5.663c0,.174.317.177.319,0v-5.393a.241.241,0,0,1,.152-.223l2.6-1.04a.159.159,0,0,0,.088-.207.157.157,0,0,0-.084-.087A.167.167,0,0,0,340.388,412.1Z" transform="translate(-336.901 -411.62)" fill="#030504"/>
              </g>
              <g id="Group_1700" data-name="Group 1700" transform="translate(2.775)">
                <path id="Path_24553" data-name="Path 24553" d="M341.352,413.153a1.311,1.311,0,0,1-.463-2.538l1.27-.48a1.311,1.311,0,0,1,.922,2.454l-1.27.48A1.317,1.317,0,0,1,341.352,413.153Zm1.266-2.3a.5.5,0,0,0-.179.033l-1.27.48a.513.513,0,1,0,.361.96l1.27-.48h0a.51.51,0,0,0-.182-.989Z" transform="translate(-339.802 -409.819)" fill="#030504"/>
                <path id="Path_24553-2" data-name="Path 24553" d="M341.343,413.383h0a1.552,1.552,0,0,1-1.55-1.552,1.559,1.559,0,0,1,1-1.45l1.27-.48a1.551,1.551,0,0,1,1.1,2.9l-1.274.482A1.529,1.529,0,0,1,341.343,413.383Zm1.247-3.094a1.072,1.072,0,0,0-.36.062l-1.266.478a1.076,1.076,0,0,0-.692,1,1.063,1.063,0,0,0,.313.757,1.085,1.085,0,0,0,1.132.246l1.271-.48a1.071,1.071,0,0,0-.4-2.066Zm-1.251,2.3a.753.753,0,0,1-.264-1.458l1.27-.48a.58.58,0,0,1,.314-.043.751.751,0,0,1,.658.488.752.752,0,0,1-.443.965l-1.269.48A.749.749,0,0,1,341.339,412.585Zm1.237-1.5a.282.282,0,0,0-.062.015l-1.27.48a.273.273,0,0,0-.158.351.271.271,0,0,0,.35.159l1.27-.48a.271.271,0,0,0,.017-.5.344.344,0,0,0-.11-.023A.159.159,0,0,1,342.577,411.081Z" transform="translate(-339.792 -409.809)" fill="#030504"/>
              </g>
            </g>
          </g>
        </g>
        <rect id="Rectangle_921" data-name="Rectangle 921" width="24" height="24" transform="translate(239 82)" fill="none"/>
      </g>
    </g>
  </g>
</svg>
