<svg xmlns="http://www.w3.org/2000/svg" width="158.318" height="136.027" viewBox="0 0 158.318 136.027">
  <g id="online-meeting-icon" transform="translate(-0.5 -480.5)">
    <g id="Group_1" data-name="Group 1" transform="translate(3.5 483.5)">
      <g id="ngicon" transform="translate(0)">
        <path id="Path_8" data-name="Path 8" d="M404.8,748.528h29.721a5.573,5.573,0,1,0,0-11.145H404.8a5.573,5.573,0,1,0,0,11.145Zm91.019-124.455a5.572,5.572,0,0,0-5.573-5.573H349.072a5.572,5.572,0,0,0-5.573,5.573V724.38a5.575,5.575,0,0,0,5.573,5.573H490.245a5.575,5.575,0,0,0,5.573-5.573Zm-11.145,5.573v89.162H354.645V629.646ZM403.9,672.366a35.3,35.3,0,0,0-19.534,31.582,5.573,5.573,0,0,0,11.145,0,24.148,24.148,0,0,1,48.3,0,5.573,5.573,0,0,0,11.145,0,35.3,35.3,0,0,0-19.534-31.582,20.433,20.433,0,1,0-31.519,0Zm15.759-22.287a9.288,9.288,0,1,1-9.288,9.288A9.291,9.291,0,0,1,419.659,650.079Z" transform="translate(-343.5 -618.501)" fill="#3a3a3a" stroke="#fff" stroke-width="6" fill-rule="evenodd"/>
      </g>
    </g>
  </g>
</svg>
