<svg xmlns="http://www.w3.org/2000/svg" width="31.243" height="31.299" viewBox="0 0 31.243 31.299">
  <path id="phone-icon" d="M21.215,7.08a6.974,6.974,0,0,1,5.51,5.51M21.215,1.5A12.554,12.554,0,0,1,32.3,12.575M30.909,23.706v4.185a2.79,2.79,0,0,1-3.041,2.79A27.6,27.6,0,0,1,15.831,26.4a27.2,27.2,0,0,1-8.369-8.369A27.6,27.6,0,0,1,3.179,5.936,2.79,2.79,0,0,1,5.955,2.895H10.14a2.79,2.79,0,0,1,2.79,2.4,17.91,17.91,0,0,0,.976,3.92,2.79,2.79,0,0,1-.628,2.943l-1.771,1.771A22.318,22.318,0,0,0,19.876,22.3l1.771-1.771a2.79,2.79,0,0,1,2.943-.628,17.91,17.91,0,0,0,3.92.976A2.79,2.79,0,0,1,30.909,23.706Z" transform="translate(-2.167 -0.396)" fill="none" stroke="#000" stroke-linecap="round" stroke-linejoin="round" stroke-width="2"/>
</svg>
