<svg xmlns="http://www.w3.org/2000/svg" width="20" height="20" viewBox="0 0 20 20">
  <g id="sent-email-sign" transform="translate(-1011 -597)">
    <circle id="Ellipse_27" data-name="Ellipse 27" cx="10" cy="10" r="10" transform="translate(1011 597)" fill="#12b800"/>
    <path id="correct" d="M3.985,8.332a.531.531,0,0,1-.751,0l-3-3a.8.8,0,0,1,0-1.127l.376-.376a.8.8,0,0,1,1.127,0L3.61,5.7,8.672.64A.8.8,0,0,1,9.8.64l.376.376a.8.8,0,0,1,0,1.127Zm0,0" transform="translate(1016 602.594)" fill="#fff"/>
  </g>
</svg>
