<svg xmlns="http://www.w3.org/2000/svg" width="52.78" height="67" viewBox="0 0 52.78 67">
  <g id="terms-and-conditions-icon" transform="translate(-54.334)">
    <path id="Path_3293" data-name="Path 3293" d="M54.334,0V67H93.4l13.712-13.712V0ZM58.26,3.926h44.928V49.683H89.8V63.074H58.26V3.926Zm42.981,49.683-7.518,7.518V53.609Z" fill="#876fbd"/>
    <path id="Path_3294" data-name="Path 3294" d="M192,91.667h16.75v3.926H192Z" transform="translate(-119.651 -79.672)" fill="#876fbd"/>
    <path id="Path_3295" data-name="Path 3295" d="M133.333,166.333h32.1v3.926h-32.1Z" transform="translate(-68.661 -144.567)" fill="#876fbd"/>
    <path id="Path_3296" data-name="Path 3296" d="M133.333,230.333h32.1v3.926h-32.1Z" transform="translate(-68.661 -200.192)" fill="#876fbd"/>
    <path id="Path_3297" data-name="Path 3297" d="M133.333,294.333h32.1v3.926h-32.1Z" transform="translate(-68.661 -255.817)" fill="#876fbd"/>
    <path id="Path_3298" data-name="Path 3298" d="M133.333,379.667h4.122v3.926h-4.122Z" transform="translate(-68.661 -329.984)" fill="#876fbd"/>
    <path id="Path_3299" data-name="Path 3299" d="M194.833,379.667h8v3.926h-8Z" transform="translate(-122.113 -329.984)" fill="#876fbd"/>
  </g>
</svg>
