<svg id="twitter-icon" xmlns="http://www.w3.org/2000/svg" width="18.701" height="15.195" viewBox="0 0 18.701 15.195">
  <path id="Shape" d="M18.7,1.8a7.993,7.993,0,0,1-2.209.605A3.812,3.812,0,0,0,18.179.285a7.662,7.662,0,0,1-2.431.928A3.834,3.834,0,0,0,9.116,3.835a3.948,3.948,0,0,0,.089.874A10.852,10.852,0,0,1,1.3.7,3.835,3.835,0,0,0,2.48,5.823,3.786,3.786,0,0,1,.748,5.351v.042A3.852,3.852,0,0,0,3.82,9.16a3.827,3.827,0,0,1-1.005.126,3.39,3.39,0,0,1-.726-.065,3.87,3.87,0,0,0,3.582,2.671A7.7,7.7,0,0,1,.918,13.527,7.181,7.181,0,0,1,0,13.474a10.793,10.793,0,0,0,5.882,1.721A10.837,10.837,0,0,0,16.794,4.285c0-.169-.006-.333-.014-.5A7.648,7.648,0,0,0,18.7,1.8Z" fill="#00abf1"/>
</svg>
