<svg xmlns="http://www.w3.org/2000/svg" width="135.028" height="135.028" viewBox="0 0 135.028 135.028">
  <g id="upload-image-video-icon" transform="translate(-676.5 -853.5)">
    <g id="img_icon" data-name="img icon" transform="translate(676.75 853.75)">
      <path id="Path_1" data-name="Path 1" d="M132.278,33.923A31.668,31.668,0,0,0,100.6,2.25H33.923A31.668,31.668,0,0,0,2.25,33.923V100.6a31.668,31.668,0,0,0,31.673,31.673H100.6A31.668,31.668,0,0,0,132.278,100.6Zm-10,0V100.6A21.674,21.674,0,0,1,100.6,122.275H33.923A21.673,21.673,0,0,1,12.252,100.6V33.923A21.673,21.673,0,0,1,33.923,12.252H100.6a21.673,21.673,0,0,1,21.671,21.671Z" transform="translate(0 0)" fill="#876fbd" stroke="#fbfbfb" stroke-width="5" fill-rule="evenodd"/>
      <path id="Path_3" data-name="Path 3" d="M13.864,49.834s9.522-13.763,17.844-25.779a8.17,8.17,0,0,1,13.89.74c1.26,2.314,2.514,4.614,3.687,6.761A15.661,15.661,0,0,0,72.81,36.284l.007-.007a4.651,4.651,0,0,1,6.181.34c5.881,5.888,13.9,13.9,13.9,13.9a5,5,0,0,0,7.068-7.068s-8.015-8.022-13.9-13.9a14.639,14.639,0,0,0-19.5-1.08.007.007,0,0,0-.007.007,5.655,5.655,0,0,1-8.5-1.707c-1.174-2.147-2.427-4.454-3.687-6.761a18.172,18.172,0,0,0-30.9-1.64L5.636,44.139a5,5,0,1,0,8.228,5.695Z" transform="translate(14.171 59.731)" fill="#876fbd" stroke="#fff" stroke-width="5" fill-rule="evenodd"/>
    </g>
    <g id="Icon" transform="translate(749.359 872.422)">
      <path id="Path_6" data-name="Path 6" d="M21.848,2.25a19.6,19.6,0,1,0,19.6,19.6A19.608,19.608,0,0,0,21.848,2.25Zm0,3.015A16.583,16.583,0,1,1,5.265,21.848,16.591,16.591,0,0,1,21.848,5.265Z" transform="translate(0 0)" fill="#876fbd" stroke="#876fbd" stroke-width="1" fill-rule="evenodd"/>
      <path id="Path_7" data-name="Path 7" d="M14.153,8.5a3.518,3.518,0,0,0-5.4,2.971V20.7a3.518,3.518,0,0,0,5.4,2.971c2.211-1.405,5.16-3.276,7.272-4.615a3.52,3.52,0,0,0,0-5.942Zm-1.616,2.547,7.272,4.615a.5.5,0,0,1,0,.848c-2.111,1.341-5.061,3.212-7.272,4.615a.5.5,0,0,1-.772-.424v-9.23a.5.5,0,0,1,.772-.424Z" transform="translate(6.565 5.761)" fill="#876fbd" stroke="#876fbd" stroke-width="1" fill-rule="evenodd"/>
    </g>
  </g>
</svg>
