<?xml version="1.0" standalone="no"?>
<!DOCTYPE svg PUBLIC "-//W3C//DTD SVG 1.1//EN" "http://www.w3.org/Graphics/SVG/1.1/DTD/svg11.dtd" >
<svg xmlns="http://www.w3.org/2000/svg" xmlns:xlink="http://www.w3.org/1999/xlink" version="1.1">
<metadata></metadata>
<defs>
<font id="barlowbold" horiz-adv-x="1140" >
<font-face units-per-em="2048" ascent="1638" descent="-410" />
<missing-glyph horiz-adv-x="409" />
<glyph horiz-adv-x="0" />
<glyph horiz-adv-x="682" />
<glyph unicode="&#xd;" horiz-adv-x="409" />
<glyph unicode=" "  horiz-adv-x="409" />
<glyph unicode="&#x09;" horiz-adv-x="409" />
<glyph unicode="&#xa0;" horiz-adv-x="409" />
<glyph unicode="!" horiz-adv-x="708" d="M164 180q0 72 56.5 124t129.5 52q74 0 131.5 -52t57.5 -124q0 -74 -54 -126t-135 -52t-133.5 51.5t-52.5 126.5zM213 1399q0 35 33 35h219q33 0 33 -35l-27 -873q0 -34 -37 -34h-162q-34 0 -34 34z" />
<glyph unicode="&#x22;" horiz-adv-x="735" d="M31 1393q-3 37 35 37h204q38 0 35 -37l-26 -396q-3 -32 -35 -32h-152q-32 0 -35 32zM436 1393q-3 37 35 37h203q38 0 35 -37l-27 -396q-3 -32 -35 -32h-149q-32 0 -35 32z" />
<glyph unicode="#" horiz-adv-x="1406" d="M96 393v176q0 35 35 35h139q12 0 15 10l30 201q3 12 -12 12h-96q-35 0 -35 35v178q0 35 35 35h137q11 0 14 10l41 261q6 32 37 32h219q37 0 31 -37l-39 -254q-3 -12 12 -12h197q11 0 14 10l41 261q6 32 37 32h219q37 0 31 -37l-39 -254q-3 -12 12 -12h105q35 0 35 -35 l-2 -178q0 -35 -35 -35h-141q-12 0 -15 -10l-31 -201q-1 -6 3 -9t10 -3h100q35 0 35 -35v-176q0 -35 -35 -35h-139q-11 0 -14 -10l-41 -260q-6 -33 -37 -33h-219q-37 0 -31 37l39 254q1 6 -2.5 9t-10.5 3h-198q-12 0 -15 -10l-40 -260q-6 -33 -37 -33h-219q-37 0 -31 37 l39 254q1 6 -2.5 9t-10.5 3h-100q-35 0 -35 35zM573 616q-1 -6 3 -9t10 -3h198q12 0 15 10l30 201q3 12 -12 12h-199q-11 0 -14 -10z" />
<glyph unicode="$" horiz-adv-x="1130" d="M86 1040q0 163 96.5 269.5t272.5 132.5q12 3 12 14l-4 111q0 35 35 35h116q35 0 35 -35l-2 -109q0 -11 12 -14q183 -20 284 -123.5t101 -263.5v-68q0 -35 -34 -35h-215q-35 0 -35 21v20q0 89 -52 148t-153 59q-86 0 -135 -41t-49 -110q0 -32 15.5 -58t39 -44t63.5 -36 t76.5 -30.5t90.5 -32t94 -37.5q157 -70 230 -169t73 -236q0 -171 -101 -282.5t-286 -135.5q-13 -3 -13 -15l2 -92q0 -35 -34 -35h-121q-35 0 -35 35l4 94q0 12 -12 15q-174 22 -271.5 119.5t-97.5 246.5v88q0 35 35 35h213q35 0 35 -26v-29q0 -83 54 -139t153 -56 q92 0 139 47t47 115q0 41 -28 73.5t-79 57.5t-106.5 46.5t-127 53t-122.5 64.5q-104 64 -159.5 146.5t-55.5 205.5z" />
<glyph unicode="%" horiz-adv-x="1689" d="M125 1128q0 134 96 229t232 95q133 0 228 -95t95 -229q0 -135 -94 -229t-229 -94q-137 0 -232.5 94t-95.5 229zM279 1128q0 -73 51 -123.5t123 -50.5q70 0 120 51t50 123t-49.5 122t-120.5 50q-72 0 -123 -50t-51 -122zM360 12q-7 12 2 29l762 1368q12 25 43 25h129 q20 0 27 -12t-2 -29l-760 -1368q-13 -25 -43 -25h-131q-20 0 -27 12zM926 307q0 134 95 228t230 94t230.5 -94.5t95.5 -227.5q0 -135 -95.5 -230t-230.5 -95t-230 95t-95 230zM1079 307q0 -73 50 -123.5t122 -50.5t122 51t50 123t-50.5 122t-121.5 50q-72 0 -122 -50 t-50 -122z" />
<glyph unicode="&#x26;" horiz-adv-x="1441" d="M78 344q0 71 21 132.5t61 110t83 85t101 73.5q12 6 4 17q-102 119 -135 182t-33 127q0 171 114.5 275t303.5 104q190 0 313 -104t123 -269q0 -67 -21.5 -124.5t-62 -103.5t-84.5 -80.5t-104 -70.5q-12 -6 -2 -16l192 -213q3 -5 8.5 -5t8.5 5q63 63 121 154q20 30 49 12 l157 -90q32 -18 13 -49q-79 -123 -170 -224q-8 -8 4 -20q84 -101 184 -209q15 -17 8.5 -30t-28.5 -13h-242q-25 0 -43 18q-15 16 -39.5 43.5t-34.5 38.5q-8 8 -18 2q-189 -118 -408 -118q-92 0 -170.5 21.5t-140.5 63.5t-97.5 112.5t-35.5 162.5zM367 369q-6 -74 50.5 -114 t155.5 -28q88 13 179 68q12 6 2 16q-69 77 -111 121q-22 23 -59.5 64.5t-53.5 58.5q-8 8 -18 2q-137 -90 -145 -188zM469 1071q0 -27 21 -61t90 -119q10 -10 18 -4q71 45 109 88t38 96t-38.5 85t-100.5 32q-63 0 -100 -32t-37 -85z" />
<glyph unicode="'" horiz-adv-x="344" d="M31 1395q-3 37 35 37h219q37 0 34 -37l-26 -394q-3 -32 -35 -32h-166q-32 0 -35 32z" />
<glyph unicode="(" horiz-adv-x="710" d="M-2 680q0 266 72 482.5t190 371.5q17 20 43 20h209q21 0 28 -11t-3 -30q-215 -381 -215 -831q0 -452 215 -827q10 -19 3 -30t-28 -11h-211q-26 0 -43 20q-118 155 -189 368t-71 478z" />
<glyph unicode=")" horiz-adv-x="710" d="M171 -175q-7 11 3 30q215 375 215 827q0 450 -215 831q-10 19 -3 30t28 11h209q26 0 43 -20q118 -155 190 -371.5t72 -482.5q0 -265 -71 -478t-189 -368q-17 -20 -43 -20h-211q-21 0 -28 11z" />
<glyph unicode="*" horiz-adv-x="817" d="M55 1028q-16 30 15 47l161 86q15 9 0 17l-161 82q-32 16 -15 47l49 90q18 32 48 14l161 -92q15 -9 15 8l-2 168q0 35 34 35h97q35 0 35 -35l-3 -168q0 -17 15 -8l162 92q29 18 47 -14l49 -90q16 -32 -14 -47l-164 -82q-15 -8 0 -17l164 -86q14 -8 17.5 -20.5t-3.5 -26.5 l-49 -90q-15 -30 -47 -12l-162 94q-15 9 -15 -8l3 -172q0 -35 -35 -35h-97q-34 0 -34 35l2 172q0 17 -15 8l-161 -94q-33 -18 -48 12z" />
<glyph unicode="+" horiz-adv-x="995" d="M59 526v179q0 34 35 34h268q13 0 13 13v270q0 35 35 35h176q35 0 35 -35v-270q0 -13 12 -13h268q35 0 35 -34v-179q0 -34 -35 -34h-268q-12 0 -12 -13v-264q0 -35 -35 -35h-176q-35 0 -35 35v264q0 13 -13 13h-268q-35 0 -35 34z" />
<glyph unicode="," horiz-adv-x="542" d="M86 -164l66 455q2 15 11.5 24t24.5 9h187q19 0 27.5 -11t3.5 -28l-123 -457q-10 -29 -39 -29h-127q-37 0 -31 37z" />
<glyph unicode="-" horiz-adv-x="837" d="M59 516v178q0 35 35 35h649q35 0 35 -35v-178q0 -35 -35 -35h-649q-35 0 -35 35z" />
<glyph unicode="." horiz-adv-x="546" d="M84 170q0 72 57 124t129 52q75 0 133 -52t58 -124q0 -74 -55 -126t-136 -52t-133.5 51.5t-52.5 126.5z" />
<glyph unicode="/" horiz-adv-x="909" d="M53 41l520 1366q9 27 39 27h217q19 0 27 -12t2 -29l-520 -1366q-9 -27 -39 -27h-217q-19 0 -27 12t-2 29z" />
<glyph unicode="0" horiz-adv-x="1167" d="M94 446v541q0 214 131 338.5t357 124.5t357.5 -124.5t131.5 -338.5v-541q0 -217 -131.5 -343t-357.5 -126t-357 126t-131 343zM383 432q0 -95 54 -151t145 -56q92 0 146 56t54 151v563q0 95 -54 151t-146 56q-91 0 -145 -56t-54 -151v-563z" />
<glyph unicode="1" horiz-adv-x="694" d="M59 1157v156q0 30 27 39l186 73q21 9 43 9h232q35 0 35 -35v-1364q0 -35 -35 -35h-219q-35 0 -35 35v1116q0 15 -14 12l-181 -37q-17 -3 -28 5.5t-11 25.5z" />
<glyph unicode="2" horiz-adv-x="1146" d="M84 993v86q9 168 142.5 269.5t332.5 101.5q217 0 347 -116.5t130 -289.5q0 -160 -172 -370q-47 -58 -101.5 -118t-151.5 -161.5t-126 -132.5q-6 -4 -3.5 -9t10.5 -5h536q35 0 35 -35v-178q0 -35 -35 -35h-901q-35 0 -35 35v172q0 21 19 43q98 98 265.5 282.5t180.5 198.5 q186 206 186 307q0 73 -50.5 118.5t-133.5 45.5t-133.5 -46.5t-50.5 -121.5v-41q0 -35 -35 -35h-221q-35 0 -35 35z" />
<glyph unicode="3" horiz-adv-x="1105" d="M68 434q0 35 34 35h222q33 0 36 -35q3 -45 21 -90q19 -53 60.5 -83t99.5 -30q113 0 157 101q29 63 29 143q0 87 -33 158q-46 96 -155 96q-39 0 -95 -39q-29 -19 -49 8l-108 146q-19 29 4 49l319 278q6 5 4 10t-10 5h-473q-35 0 -35 35v178q0 35 35 35h834q34 0 34 -35 v-201q0 -25 -18 -43l-268 -244q-13 -13 8 -16q178 -35 256 -211q41 -93 41 -217q0 -110 -37 -205q-51 -130 -166 -204t-272 -74t-274 77.5t-169 210.5q-24 62 -32 162z" />
<glyph unicode="4" horiz-adv-x="1239" d="M68 403v148q0 22 8 43l364 813q14 27 41 27h234q20 0 27 -12t-1 -29l-335 -754q-6 -14 10 -14h305q12 0 12 12v242q0 34 35 34h219q35 0 35 -34v-242q0 -12 12 -12h74q35 0 35 -35v-187q0 -34 -35 -34h-74q-12 0 -12 -13v-321q0 -35 -35 -35h-219q-35 0 -35 35v321 q0 13 -12 13h-619q-34 0 -34 34z" />
<glyph unicode="5" horiz-adv-x="1103" d="M90 367q-3 17 6 26.5t27 9.5h227q30 0 39 -28q2 -8 10 -29q19 -53 60.5 -81.5t99.5 -28.5q107 0 152 94q15 34 16 39q14 41 14 84q3 56 -18 112q-13 53 -56.5 82t-107.5 29q-111 0 -158 -76q-15 -27 -41 -27h-235q-35 0 -35 35v791q0 35 35 35h825q35 0 35 -35v-178 q0 -35 -35 -35h-559q-5 0 -8.5 -4t-3.5 -8l-2 -297q0 -8 4 -10.5t10 1.5q94 58 211 58q142 0 251 -73.5t153 -199.5q30 -102 30 -194q0 -110 -32 -189q-46 -130 -165.5 -207t-279.5 -77q-156 0 -273 75t-167 203q-19 45 -29 103z" />
<glyph unicode="6" horiz-adv-x="1099" d="M86 461v616q0 168 128 270.5t333 102.5q201 0 325.5 -101.5t124.5 -265.5v-47q0 -35 -34 -35h-220q-34 0 -34 23v20q0 68 -45.5 113t-116.5 45q-75 0 -123.5 -46t-48.5 -118v-188q0 -8 4 -10t10 4q86 69 221 69q123 0 220.5 -56.5t152.5 -162.5q49 -92 49 -235 q0 -121 -39 -213q-53 -122 -166 -191t-266 -69q-158 0 -272.5 72t-165.5 202q-37 87 -37 201zM377 451q0 -74 26 -125q46 -90 156 -90q107 0 154 90q30 52 30 129q0 84 -32 135q-51 82 -150 82q-109 0 -153 -84q-31 -53 -31 -137z" />
<glyph unicode="7" horiz-adv-x="1015" d="M41 1092l2 307q0 35 35 35h874q35 0 35 -35v-191q0 -22 -8 -43l-438 -1138q-9 -27 -39 -27h-236q-18 0 -25 11.5t-1 29.5l436 1130q4 15 -8 15h-379q-13 0 -13 -12v-82q0 -35 -34 -35h-166q-35 0 -35 35z" />
<glyph unicode="8" horiz-adv-x="1107" d="M76 420q0 117 47 213q40 73 104 119q13 10 0 16q-55 41 -94 102q-49 81 -49 187q0 127 68 223q60 86 164.5 133t236.5 47q150 0 259 -55t165 -164q47 -88 47 -186q0 -102 -51 -181q-39 -56 -99 -104q-13 -6 0 -16q71 -46 109 -123q45 -88 45 -213q0 -120 -47 -209 q-55 -105 -167 -165t-263 -60q-145 0 -257 58.5t-169 170.5q-49 94 -49 207zM371 442q0 -81 32 -137q49 -78 150 -78q97 0 147 72q39 58 39 147q0 59 -20 107q-45 102 -166 102q-111 0 -160 -100q-22 -49 -22 -113zM371 1022q0 -64 28 -109q47 -77 154 -77q112 0 160 79 q26 45 26 109q0 57 -20 96q-48 92 -166 92q-116 0 -162 -88q-20 -41 -20 -102z" />
<glyph unicode="9" horiz-adv-x="1087" d="M55 975q0 121 39 213q53 122 166 191t266 69q158 0 273 -72t166 -202q36 -85 36 -201v-617q0 -168 -127.5 -270t-332.5 -102q-201 0 -326 101t-125 265v47q0 35 35 35h219q35 0 35 -20v-23q0 -68 45.5 -113t116.5 -45q75 0 123.5 46t48.5 118v189q0 8 -4.5 10t-10.5 -4 q-87 -70 -221 -70q-123 0 -220.5 56.5t-152.5 162.5q-49 92 -49 236zM344 979q0 -82 33 -135q51 -82 149 -82q110 0 154 84q31 53 31 137q0 73 -27 125q-46 90 -156 90q-106 0 -153 -90q-31 -54 -31 -129z" />
<glyph unicode=":" horiz-adv-x="745" d="M188 190q0 71 57.5 123t129.5 52q73 0 130.5 -52t57.5 -123q0 -76 -53.5 -127t-134.5 -51t-134 51t-53 127zM188 860q0 72 57.5 124t129.5 52q74 0 131 -52t57 -124q0 -74 -53.5 -126t-134.5 -52t-134 51.5t-53 126.5z" />
<glyph unicode=";" horiz-adv-x="647" d="M139 819q0 72 57.5 124t129.5 52q74 0 131 -52t57 -124q0 -74 -53.5 -126t-134.5 -52t-134 51.5t-53 126.5zM156 -162l45 449q1 15 11.5 23.5t25.5 8.5h188q19 0 27.5 -10.5t3.5 -27.5l-107 -449q-6 -31 -37 -31h-125q-35 0 -32 37z" />
<glyph unicode="&#x3c;" horiz-adv-x="995" d="M59 465v192q0 27 27 41l809 357q17 8 29 0.5t12 -27.5v-201q0 -27 -27 -39l-534 -219q-7 -3 -7 -8t7 -8l534 -217q27 -12 27 -39v-203q0 -20 -12 -27t-29 1l-809 356q-27 14 -27 41z" />
<glyph unicode="=" horiz-adv-x="995" d="M59 324v178q0 35 35 35h807q35 0 35 -35v-178q0 -35 -35 -35h-807q-35 0 -35 35zM59 717v178q0 35 35 35h807q35 0 35 -35v-178q0 -35 -35 -35h-807q-35 0 -35 35z" />
<glyph unicode="&#x3e;" horiz-adv-x="995" d="M59 94v203q0 27 27 39l535 217q7 3 7 8t-7 8l-535 219q-27 12 -27 39v201q0 20 12 27.5t29 -0.5l809 -357q27 -14 27 -41v-192q0 -27 -27 -41l-809 -356q-17 -8 -29 -1t-12 27z" />
<glyph unicode="?" horiz-adv-x="1067" d="M57 1014v22q0 186 134.5 302t351.5 116q212 0 338.5 -109t126.5 -290q0 -69 -20 -126t-52.5 -95.5t-71.5 -70.5t-78.5 -58t-72 -51.5t-52.5 -58t-20 -69.5v-37q0 -34 -35 -34h-217q-35 0 -35 34v56q0 58 20 106.5t51.5 82t70 63t77.5 56t70.5 53.5t51.5 62t20 76 q0 66 -49 106t-129 40q-87 0 -139 -43t-52 -111v-22q0 -33 -35 -33l-219 8q-15 0 -25 7t-10 18zM336 160q0 67 52 115.5t124 48.5q70 0 122 -48.5t52 -115.5t-52.5 -115.5t-123.5 -48.5q-72 0 -123 48t-51 116z" />
<glyph unicode="@" horiz-adv-x="1677" d="M86 578q18 171 93.5 317t189.5 245t261.5 154.5t307.5 55.5q216 0 374 -92.5t232 -261t47 -384.5q-25 -201 -123.5 -312.5t-263.5 -111.5q-146 0 -219 82q-8 8 -16 0q-83 -80 -219 -80q-109 0 -180.5 56t-86.5 145q-13 67 2 176q11 89 41 170q35 101 114.5 155t174.5 54 q99 0 152 -59q3 -4 6.5 -5t6 1.5t3.5 7.5l2 18q1 15 11.5 24t25.5 9h123q39 0 33 -37l-52 -370q-10 -71 16 -119.5t83 -48.5q128 0 164 233q18 138 -8 247t-88.5 179t-155 106.5t-209.5 36.5q-167 0 -306.5 -72.5t-230 -212t-108.5 -323.5q-29 -257 101 -410t368 -153 q93 0 176.5 21.5t136.5 54.5q28 16 47 -8l64 -76q23 -27 -5 -49q-81 -57 -201 -91t-247 -34q-146 0 -271 54t-213 150.5t-130 241.5t-23 316zM672 440q8 -40 36 -63t72 -23q81 0 121 86q24 46 33 129q9 79 2 125q-5 39 -32.5 62.5t-69.5 23.5q-41 0 -75 -24t-52 -62 q-20 -42 -33 -135q-11 -80 -2 -119z" />
<glyph unicode="A" horiz-adv-x="1374" d="M61 39l437 1366q10 29 39 29h301q29 0 39 -29l436 -1366q6 -17 -2 -28t-27 -11h-237q-29 0 -39 29l-58 190q-2 10 -12 10h-502q-10 0 -12 -10l-57 -190q-10 -29 -39 -29h-238q-19 0 -27 11t-2 28zM496 467q-3 -14 10 -14h362q14 0 11 14l-185 625q-3 8 -8 8t-8 -8z" />
<glyph unicode="B" horiz-adv-x="1269" d="M125 35v1364q0 35 35 35h504q485 0 485 -394q0 -206 -172 -290q-6 -3 -6 -8.5t6 -8.5q192 -97 192 -332q0 -102 -37.5 -180t-104.5 -125.5t-154.5 -71.5t-192.5 -24h-520q-35 0 -35 35zM414 262q0 -12 12 -12h254q95 0 148 47.5t53 132.5t-53.5 132.5t-149.5 47.5h-252 q-12 0 -12 -12v-336zM414 858q0 -12 12 -12h238q96 0 149 44.5t53 123.5q0 80 -53 126t-149 46h-238q-12 0 -12 -12v-316z" />
<glyph unicode="C" horiz-adv-x="1245" d="M96 481v473q0 224 146 360t387 136q238 0 384 -130t146 -343q0 -20 -33 -23l-219 -14q-37 -3 -37 10v13q0 107 -66 173t-175 66q-110 0 -177 -66t-67 -173v-494q0 -106 67 -172t177 -66q108 0 174.5 66t66.5 172q0 11 9 17.5t26 5.5l219 -11q35 -3 35 -10v-10 q0 -215 -146 -346t-384 -131q-241 0 -387 136.5t-146 360.5z" />
<glyph unicode="D" horiz-adv-x="1265" d="M125 35v1364q0 35 35 35h502q232 0 372 -119t140 -316v-565q0 -196 -140 -315t-372 -119h-502q-35 0 -35 35zM414 260q0 -12 12 -12h246q95 0 153 63.5t60 169.5v471q0 106 -58.5 170t-156.5 64h-244q-12 0 -12 -12v-914z" />
<glyph unicode="E" horiz-adv-x="1196" d="M125 35v1364q0 35 35 35h925q35 0 35 -35v-178q0 -35 -35 -35h-659q-12 0 -12 -12v-314q0 -12 12 -12h428q35 0 35 -35v-178q0 -35 -35 -35h-428q-12 0 -12 -12v-328q0 -12 12 -12h659q35 0 35 -35v-178q0 -35 -35 -35h-925q-35 0 -35 35z" />
<glyph unicode="F" horiz-adv-x="1146" d="M125 35v1364q0 35 35 35h923q35 0 35 -35v-178q0 -35 -35 -35h-657q-12 0 -12 -12v-314q0 -12 12 -12h428q35 0 35 -35v-178q0 -35 -35 -35h-428q-12 0 -12 -12v-553q0 -35 -35 -35h-219q-35 0 -35 35z" />
<glyph unicode="G" horiz-adv-x="1243" d="M96 487v459q0 227 146.5 365.5t386.5 138.5q234 0 381 -132.5t147 -330.5v-4q0 -35 -35 -35h-219q-16 0 -25.5 5t-9.5 12v14q0 95 -65 159t-174 64q-110 0 -177 -68.5t-67 -179.5v-475q0 -109 72 -178.5t182 -69.5q107 0 170 56.5t63 156.5v91q0 12 -12 12h-217 q-35 0 -35 35v168q0 34 35 34h479q35 0 35 -34v-261q0 -234 -144 -369.5t-384 -135.5q-239 0 -386 138.5t-147 364.5z" />
<glyph unicode="H" horiz-adv-x="1286" d="M125 35v1364q0 35 35 35h219q35 0 35 -35v-539q0 -12 12 -12h448q13 0 13 12v539q0 35 35 35h219q35 0 35 -35v-1364q0 -35 -35 -35h-219q-35 0 -35 35v553q0 12 -13 12h-448q-12 0 -12 -12v-553q0 -35 -35 -35h-219q-35 0 -35 35z" />
<glyph unicode="I" horiz-adv-x="538" d="M125 35v1364q0 35 35 35h219q35 0 35 -35v-1364q0 -35 -35 -35h-219q-35 0 -35 35z" />
<glyph unicode="J" horiz-adv-x="1208" d="M39 451v71q0 35 35 35h219q35 0 35 -35v-71q0 -98 63.5 -159t167.5 -61q107 0 172.5 61t65.5 159v948q0 35 34 35h218q34 0 34 -35v-948q0 -210 -144.5 -338.5t-379.5 -128.5q-234 0 -377 128.5t-143 338.5z" />
<glyph unicode="K" horiz-adv-x="1282" d="M125 35v1364q0 35 35 35h219q35 0 35 -35v-559q0 -8 5 -10t9 4l467 579q15 21 43 21h248q22 0 27.5 -12t-7.5 -31l-446 -570q-6 -6 0 -16l473 -764q11 -17 4 -29t-27 -12h-247q-27 0 -41 23l-359 581q-7 14 -18 0l-125 -160q-6 -9 -6 -14v-395q0 -35 -35 -35h-219 q-35 0 -35 35z" />
<glyph unicode="L" horiz-adv-x="1171" d="M125 35v1364q0 35 35 35h219q35 0 35 -35v-1139q0 -12 12 -12h657q35 0 35 -35v-178q0 -35 -35 -35h-923q-35 0 -35 35z" />
<glyph unicode="M" horiz-adv-x="1456" d="M127 35v1364q0 35 35 35h219q27 0 41 -23l297 -479q3 -6 8 -6t8 6l301 479q14 23 41 23h219q35 0 35 -35v-1364q0 -35 -35 -35h-219q-35 0 -35 35v887q0 9 -5 10.5t-9 -6.5l-207 -338q-14 -23 -41 -23h-104q-27 0 -41 23l-205 338q-4 8 -9 6.5t-5 -10.5v-887 q0 -35 -35 -35h-219q-35 0 -35 35z" />
<glyph unicode="N" horiz-adv-x="1347" d="M125 35v1364q0 35 35 35h211q27 0 41 -23l512 -852q4 -8 9 -6.5t5 10.5v836q0 35 35 35h215q35 0 35 -35v-1364q0 -35 -35 -35h-209q-25 0 -41 25l-514 860q-4 8 -9 6.5t-5 -10.5l2 -846q0 -35 -35 -35h-217q-35 0 -35 35z" />
<glyph unicode="O" horiz-adv-x="1271" d="M96 498v438q0 231 148 372.5t391 141.5q244 0 392.5 -141.5t148.5 -372.5v-438q0 -234 -148.5 -377.5t-392.5 -143.5q-243 0 -391 143.5t-148 377.5zM385 487q0 -118 68.5 -190t181.5 -72q114 0 183 71.5t69 190.5v451q0 120 -69 192t-183 72q-113 0 -181.5 -72 t-68.5 -192v-451z" />
<glyph unicode="P" horiz-adv-x="1222" d="M115 35v1366q0 35 35 35h567q204 0 328 -122.5t124 -322.5q0 -195 -127.5 -314.5t-336.5 -119.5h-289q-13 0 -13 -12v-510q0 -35 -34 -35h-219q-35 0 -35 35zM403 801q0 -13 13 -13h258q94 0 151.5 54.5t57.5 142.5q0 91 -57.5 146t-151.5 55h-258q-13 0 -13 -12v-373z " />
<glyph unicode="Q" horiz-adv-x="1214" d="M84 477v459q0 231 144 372.5t378 141.5q236 0 380 -141t144 -373v-459q0 -182 -98 -307.5t-268 -167.5q-10 -3 -10 -12v-156q0 -35 -35 -35h-219q-35 0 -35 35v154q0 9 -10 12q-171 42 -271 168.5t-100 308.5zM373 483q0 -113 64.5 -182.5t168.5 -69.5q106 0 171 69.5 t65 182.5v467q0 113 -65 182.5t-171 69.5q-104 0 -168.5 -69.5t-64.5 -182.5v-467z" />
<glyph unicode="R" horiz-adv-x="1257" d="M125 35v1366q0 35 35 35h575q198 0 318.5 -119t120.5 -313q0 -138 -70 -238.5t-193 -142.5q-6 -1 -7.5 -7t1.5 -10l271 -565q9 -17 2 -29t-27 -12h-231q-28 0 -41 27l-252 557q-3 10 -15 10h-186q-12 0 -12 -12v-547q0 -35 -35 -35h-219q-35 0 -35 35zM414 829 q0 -12 12 -12h266q87 0 141 50.5t54 131.5q0 83 -54.5 135t-140.5 52h-266q-12 0 -12 -12v-345z" />
<glyph unicode="S" horiz-adv-x="1212" d="M78 412v34q0 35 35 35h215q34 0 34 -26v-29q0 -81 75 -138t196 -57q109 0 161 46t52 114q0 30 -14 55t-31.5 42t-63.5 39t-77 34.5t-105 39.5q-5 2 -8 3q-56 19 -93.5 33.5t-90 38.5t-87.5 47t-73.5 57.5t-61.5 71.5t-38 86.5t-15 105.5q0 187 138.5 296.5t361.5 109.5 q238 0 388 -121.5t150 -318.5v-21q0 -35 -34 -35h-215q-35 0 -35 21v20q0 85 -70.5 146t-193.5 61q-98 0 -151.5 -40.5t-53.5 -112.5q0 -75 65 -116.5t252 -107.5q157 -57 214 -86q185 -95 221 -251q10 -43 10 -89q0 -188 -142.5 -301.5t-382.5 -113.5q-242 0 -387 116.5 t-145 311.5z" />
<glyph unicode="T" horiz-adv-x="1198" d="M57 1219v180q0 35 35 35h1012q35 0 35 -35v-180q0 -35 -35 -35h-354q-13 0 -13 -13v-1136q0 -35 -35 -35h-219q-34 0 -34 35v1136q0 13 -13 13h-344q-35 0 -35 35z" />
<glyph unicode="U" horiz-adv-x="1288" d="M115 475v924q0 35 35 35h219q34 0 34 -35v-926q0 -108 67 -175t175 -67t175 67t67 175v926q0 35 35 35h219q35 0 35 -35v-924q0 -221 -146.5 -356t-384.5 -135t-384 135t-146 356z" />
<glyph unicode="V" horiz-adv-x="1273" d="M61 1395q-5 18 3 28.5t26 10.5h238q29 0 39 -29l268 -987q1 -8 8 -8t8 8l264 985q10 31 39 31h232q19 0 26.5 -11t1.5 -28l-421 -1366q-10 -29 -39 -29h-238q-29 0 -39 29z" />
<glyph unicode="W" horiz-adv-x="1767" d="M39 1395q-5 17 3.5 28t27.5 11h233q31 0 37 -31l192 -817q2 -8 9 -8t8 8l184 817q6 31 37 31h231q33 0 39 -31l201 -817q1 -6 4 -7.5t6 0.5t4 7l185 817q6 31 37 31h223q18 0 26 -10.5t3 -28.5l-330 -1364q-6 -31 -39 -31h-225q-33 0 -39 31l-205 870q-2 8 -8.5 8.5 t-8.5 -8.5l-190 -870q-6 -31 -37 -31h-209q-32 0 -39 31z" />
<glyph unicode="X" horiz-adv-x="1292" d="M71 12q-7 12 3 29l389 668q3 8 0 16l-389 668q-10 17 -3 29t27 12h238q30 0 43 -25l260 -459q3 -6 8 -6t8 6l260 459q13 25 43 25h236q20 0 27.5 -12t-2.5 -29l-390 -668q-3 -8 0 -16l390 -668q10 -17 2.5 -29t-27.5 -12h-236q-30 0 -43 25l-260 456q-3 6 -8 6t-8 -6 l-262 -456q-13 -25 -43 -25h-236q-20 0 -27 12z" />
<glyph unicode="Y" horiz-adv-x="1263" d="M67.5 1422q6.5 12 26.5 12h238q28 0 41 -27l250 -533q3 -6 8 -6t8 6l250 533q13 27 41 27h239q20 0 28 -12t-1 -29l-418 -834q-4 -8 -4 -16v-506q0 -35 -35 -35h-217q-35 0 -35 35v506q0 8 -4 16l-413 834q-9 17 -2.5 29z" />
<glyph unicode="Z" d="M66 35v203q0 26 14 43l655 890q4 6 2 10.5t-10 4.5h-627q-34 0 -34 35v178q0 35 34 35h928q35 0 35 -35v-203q0 -26 -14 -43l-656 -891q-4 -6 -2 -10t10 -4h627q35 0 35 -35v-178q0 -35 -35 -35h-928q-34 0 -34 35z" />
<glyph unicode="[" horiz-adv-x="851" d="M72 -266v1870q0 34 34 34h465q35 0 35 -34v-179q0 -34 -35 -34h-198q-13 0 -13 -13v-1417q0 -12 13 -12h200q35 0 35 -35v-180q0 -35 -35 -35h-467q-34 0 -34 35z" />
<glyph unicode="\" horiz-adv-x="909" d="M51 1393q-6 19 2 30t27 11h217q30 0 39 -27l520 -1366q6 -17 -2 -29t-27 -12h-217q-30 0 -39 27z" />
<glyph unicode="]" horiz-adv-x="851" d="M244 -86q0 35 35 35h200q13 0 13 12v1417q0 13 -13 13h-198q-35 0 -35 34v179q0 34 35 34h464q35 0 35 -34v-1870q0 -35 -35 -35h-466q-35 0 -35 35v180z" />
<glyph unicode="^" horiz-adv-x="968" d="M74 651l276 754q10 29 39 29h184q29 0 39 -29l283 -754q6 -19 -2 -30t-27 -11h-172q-32 0 -41 29l-161 485q-3 9 -8.5 9t-8.5 -9l-160 -485q-9 -29 -41 -29h-172q-19 0 -26.5 12t-1.5 29z" />
<glyph unicode="_" horiz-adv-x="1071" d="M39 35v149q0 35 35 35h923q35 0 35 -35v-149q0 -35 -35 -35h-923q-35 0 -35 35z" />
<glyph unicode="`" horiz-adv-x="499" d="M63.5 1414q5.5 13 26.5 13h207q29 0 41 -24l100 -186q9 -19 2.5 -30t-26.5 -11h-172q-25 0 -41 22l-131 186q-12 17 -6.5 30z" />
<glyph unicode="a" horiz-adv-x="1081" d="M53 291q0 157 110.5 244.5t315.5 87.5h207q12 0 12 12v43q0 67 -41.5 105t-121.5 38q-127 0 -156 -78q-12 -29 -41 -26l-227 28q-16 2 -25 9.5t-8 19.5q15 129 140.5 212t309.5 83q201 0 330 -100t129 -250v-684q0 -35 -35 -35h-219q-35 0 -35 35v49q0 8 -4 9t-10 -5 q-94 -104 -281 -104q-158 0 -254 77.5t-96 229.5zM342 317q0 -55 40 -86.5t105 -31.5q88 0 149.5 47t61.5 121v71q0 13 -12 13h-145q-93 0 -146 -35t-53 -99z" />
<glyph unicode="b" d="M111 35v1364q0 35 34 35h220q34 0 34 -35v-422q0 -8 5.5 -10t9.5 4q81 100 233 100q139 0 242.5 -78t148.5 -209q39 -102 39 -254q0 -146 -35 -245q-42 -136 -149 -218.5t-246 -82.5q-151 0 -233 110q-3 4 -6.5 5t-6 -1.5t-2.5 -7.5v-55q0 -35 -34 -35h-220q-34 0 -34 35 zM401 526q0 -128 41 -202q50 -88 140 -88q99 0 149 88q43 78 43 200q0 134 -49 215q-50 78 -143 78q-86 0 -138 -80q-43 -76 -43 -211z" />
<glyph unicode="c" horiz-adv-x="1099" d="M80 532q0 135 35 238q50 139 170.5 219t283.5 80q165 0 288.5 -82t164.5 -207q12 -30 16 -63q3 -30 -30 -37l-215 -33q-15 -3 -26.5 3.5t-12.5 19.5l-6 28q-14 53 -63.5 88t-117.5 35q-65 0 -110 -32.5t-64 -90.5q-22 -61 -22 -168q0 -106 20 -168q19 -61 64.5 -96 t111.5 -35q64 0 111.5 34t66.5 91l3 11q2 9 13.5 20t26.5 8l216 -33q34 -7 28 -38q-5 -34 -10 -48q-44 -136 -167.5 -214t-285.5 -78q-163 0 -282.5 82.5t-171.5 224.5q-35 101 -35 241z" />
<glyph unicode="d" d="M63 530q0 152 39 254q45 131 149 209t243 78q152 0 233 -100q5 -6 9.5 -4t4.5 10v422q0 35 35 35h219q35 0 35 -35v-1364q0 -35 -35 -35h-219q-35 0 -35 35v55q0 7 -4.5 8.5t-9.5 -4.5q-83 -110 -233 -110q-139 0 -247 82.5t-149 218.5q-35 99 -35 245zM367 524 q0 -122 43 -200q50 -88 149 -88q89 0 139 88q41 74 41 202q0 135 -43 211q-52 80 -137 80q-93 0 -143 -78q-49 -81 -49 -215z" />
<glyph unicode="e" horiz-adv-x="1120" d="M84 535q0 119 22 200q42 152 165.5 244t293.5 92q201 0 318.5 -119.5t152.5 -333.5q10 -77 13 -149q0 -35 -35 -35h-629q-12 0 -12 -12q7 -44 14 -64q22 -63 81 -97t146 -34q134 6 207 95q25 28 49 4l117 -113q22 -22 4 -49q-67 -84 -172.5 -132t-230.5 -48 q-189 0 -313 96.5t-166 263.5q-25 92 -25 191zM379 649q-3 -12 10 -12h348q14 0 11 12q-3 24 -9 43q-19 61 -64.5 95t-113.5 34q-132 0 -170 -121q-11 -37 -12 -51z" />
<glyph unicode="f" horiz-adv-x="792" d="M53 846v174q0 35 35 35h109q12 0 12 12v43q0 187 89 258q83 66 282 66h34h68q35 0 35 -35v-146q0 -34 -35 -34h-57q-72 -2 -99.5 -30.5t-27.5 -101.5v-20q0 -12 12 -12h186q35 0 35 -35v-174q0 -35 -35 -35h-186q-12 0 -12 -12v-764q0 -35 -35 -35h-219q-35 0 -35 35v764 q0 12 -12 12h-109q-35 0 -35 35z" />
<glyph unicode="g" horiz-adv-x="1138" d="M76 532q0 161 37 261q44 125 145.5 200.5t237.5 75.5q153 0 239 -92q6 -6 10.5 -4t4.5 10v35q0 35 34 35h220q34 0 34 -35v-924q0 -95 -22 -172.5t-59.5 -131t-91 -92.5t-114 -60.5t-131.5 -31.5q-66 -9 -128 -9h-13q-69 1 -143 10q-31 3 -31 37l8 190q0 17 11 25.5 t28 5.5q67 -8 124 -8q46 0 86 5q88 12 138 70.5t50 163.5q0 6 -4.5 7t-10.5 -5q-76 -82 -225 -82q-62 0 -119.5 14t-114 44t-101.5 85t-69 130q-30 91 -30 243zM367 532q0 -114 24 -163q20 -55 65 -89t109 -34q66 0 109 33.5t59 87.5q17 66 17 168q0 101 -19 163 q-18 56 -61 89.5t-107 33.5q-61 0 -103.5 -33.5t-64.5 -89.5q-28 -61 -28 -166z" />
<glyph unicode="h" horiz-adv-x="1120" d="M106 35v1364q0 35 35 35h219q35 0 35 -35v-438q0 -8 4.5 -10.5t8.5 3.5q84 115 247 115q164 0 264.5 -100.5t100.5 -272.5v-661q0 -35 -35 -35h-219q-35 0 -35 35v602q0 82 -45.5 133t-120.5 51t-122.5 -50.5t-47.5 -133.5v-602q0 -35 -35 -35h-219q-35 0 -35 35z" />
<glyph unicode="i" horiz-adv-x="532" d="M90 1325q0 76 49 124t127 48q79 0 127.5 -47.5t48.5 -124.5t-48.5 -124.5t-127.5 -47.5q-78 0 -127 48t-49 124zM123 35v983q0 35 35 35h219q35 0 35 -35v-983q0 -35 -35 -35h-219q-35 0 -35 35z" />
<glyph unicode="j" horiz-adv-x="516" d="M-123 -209q0 33 37 33h16q101 0 144 36q47 40 47 136v1022q0 35 35 35h219q35 0 35 -35v-1018q0 -165 -45.5 -254.5t-152.5 -127.5q-98 -36 -272 -36h-28q-35 0 -35 35v174zM88 1319q0 71 53 120.5t123 49.5q72 0 125 -49.5t53 -120.5q0 -73 -50.5 -122.5t-127.5 -49.5 t-126.5 49.5t-49.5 122.5z" />
<glyph unicode="k" horiz-adv-x="1091" d="M106 35v1364q0 35 35 35h219q35 0 35 -35v-676q0 -7 5.5 -8.5t9.5 4.5l272 313q21 21 43 21h248q22 0 28.5 -12t-6.5 -31l-252 -316q-5 -6 -2 -16l301 -637q8 -17 1 -29t-27 -12h-232q-29 0 -41 27l-198 469q-5 14 -17 2l-127 -162q-6 -9 -6 -14v-287q0 -35 -35 -35h-219 q-35 0 -35 35z" />
<glyph unicode="l" horiz-adv-x="509" d="M111 35v1364q0 35 34 35h220q34 0 34 -35v-1364q0 -35 -34 -35h-220q-34 0 -34 35z" />
<glyph unicode="m" horiz-adv-x="1710" d="M106 35v983q0 35 35 35h219q35 0 35 -35v-66q0 -8 5.5 -9.5t9.5 5.5q84 121 258 121q102 0 177.5 -42.5t117.5 -121.5q3 -7 8 -6.5t8 6.5q46 82 122.5 123t172.5 41q160 0 250 -97t90 -270v-667q0 -35 -35 -35h-219q-35 0 -35 35v604q0 83 -43 132.5t-115 49.5 q-71 0 -116 -49t-45 -131v-606q0 -35 -35 -35h-217q-35 0 -35 35v604q0 83 -44.5 132.5t-117.5 49.5q-66 0 -109.5 -39t-52.5 -108v-639q0 -35 -35 -35h-219q-35 0 -35 35z" />
<glyph unicode="n" horiz-adv-x="1120" d="M106 35v983q0 35 35 35h219q35 0 35 -35v-57q0 -8 4.5 -10.5t8.5 3.5q84 115 247 115q164 0 264.5 -100.5t100.5 -272.5v-661q0 -35 -35 -35h-219q-35 0 -35 35v602q0 82 -45.5 133t-120.5 51t-122.5 -50.5t-47.5 -133.5v-602q0 -35 -35 -35h-219q-35 0 -35 35z" />
<glyph unicode="o" d="M80 528q0 122 31 217q46 152 168 238t296 86q168 0 287.5 -85.5t167.5 -235.5q31 -98 31 -216q0 -103 -27 -206q-46 -159 -168 -250.5t-293 -91.5q-174 0 -296.5 89.5t-167.5 245.5q-29 98 -29 209zM371 528q0 -84 16 -143q21 -72 68.5 -113t117.5 -41q66 0 113 41 t68 113q16 55 16 143q0 87 -16 146q-21 70 -68 108.5t-117 38.5q-68 0 -114.5 -39t-67.5 -108q-16 -59 -16 -146z" />
<glyph unicode="p" horiz-adv-x="1144" d="M117 -346v1364q0 35 35 35h219q35 0 35 -35v-55q0 -8 5 -9.5t9 4.5q83 111 233 111q139 0 247 -82.5t149 -218.5q34 -96 34 -246q0 -152 -39 -254q-45 -131 -148.5 -208.5t-242.5 -77.5q-152 0 -233 100q-4 6 -9 4t-5 -10v-422q0 -35 -35 -35h-219q-35 0 -35 35zM408 526 q0 -135 43 -211q51 -79 137 -79q93 0 143 77q49 81 49 215q0 123 -43 201q-50 88 -149 88q-89 0 -139 -88q-41 -74 -41 -203z" />
<glyph unicode="q" horiz-adv-x="1144" d="M63 522q0 147 35 246q41 136 149 218.5t247 82.5q150 0 233 -111q5 -6 9.5 -4.5t4.5 9.5v55q0 35 35 35h219q35 0 35 -35v-1364q0 -35 -35 -35h-219q-35 0 -35 35v422q0 8 -4.5 10t-9.5 -4q-81 -100 -233 -100q-139 0 -243 77.5t-149 208.5q-39 102 -39 254zM367 528 q0 -134 49 -215q50 -77 143 -77q86 0 137 79q43 76 43 211q0 129 -41 203q-50 88 -139 88q-99 0 -149 -88q-43 -78 -43 -201z" />
<glyph unicode="r" horiz-adv-x="784" d="M106 35v983q0 35 35 35h219q35 0 35 -35v-64q0 -8 4.5 -10t10.5 4q81 119 221 119q63 0 108 -25q26 -12 19 -43l-39 -215q-3 -18 -11.5 -21.5t-29.5 -0.5q-26 8 -59 8q-23 0 -48 -4q-74 -6 -125 -54.5t-51 -127.5v-549q0 -35 -35 -35h-219q-35 0 -35 35z" />
<glyph unicode="s" horiz-adv-x="1030" d="M74 291v10q0 35 35 35h206q35 0 35 -12v-15q0 -45 49.5 -76.5t124.5 -31.5q70 0 113 27t43 69q0 29 -28.5 48.5t-66 29.5t-102 27.5t-110.5 35.5q-48 16 -84 31.5t-77 41.5t-67 55.5t-43.5 73.5t-17.5 97q0 152 118.5 241t311.5 89q197 0 317.5 -92.5t120.5 -239.5 q0 -24 -34 -24h-201q-35 0 -35 12v12q0 46 -45 76.5t-121 30.5q-68 0 -112 -24.5t-44 -67.5q0 -24 15 -41t46.5 -29.5t62.5 -20.5t83 -21t88 -24q54 -16 95.5 -32t85 -42t71.5 -57t46 -76t18 -100q0 -152 -121.5 -236.5t-323.5 -84.5q-207 0 -329.5 85t-122.5 220z" />
<glyph unicode="t" horiz-adv-x="778" d="M49 856v162q0 35 35 35h104q13 0 13 12v231q0 35 35 35h208q35 0 35 -35v-231q0 -12 13 -12h184q35 0 35 -35v-162q0 -35 -35 -35h-184q-13 0 -13 -12v-424q0 -67 28 -99t89 -32h57q35 0 35 -35v-176q0 -34 -35 -37q-78 -4 -112 -4q-84 0 -142 11.5t-104.5 40.5t-69.5 83 t-24 135v537q0 12 -13 12h-104q-35 0 -35 35z" />
<glyph unicode="u" horiz-adv-x="1116" d="M98 344v674q0 35 35 35h217q35 0 35 -35v-602q0 -83 44.5 -134t121.5 -51q70 0 115.5 42t54.5 110v635q0 35 35 35h219q35 0 35 -35v-983q0 -35 -35 -35h-219q-35 0 -35 35v55q0 7 -4.5 8.5t-9.5 -4.5q-79 -108 -252 -108q-156 0 -256.5 93.5t-100.5 264.5z" />
<glyph unicode="v" horiz-adv-x="1064" d="M51 1014q-6 17 2 28t27 11h242q28 0 38 -31l164 -614q2 -8 9 -8t8 8l164 614q10 31 38 31l242 -2q19 0 27 -11t2 -28l-316 -983q-10 -29 -41 -29h-249q-29 0 -39 29z" />
<glyph unicode="w" horiz-adv-x="1603" d="M51 1014q-9 39 29 39h225q33 0 39 -31l141 -606q2 -8 8.5 -8.5t8.5 8.5l151 606q6 31 39 31h201q32 0 39 -31l155 -608q1 -9 8 -9t9 9l156 608q7 31 38 31l226 -2q38 0 28 -39l-292 -983q-10 -29 -39 -29h-230q-29 0 -39 29l-153 536q-2 5 -5.5 7t-7 0.5t-4.5 -7.5 l-135 -534q-7 -31 -39 -31h-229q-29 0 -39 29z" />
<glyph unicode="x" horiz-adv-x="1101" d="M51.5 13q-6.5 13 5.5 30l320 475q6 8 0 17l-320 475q-12 17 -5.5 30t28.5 13h233q25 0 41 -23l181 -272q3 -5 8 -5.5t8 5.5l178 272q16 23 41 23h250q22 0 28 -13t-6 -30l-317 -475q-6 -9 0 -17l317 -475q12 -17 6 -30t-28 -13h-234q-25 0 -41 23l-178 272q-3 6 -8 6 t-8 -6l-178 -272q-16 -23 -41 -23h-252q-22 0 -28.5 13z" />
<glyph unicode="y" horiz-adv-x="1034" d="M41 1014q-6 17 2 28t27 11h235q29 0 39 -29l168 -610q2 -8 8 -8t8 8l160 608q7 31 39 31h236q19 0 26.5 -11t1.5 -28l-350 -1053q-22 -64 -40.5 -107.5t-42.5 -85t-51.5 -68t-64 -49t-84 -34.5t-107 -18.5t-136.5 -6.5h-15q-14 0 -14 35v168q0 35 12 35h13q126 0 181 32 t79 130q3 10 0 16z" />
<glyph unicode="z" horiz-adv-x="942" d="M49 35v203q0 23 17 43l454 497q11 15 -6 15h-418q-35 0 -35 34v191q0 35 35 35h746q35 0 35 -35v-201q0 -23 -17 -43l-469 -498q-11 -14 6 -14h455q35 0 35 -35v-192q0 -35 -35 -35h-768q-35 0 -35 35z" />
<glyph unicode="{" horiz-adv-x="770" d="M72 594v162q0 32 32 35q59 11 87 54t28 126v415q0 124 68 188t200 64h177q34 0 34 -34v-179q0 -34 -34 -34h-46q-50 0 -80 -34.5t-30 -94.5v-330q0 -99 -28.5 -159t-88.5 -91q-14 -6 0 -14q60 -31 88.5 -92t28.5 -160v-338q0 -61 30 -95t80 -34h46q34 0 34 -35v-180 q0 -35 -34 -35h-177q-132 0 -200 64t-68 190v424q0 84 -28 127.5t-87 54.5q-32 3 -32 35z" />
<glyph unicode="|" horiz-adv-x="415" d="M63 -129v1651q0 34 35 34h219q35 0 35 -34v-1651q0 -35 -35 -35h-219q-35 0 -35 35z" />
<glyph unicode="}" horiz-adv-x="770" d="M72 -86q0 35 34 35h46q50 0 80 34t30 95v338q0 99 28.5 160t88.5 92q14 8 0 14q-60 31 -88.5 91t-28.5 159v330q0 60 -30 94.5t-80 34.5h-46q-34 0 -34 34v179q0 34 34 34h177q132 0 200 -64t68 -188v-415q0 -83 28 -126t87 -54q32 -3 32 -35v-162q0 -32 -32 -35 q-59 -11 -87 -54.5t-28 -127.5v-424q0 -126 -68 -190t-200 -64h-177q-34 0 -34 35v180z" />
<glyph unicode="~" horiz-adv-x="1093" d="M70 580q37 88 119.5 143t179.5 55q80 0 172 -53q8 -4 32.5 -18t35 -19.5t30 -14t36 -11.5t34.5 -3q64 0 112 66q22 28 49 10l140 -90q29 -18 14 -45q-40 -85 -120.5 -136.5t-174.5 -51.5q-87 0 -180 55q-105 61 -170 61q-80 0 -129 -65q-18 -27 -47 -8l-119 80 q-26 19 -14 45z" />
<glyph unicode="&#xa1;" horiz-adv-x="708" d="M164 1272q0 75 52.5 126.5t133.5 51.5t135 -52t54 -126q0 -72 -57.5 -124t-131.5 -52q-73 0 -129.5 52t-56.5 124zM213 53l25 873q0 35 34 35h162q37 0 37 -35l27 -873q0 -35 -33 -35h-219q-33 0 -33 35z" />
<glyph unicode="&#xa2;" horiz-adv-x="1099" d="M80 717q0 134 35 237q37 106 118 180t195 103q10 3 10 12l-6 135q0 35 33 35h174q36 0 33 -35l-6 -127q0 -11 12 -14q127 -24 218.5 -99.5t125.5 -178.5q12 -29 16 -64q3 -30 -30 -37l-215 -33q-15 -3 -26.5 3.5t-12.5 19.5l-6 29q-14 53 -63.5 88t-117.5 35 q-65 0 -110 -32.5t-64 -90.5q-22 -61 -22 -168q0 -106 20 -168q19 -61 64.5 -96t111.5 -35q64 0 111.5 34t66.5 91l3 10q2 9 13.5 20.5t26.5 8.5l216 -33q34 -7 28 -39q-5 -33 -10 -47q-35 -112 -127 -186.5t-217 -96.5q-12 -3 -12 -14l6 -127q3 -35 -33 -35h-174 q-33 0 -33 35l6 137q0 9 -10 12q-112 29 -193.5 104.5t-119.5 184.5q-35 101 -35 242z" />
<glyph unicode="&#xa3;" horiz-adv-x="1255" d="M125 623v163q0 35 35 35h125q12 0 12 13v170q0 207 119.5 323.5t324.5 122.5q170 4 283 -78t164 -233q12 -35 -25 -41l-200 -37q-31 -6 -43 24q-49 120 -164 117q-79 -2 -124.5 -48.5t-45.5 -143.5v-176q0 -13 12 -13h360q35 0 35 -35v-163q0 -35 -35 -35h-360 q-12 0 -12 -13v-120q0 -116 -74 -193q-10 -14 6 -14h641q35 0 35 -35v-178q0 -35 -35 -35h-934q-35 0 -35 35v186q0 25 23 41q84 62 84 193v120q0 13 -12 13h-125q-35 0 -35 35z" />
<glyph unicode="&#xa4;" horiz-adv-x="1175" d="M55 973q-26 26 0 49l135 117q26 22 50 -2l114 -115q8 -8 19 -2q94 51 209 51q118 0 217 -55q11 -5 18 2l121 119q24 24 49 2l133 -117q27 -24 2 -49l-133 -133q-7 -7 -4 -17q47 -89 47 -200q0 -115 -51 -209q-6 -11 2 -19l127 -127q25 -25 -2 -49l-135 -115 q-25 -22 -49 2l-115 115q-7 7 -18 2q-94 -51 -209 -51q-112 0 -201 47q-12 3 -19 -4l-110 -111q-23 -23 -49 0l-135 115q-26 23 0 49l116 117q7 7 2 18q-57 102 -57 220q0 114 51 208q6 11 -2 19zM377 623q0 -85 60 -145t145 -60q84 0 144 59.5t60 145.5q0 84 -60 144 t-144 60q-85 0 -145 -59.5t-60 -144.5z" />
<glyph unicode="&#xa5;" horiz-adv-x="1404" d="M143 1422q7 12 27 12h238q28 0 41 -27l249 -533q3 -6 8.5 -6t8.5 6l250 533q13 27 41 27h241q20 0 27 -12t-2 -29l-346 -695q-6 -14 8 -14h170q35 0 35 -35v-90q0 -35 -35 -35h-242q-12 0 -12 -12v-96q0 -13 12 -13h242q35 0 35 -34v-93q0 -34 -35 -34h-242 q-12 0 -12 -13v-192q0 -35 -35 -35h-217q-35 0 -35 35v192q0 13 -12 13h-242q-35 0 -35 34v93q0 34 35 34h242q12 0 12 13v96q0 12 -12 12h-242q-35 0 -35 35v90q0 35 35 35h172q14 0 8 14l-344 695q-9 17 -2 29z" />
<glyph unicode="&#xa6;" horiz-adv-x="415" d="M63 -129v664q0 34 35 34h219q35 0 35 -34v-664q0 -35 -35 -35h-219q-35 0 -35 35zM63 858v664q0 34 35 34h219q35 0 35 -34v-664q0 -35 -35 -35h-219q-35 0 -35 35z" />
<glyph unicode="&#xa7;" horiz-adv-x="1017" d="M78 494q0 115 61 202q44 63 125 99q17 7 2 14q-80 41 -130 114.5t-50 172.5q0 149 120.5 251.5t305.5 102.5q180 0 297 -100t117 -258v-37q0 -35 -35 -35h-219q-35 0 -35 20v21q0 63 -37 102t-94 39q-56 0 -93.5 -37t-37.5 -94q0 -29 13 -53.5t30.5 -41t51 -33.5 t59.5 -27t71 -25q180 -56 254 -135q86 -86 86 -226q0 -103 -57 -196q-55 -89 -131 -109q-4 -1 -6 -3t-0.5 -4.5t6.5 -4.5q92 -55 137 -125.5t45 -165.5q0 -159 -123 -253.5t-311 -94.5q-187 0 -294 93.5t-112 252.5l-2 66q0 18 8 26t25 8h219q35 0 35 -26v-27 q0 -66 37 -105.5t98 -39.5q57 0 94 36t37 91q0 44 -32.5 77t-69 50t-126.5 51q-17 7 -26 10q-102 38 -162 75t-98 95q-53 82 -53 187zM367 508q0 -49 26 -82q40 -53 115 -53q79 0 119 53q24 34 24 86q0 51 -26 88q-41 51 -115 51q-38 0 -70 -16.5t-49 -44.5q-24 -34 -24 -82 z" />
<glyph unicode="&#xa8;" horiz-adv-x="759" d="M39 1313q0 64 41 104.5t104 40.5q64 0 104 -40t40 -105t-40 -104.5t-104 -39.5q-63 0 -104 40t-41 104zM432 1313q0 65 40 105t106 40q64 0 103.5 -40t39.5 -105t-39.5 -104.5t-103.5 -39.5q-66 0 -106 39.5t-40 104.5z" />
<glyph unicode="&#xa9;" horiz-adv-x="1673" d="M96 723q0 205 95.5 371.5t265 261t379.5 94.5q211 0 380.5 -94.5t265 -261t95.5 -371.5q0 -210 -95.5 -379t-265 -264.5t-380.5 -95.5q-210 0 -379.5 95.5t-265 264.5t-95.5 379zM258 723q0 -166 74.5 -298.5t206.5 -207t297 -74.5t297 74.5t206 207t74 298.5 q0 245 -163.5 406t-413.5 161t-414 -161t-164 -406zM588 592v256q0 107 69 170t183 63q115 0 182.5 -59.5t67.5 -161.5q0 -14 -35 -14l-84 -2q-35 0 -35 6v8q0 43 -26.5 68.5t-69.5 25.5q-44 0 -70.5 -25.5t-26.5 -68.5v-278q0 -42 26.5 -67.5t70.5 -25.5q43 0 69.5 26 t26.5 67q0 18 35 18l84 -2q35 0 35 -10v-8q0 -100 -69 -161t-181 -61q-114 0 -183 65t-69 171z" />
<glyph unicode="&#xaa;" horiz-adv-x="675" d="M27 512v90q0 35 34 35h531q35 0 35 -35v-90q0 -35 -35 -35h-531q-34 0 -34 35zM27 932q0 105 77 167t209 62h129q13 0 13 13v20q0 54 -35.5 87.5t-95.5 33.5q-40 0 -72.5 -16.5t-44.5 -41.5q-15 -30 -39 -28l-88 8q-39 3 -33 37q15 76 92 126t183 50q126 0 207 -66 t81 -165v-439q0 -35 -35 -35h-86q-34 0 -34 31v8q0 8 -4.5 10.5t-10.5 -3.5q-58 -58 -174 -58q-111 0 -175 52t-64 147zM186 946q0 -88 109 -88q68 0 114 37t46 86v47q0 12 -13 12h-106q-150 0 -150 -94z" />
<glyph unicode="&#xab;" horiz-adv-x="1042" d="M119 551q-15 25 0 49l186 309q14 23 41 23h182q20 0 27 -12t-4 -29l-186 -307q-6 -8 0 -17l186 -307q11 -17 4 -29t-27 -12h-182q-27 0 -41 23zM471 551q-15 25 0 49l186 309q14 23 41 23h183q20 0 26.5 -12t-4.5 -29l-186 -307q-6 -8 0 -17l186 -307q11 -17 4.5 -29 t-26.5 -12h-183q-27 0 -41 23z" />
<glyph unicode="&#xac;" horiz-adv-x="995" d="M59 526v179q0 34 35 34h807q35 0 35 -34v-408q0 -35 -35 -35h-178q-35 0 -35 35v182q0 13 -12 13h-582q-35 0 -35 34z" />
<glyph unicode="&#xad;" horiz-adv-x="837" d="M59 516v178q0 35 35 35h649q35 0 35 -35v-178q0 -35 -35 -35h-649q-35 0 -35 35z" />
<glyph unicode="&#xae;" horiz-adv-x="911" d="M39 1049q0 173 119 289t297 116t297.5 -116t119.5 -289q0 -181 -119 -300.5t-298 -119.5t-297.5 119.5t-118.5 300.5zM154 1049q0 -133 86 -220.5t215 -87.5q130 0 216.5 87.5t86.5 220.5q0 125 -87 209.5t-216 84.5t-215 -84.5t-86 -209.5zM334 891v309q0 35 35 35h110 q54 0 87.5 -34.5t33.5 -86.5q0 -67 -47 -94q-9 -6 -6 -16l39 -107q6 -17 -2 -29t-27 -12h-29q-32 0 -41 29l-32 104q-3 10 -15 10t-12 -12v-96q0 -35 -35 -35h-24q-35 0 -35 35zM428 1083q0 -12 12 -12h25q18 0 29.5 11.5t11.5 29.5q0 19 -11 30t-30 11h-25q-12 0 -12 -12 v-58z" />
<glyph unicode="&#xaf;" horiz-adv-x="602" d="M0 1219v124q0 35 35 35h532q35 0 35 -35v-124q0 -35 -35 -35h-532q-35 0 -35 35z" />
<glyph unicode="&#xb0;" horiz-adv-x="770" d="M39 1311q0 145 100.5 244.5t245.5 99.5q146 0 246 -99.5t100 -244.5q0 -146 -100 -246t-246 -100q-145 0 -245.5 100t-100.5 246zM227 1311q0 -66 46.5 -112t111.5 -46q66 0 111 46t45 112q0 67 -45 112t-111 45q-65 0 -111.5 -45t-46.5 -112z" />
<glyph unicode="&#xb1;" horiz-adv-x="995" d="M59 35v178q0 35 35 35h807q35 0 35 -35v-178q0 -35 -35 -35h-807q-35 0 -35 35zM59 721v178q0 35 35 35h268q13 0 13 12v271q0 34 35 34h176q35 0 35 -34v-271q0 -12 12 -12h268q35 0 35 -35v-178q0 -35 -35 -35h-268q-12 0 -12 -12v-264q0 -35 -35 -35h-176 q-35 0 -35 35v264q0 12 -13 12h-268q-35 0 -35 35z" />
<glyph unicode="&#xb2;" horiz-adv-x="702" d="M57 1458v39q7 102 89 163.5t204 61.5q131 0 211 -71.5t80 -175.5q0 -94 -100 -218q-20 -26 -49 -58.5t-46.5 -50.5t-62 -63.5t-57.5 -58.5q-5 -4 -3 -9t9 -5h289q34 0 34 -35v-90q0 -35 -34 -35h-523q-35 0 -35 35v98q0 21 19 43q73 71 258 266q113 120 113 176 q0 40 -29 66.5t-74 26.5q-47 0 -75.5 -26.5t-28.5 -68.5v-10q0 -35 -35 -35h-119q-35 0 -35 35z" />
<glyph unicode="&#xb3;" horiz-adv-x="663" d="M43 1100q-3 35 33 35h119q29 0 36 -33q2 -20 11 -41q23 -60 90 -60q55 0 82 46q20 36 20 90q0 61 -22 98q-24 47 -82 47q-20 0 -43 -10q-32 -16 -49 6l-56 68q-23 26 4 49l172 141q6 6 4 10t-10 4h-258q-35 0 -35 35v90q0 35 35 35h481q35 0 35 -35v-98q0 -25 -18 -43 l-146 -129q-12 -12 9 -16q89 -21 141 -119q25 -64 25 -137q0 -74 -27 -136q-31 -73 -100.5 -115t-161.5 -42q-95 0 -166.5 47.5t-104.5 128.5q-14 33 -18 84z" />
<glyph unicode="&#xb4;" horiz-adv-x="499" d="M59 1187q-7 11 2 30l101 186q12 24 41 24h207q22 0 28 -13t-6 -30l-131 -186q-16 -22 -43 -22h-172q-20 0 -27 11z" />
<glyph unicode="&#xb5;" horiz-adv-x="1128" d="M106 -375v1393q0 35 35 35h219q35 0 35 -35v-602q0 -83 44.5 -134t121.5 -51q70 0 115.5 42t54.5 110v635q0 35 35 35h219q35 0 35 -35v-983q0 -35 -35 -35h-219q-35 0 -35 35v55q0 7 -4.5 8.5t-9.5 -4.5q-79 -108 -252 -108q-21 0 -57 4q-6 1 -9.5 -3t-3.5 -10v-352 q0 -35 -35 -35h-219q-35 0 -35 35z" />
<glyph unicode="&#xb6;" horiz-adv-x="1280" d="M51 973q0 203 138 332t370 129h574q34 0 34 -35v-1774q0 -35 -34 -35h-142q-35 0 -35 35v1592q0 12 -12 12h-194q-13 0 -13 -12v-1592q0 -35 -35 -35h-143q-35 0 -35 35v877q0 12 -12 12q-207 17 -334 142t-127 317z" />
<glyph unicode="&#xb7;" horiz-adv-x="374" d="M-14 170q0 72 57 124t129 52q75 0 132.5 -52t57.5 -124q0 -74 -54.5 -126t-135.5 -52t-133.5 51.5t-52.5 126.5z" />
<glyph unicode="&#xb8;" horiz-adv-x="346" d="M4 -334l10 82q6 34 43 25q35 -8 61.5 2.5t35.5 40.5q14 61 -80 143q-19 15 -15.5 28t27.5 13h104q26 0 43 -14q140 -116 107 -250q-15 -54 -53 -86t-85 -39t-90.5 -3t-82.5 17q-28 8 -25 41z" />
<glyph unicode="&#xb9;" horiz-adv-x="397" d="M57 1577v70q0 27 27 39l43 18q19 8 43 8h129q35 0 35 -35v-790q0 -35 -35 -35h-117q-35 0 -35 35v649q0 12 -12 12l-41 -4q-37 -3 -37 33z" />
<glyph unicode="&#xba;" horiz-adv-x="729" d="M51 1098q0 90 25 157q34 93 110.5 144t182.5 51q95 0 169 -50.5t109 -142.5q29 -76 29 -157q0 -84 -29 -160q-35 -94 -109.5 -146.5t-170.5 -52.5q-101 0 -176.5 52t-112.5 147q-27 68 -27 158zM53 510v94q0 35 35 35h561q35 0 35 -35v-94q0 -35 -35 -35h-561 q-35 0 -35 35zM238 1098q0 -74 16 -115q13 -41 43 -62.5t70 -21.5q35 0 63 21.5t43 62.5q16 44 16 115q0 74 -14 110q-36 86 -113 86q-72 0 -108 -86q-16 -39 -16 -110z" />
<glyph unicode="&#xbb;" horiz-adv-x="1042" d="M147.5 231q-6.5 12 4.5 29l186 307q6 9 0 17l-186 307q-11 17 -4.5 29t26.5 12h182q27 0 41 -23l187 -309q15 -24 0 -49l-187 -309q-14 -23 -41 -23h-182q-20 0 -26.5 12zM499.5 231q-6.5 12 4.5 29l186 307q6 9 0 17l-186 307q-11 17 -4.5 29t26.5 12h183q27 0 41 -23 l186 -309q15 -24 0 -49l-186 -309q-14 -23 -41 -23h-183q-20 0 -26.5 12z" />
<glyph unicode="&#xbc;" horiz-adv-x="1683" d="M57 1298v70q0 27 27 39l43 18q21 9 43 9h129q35 0 35 -35v-791q0 -35 -35 -35h-117q-35 0 -35 35v649q0 13 -12 13l-41 -4q-37 -3 -37 32zM222.5 12q-7.5 12 2.5 29l799 1368q16 25 41 25h133q20 0 27.5 -12t-2.5 -29l-799 -1368q-16 -25 -41 -25h-133q-20 0 -27.5 12z M967 250v78q0 22 8 43l207 463q13 26 41 26h120q20 0 27.5 -12t-0.5 -29l-182 -422q-6 -14 10 -14h160q12 0 12 12v121q0 35 35 35h117q34 0 34 -35v-121q0 -12 13 -12h24q35 0 35 -35v-98q0 -35 -35 -35h-24q-13 0 -13 -12v-168q0 -35 -34 -35h-117q-35 0 -35 35v168 q0 12 -12 12h-357q-34 0 -34 35z" />
<glyph unicode="&#xbd;" horiz-adv-x="1632" d="M57 1298v70q0 27 27 39l43 18q21 9 43 9h129q35 0 35 -35v-791q0 -35 -35 -35h-117q-35 0 -35 35v649q0 13 -12 13l-41 -4q-37 -3 -37 32zM222.5 12q-7.5 12 2.5 29l799 1368q16 25 41 25h133q20 0 27.5 -12t-2.5 -29l-799 -1368q-16 -25 -41 -25h-133q-20 0 -27.5 12z M987 606v39q7 102 89 163.5t204 61.5q131 0 211 -71.5t80 -175.5q0 -92 -101 -217q-16 -21 -34.5 -42.5t-43.5 -48.5t-40.5 -43t-49.5 -50.5t-47 -47.5q-5 -4 -2.5 -9t9.5 -5h288q35 0 35 -35v-90q0 -35 -35 -35h-522q-35 0 -35 35v98q0 21 19 43q73 71 258 266 q112 119 112 176q0 40 -28.5 66.5t-73.5 26.5q-47 0 -75.5 -26.5t-28.5 -68.5v-10q0 -35 -35 -35h-119q-35 0 -35 35z" />
<glyph unicode="&#xbe;" horiz-adv-x="1869" d="M43 827q-3 35 33 35h119q29 0 36 -33q2 -20 11 -41q22 -59 90 -59q56 0 82 45q20 36 20 90q0 62 -22 99q-24 47 -82 47q-17 0 -43 -11q-32 -16 -49 7l-56 67q-23 26 4 49l172 142q6 6 4 10t-10 4h-258q-35 0 -35 35v90q0 35 35 35h481q35 0 35 -35v-98q0 -25 -18 -43 l-146 -129q-13 -13 5 -17q95 -21 145 -119q25 -64 25 -137t-27 -135q-31 -73 -101 -115.5t-161 -42.5q-95 0 -166.5 47.5t-104.5 128.5q-14 33 -18 84zM409 12q-7 12 3 29l798 1368q16 25 41 25h133q20 0 27.5 -12t-2.5 -29l-799 -1368q-16 -25 -41 -25h-133q-20 0 -27 12z M1153 250v78q0 22 8 43l207 463q13 26 41 26h121q20 0 27 -12t-1 -29l-182 -422q-6 -14 10 -14h160q12 0 12 12v121q0 35 35 35h117q35 0 35 -35v-121q0 -12 12 -12h25q35 0 35 -35v-98q0 -35 -35 -35h-25q-12 0 -12 -12v-168q0 -35 -35 -35h-117q-35 0 -35 35v168 q0 12 -12 12h-356q-35 0 -35 35z" />
<glyph unicode="&#xbf;" horiz-adv-x="1067" d="M59 -31q0 69 20 126t52.5 95.5t71.5 70.5t78.5 58t72 51.5t52.5 58t20 69.5v37q0 34 35 34h217q35 0 35 -34v-56q0 -58 -20 -106.5t-51.5 -82t-70.5 -63t-77.5 -56t-70 -53.5t-51.5 -62t-20 -76q0 -66 49 -106t129 -40q87 0 139 43t52 111v22q0 33 35 33l219 -8 q15 0 25 -7t10 -18v-22q0 -186 -134.5 -302t-351.5 -116q-212 0 -338.5 109t-126.5 290zM381 864q0 67 52.5 115.5t123.5 48.5q72 0 123 -48t51 -116q0 -67 -52 -115.5t-124 -48.5q-70 0 -122 48.5t-52 115.5z" />
<glyph unicode="&#xc0;" horiz-adv-x="1374" d="M61 39l437 1366q10 29 39 29h301q29 0 39 -29l436 -1366q6 -17 -2 -28t-27 -11h-237q-29 0 -39 29l-58 190q-2 10 -12 10h-502q-10 0 -12 -10l-57 -190q-10 -29 -39 -29h-238q-19 0 -27 11t-2 28zM415.5 1795q5.5 13 26.5 13h207q29 0 41 -24l101 -187q9 -19 2 -30 t-27 -11h-172q-25 0 -41 23l-131 186q-12 17 -6.5 30zM496 467q-3 -14 10 -14h362q14 0 11 14l-185 625q-3 8 -8 8t-8 -8z" />
<glyph unicode="&#xc1;" horiz-adv-x="1374" d="M61 39l437 1366q10 29 39 29h301q29 0 39 -29l436 -1366q6 -17 -2 -28t-27 -11h-237q-29 0 -39 29l-58 190q-2 10 -12 10h-502q-10 0 -12 -10l-57 -190q-10 -29 -39 -29h-238q-19 0 -27 11t-2 28zM496 467q-3 -14 10 -14h362q14 0 11 14l-185 625q-3 8 -8 8t-8 -8z M557 1567q-7 11 2 30l100 187q12 24 41 24h207q22 0 28.5 -13t-5.5 -30l-131 -186q-16 -23 -43 -23h-172q-20 0 -27 11z" />
<glyph unicode="&#xc2;" horiz-adv-x="1374" d="M61 39l437 1366q10 29 39 29h301q29 0 39 -29l436 -1366q6 -17 -2 -28t-27 -11h-237q-29 0 -39 29l-58 190q-2 10 -12 10h-502q-10 0 -12 -10l-57 -190q-10 -29 -39 -29h-238q-19 0 -27 11t-2 28zM379.5 1563q-6.5 13 5.5 30l143 199q14 20 43 20h222q29 0 43 -20 l147 -199q12 -17 6 -30t-28 -13h-152q-25 0 -41 23l-76 117q-3 6 -8 6t-8 -6l-76 -117q-16 -23 -41 -23h-151q-22 0 -28.5 13zM496 467q-3 -14 10 -14h362q14 0 11 14l-185 625q-3 8 -8 8t-8 -8z" />
<glyph unicode="&#xc3;" horiz-adv-x="1374" d="M61 39l437 1366q10 29 39 29h301q29 0 39 -29l436 -1366q6 -17 -2 -28t-27 -11h-237q-29 0 -39 29l-58 190q-2 10 -12 10h-502q-10 0 -12 -10l-57 -190q-10 -29 -39 -29h-238q-19 0 -27 11t-2 28zM401 1692q28 67 78 101t109 34q56 0 133 -47q67 -37 98 -37q44 0 70 37 q22 28 47 10l74 -49q27 -20 12 -49q-38 -67 -91.5 -101.5t-107.5 -34.5q-56 0 -135 52q-47 32 -80 32q-49 0 -76 -34q-23 -30 -47 -11l-71 50q-28 21 -13 47zM496 467q-3 -14 10 -14h362q14 0 11 14l-185 625q-3 8 -8 8t-8 -8z" />
<glyph unicode="&#xc4;" horiz-adv-x="1374" d="M61 39l437 1366q10 29 39 29h301q29 0 39 -29l436 -1366q6 -17 -2 -28t-27 -11h-237q-29 0 -39 29l-58 190q-2 10 -12 10h-502q-10 0 -12 -10l-57 -190q-10 -29 -39 -29h-238q-19 0 -27 11t-2 28zM342 1694q0 64 41 104.5t104 40.5q64 0 104 -40t40 -105 q0 -64 -39.5 -104t-104.5 -40q-63 0 -104 40t-41 104zM496 467q-3 -14 10 -14h362q14 0 11 14l-185 625q-3 8 -8 8t-8 -8zM735 1694q0 65 40 105t106 40q64 0 103.5 -40t39.5 -105t-39.5 -104.5t-103.5 -39.5q-66 0 -106 39.5t-40 104.5z" />
<glyph unicode="&#xc5;" horiz-adv-x="1374" d="M61 39l437 1366q10 29 39 29h301q29 0 39 -29l436 -1366q6 -17 -2 -28t-27 -11h-237q-29 0 -39 29l-58 190q-2 10 -12 10h-502q-10 0 -12 -10l-57 -190q-10 -29 -39 -29h-238q-19 0 -27 11t-2 28zM455 1755q0 95 66 161t163 66q95 0 162 -66t67 -161t-67 -161t-162 -66 q-97 0 -163 66t-66 161zM496 467q-3 -14 10 -14h362q14 0 11 14l-185 625q-3 8 -8 8t-8 -8zM586 1755q0 -40 28.5 -68t69.5 -28q40 0 68 28t28 68q0 42 -28 70t-68 28q-42 0 -70 -28t-28 -70z" />
<glyph unicode="&#xc6;" horiz-adv-x="1966" d="M68.5 12q-7.5 12 1.5 29l692 1368q11 25 41 25h1050q35 0 35 -35v-178q0 -35 -35 -35h-639q-12 0 -12 -12v-314q0 -12 12 -12h410q35 0 35 -35v-178q0 -35 -35 -35h-410q-12 0 -12 -12v-328q0 -12 12 -12h639q35 0 35 -35v-178q0 -35 -35 -35h-905q-35 0 -35 35v182 q0 12 -12 12h-412q-11 0 -14 -8l-96 -196q-13 -25 -41 -25h-242q-20 0 -27.5 12zM598 467q-6 -14 8 -14h295q12 0 12 12v608q0 9 -5.5 10.5t-8.5 -6.5z" />
<glyph unicode="&#xc7;" horiz-adv-x="1245" d="M96 481v473q0 224 146 360t387 136q238 0 384 -130t146 -343v-10q0 -10 -33 -13l-219 -14q-37 -3 -37 10v13q0 107 -66 173t-175 66q-110 0 -177 -66t-67 -173v-494q0 -106 67 -172t177 -66q108 0 174.5 66t66.5 172q0 11 9 17.5t26 5.5l219 -11q35 -3 35 -10v-10 q0 -196 -123.5 -323.5t-330.5 -149.5q-18 -4 -5 -17q104 -104 76 -221q-15 -54 -53 -86t-85 -38.5t-90.5 -2.5t-82.5 17q-28 8 -25 41l11 81q6 34 43 25q78 -17 96 43q17 70 -109 166q-8 4 -14 6q-173 41 -272 168t-99 311z" />
<glyph unicode="&#xc8;" horiz-adv-x="1196" d="M125 35v1364q0 35 35 35h925q35 0 35 -35v-178q0 -35 -35 -35h-659q-12 0 -12 -12v-314q0 -12 12 -12h428q35 0 35 -35v-178q0 -35 -35 -35h-428q-12 0 -12 -12v-328q0 -12 12 -12h659q35 0 35 -35v-178q0 -35 -35 -35h-925q-35 0 -35 35zM348 1820q6 13 27 13h207 q28 0 41 -25l100 -186q9 -19 2 -30t-27 -11h-172q-25 0 -41 23l-131 186q-12 17 -6 30z" />
<glyph unicode="&#xc9;" horiz-adv-x="1196" d="M125 35v1364q0 35 35 35h925q35 0 35 -35v-178q0 -35 -35 -35h-659q-12 0 -12 -12v-314q0 -12 12 -12h428q35 0 35 -35v-178q0 -35 -35 -35h-428q-12 0 -12 -12v-328q0 -12 12 -12h659q35 0 35 -35v-178q0 -35 -35 -35h-925q-35 0 -35 35zM489.5 1592q-6.5 11 2.5 30 l100 186q12 25 41 25h207q22 0 28 -13t-6 -30l-131 -186q-16 -23 -43 -23h-172q-20 0 -26.5 11z" />
<glyph unicode="&#xca;" horiz-adv-x="1196" d="M125 35v1364q0 35 35 35h925q35 0 35 -35v-178q0 -35 -35 -35h-659q-12 0 -12 -12v-314q0 -12 12 -12h428q35 0 35 -35v-178q0 -35 -35 -35h-428q-12 0 -12 -12v-328q0 -12 12 -12h659q35 0 35 -35v-178q0 -35 -35 -35h-925q-35 0 -35 35zM311.5 1588q-6.5 13 5.5 30 l144 199q14 20 43 20h221q29 0 43 -20l147 -199q12 -17 6 -30t-28 -13h-152q-25 0 -41 22l-75 117q-3 6 -8.5 6t-8.5 -6l-76 -117q-16 -22 -40 -22h-152q-22 0 -28.5 13z" />
<glyph unicode="&#xcb;" horiz-adv-x="1196" d="M125 35v1364q0 35 35 35h925q35 0 35 -35v-178q0 -35 -35 -35h-659q-12 0 -12 -12v-314q0 -12 12 -12h428q35 0 35 -35v-178q0 -35 -35 -35h-428q-12 0 -12 -12v-328q0 -12 12 -12h659q35 0 35 -35v-178q0 -35 -35 -35h-925q-35 0 -35 35zM274 1718q0 64 41.5 105 t104.5 41q64 0 103.5 -40.5t39.5 -105.5q0 -64 -39.5 -103.5t-103.5 -39.5t-105 39.5t-41 103.5zM668 1718q0 65 39.5 105.5t105.5 40.5q64 0 103.5 -40.5t39.5 -105.5q0 -64 -39 -103.5t-104 -39.5q-66 0 -105.5 39t-39.5 104z" />
<glyph unicode="&#xcc;" horiz-adv-x="538" d="M2 1820q6 13 27 13h207q28 0 40 -25l101 -186q9 -19 2 -30t-27 -11h-172q-25 0 -41 23l-131 186q-12 17 -6 30zM125 35v1364q0 35 35 35h219q35 0 35 -35v-1364q0 -35 -35 -35h-219q-35 0 -35 35z" />
<glyph unicode="&#xcd;" horiz-adv-x="538" d="M125 35v1364q0 35 35 35h219q35 0 35 -35v-1364q0 -35 -35 -35h-219q-35 0 -35 35zM143 1592q-7 11 2 30l101 186q12 25 41 25h207q22 0 28 -13t-6 -30l-131 -186q-16 -23 -43 -23h-172q-20 0 -27 11z" />
<glyph unicode="&#xce;" horiz-adv-x="538" d="M-34.5 1588q-6.5 13 5.5 30l144 199q14 20 43 20h221q29 0 43 -20l147 -199q12 -17 6 -30t-28 -13h-152q-25 0 -41 22l-75 117q-3 6 -8.5 6t-8.5 -6l-76 -117q-16 -22 -41 -22h-151q-22 0 -28.5 13zM125 35v1364q0 35 35 35h219q35 0 35 -35v-1364q0 -35 -35 -35h-219 q-35 0 -35 35z" />
<glyph unicode="&#xcf;" horiz-adv-x="538" d="M-72 1718q0 64 41.5 105t104.5 41q64 0 103.5 -40.5t39.5 -105.5q0 -64 -39.5 -103.5t-103.5 -39.5t-105 39.5t-41 103.5zM125 35v1364q0 35 35 35h219q35 0 35 -35v-1364q0 -35 -35 -35h-219q-35 0 -35 35zM322 1718q0 65 39.5 105.5t105.5 40.5q64 0 103.5 -40.5 t39.5 -105.5q0 -64 -39 -103.5t-104 -39.5q-66 0 -105.5 39t-39.5 104z" />
<glyph unicode="&#xd0;" horiz-adv-x="1370" d="M125 676v127q0 35 35 35h57q12 0 12 12v549q0 35 35 35h502q232 0 372 -119t140 -316v-565q0 -196 -140 -315t-372 -119h-502q-35 0 -35 35v594q0 12 -12 12h-57q-35 0 -35 35zM518 260q0 -12 12 -12h246q95 0 153 63.5t60 169.5v471q0 106 -58.5 170t-156.5 64h-244 q-12 0 -12 -12v-324q0 -12 12 -12h152q35 0 35 -35v-127q0 -35 -35 -35h-152q-12 0 -12 -12v-369z" />
<glyph unicode="&#xd1;" horiz-adv-x="1347" d="M125 35v1364q0 35 35 35h211q27 0 41 -23l512 -852q4 -8 9 -6.5t5 10.5v836q0 35 35 35h215q35 0 35 -35v-1364q0 -35 -35 -35h-209q-25 0 -41 25l-514 860q-4 8 -9 6.5t-5 -10.5l2 -846q0 -35 -35 -35h-217q-35 0 -35 35zM377 1718q28 67 77.5 101t108.5 34 q56 0 133 -47q67 -37 99 -37q43 0 69 37q22 28 47 11l74 -50q28 -21 2 -63q-36 -60 -87 -90.5t-101 -30.5q-57 0 -135 51q-49 33 -80 33q-48 0 -76 -35q-23 -29 -47 -10l-72 49q-27 20 -12 47z" />
<glyph unicode="&#xd2;" horiz-adv-x="1271" d="M96 498v438q0 231 148 372.5t391 141.5q244 0 392.5 -141.5t148.5 -372.5v-438q0 -234 -148.5 -377.5t-392.5 -143.5q-243 0 -391 143.5t-148 377.5zM366.5 1812q5.5 13 26.5 13h207q28 0 41 -25l100 -186q9 -19 2.5 -30t-26.5 -11h-172q-25 0 -41 22l-131 187 q-12 17 -6.5 30zM385 487q0 -118 68.5 -190t181.5 -72q114 0 183 71.5t69 190.5v451q0 120 -69 192t-183 72q-113 0 -181.5 -72t-68.5 -192v-451z" />
<glyph unicode="&#xd3;" horiz-adv-x="1271" d="M96 498v438q0 231 148 372.5t391 141.5q244 0 392.5 -141.5t148.5 -372.5v-438q0 -234 -148.5 -377.5t-392.5 -143.5q-243 0 -391 143.5t-148 377.5zM385 487q0 -118 68.5 -190t181.5 -72q114 0 183 71.5t69 190.5v451q0 120 -69 192t-183 72q-113 0 -181.5 -72 t-68.5 -192v-451zM508 1584q-7 11 2 30l100 186q12 25 41 25h207q22 0 28.5 -13t-5.5 -30l-131 -187q-16 -22 -43 -22h-172q-20 0 -27 11z" />
<glyph unicode="&#xd4;" horiz-adv-x="1271" d="M96 498v438q0 231 148 372.5t391 141.5q244 0 392.5 -141.5t148.5 -372.5v-438q0 -234 -148.5 -377.5t-392.5 -143.5q-243 0 -391 143.5t-148 377.5zM330 1580q-6 13 6 30l143 198q15 21 43 21h221q28 0 43 -21l148 -198q12 -17 5.5 -30t-28.5 -13h-151q-25 0 -41 22 l-76 117q-3 6 -8 6t-8 -6l-76 -117q-16 -22 -41 -22h-152q-22 0 -28 13zM385 487q0 -118 68.5 -190t181.5 -72q114 0 183 71.5t69 190.5v451q0 120 -69 192t-183 72q-113 0 -181.5 -72t-68.5 -192v-451z" />
<glyph unicode="&#xd5;" horiz-adv-x="1271" d="M96 498v438q0 231 148 372.5t391 141.5q244 0 392.5 -141.5t148.5 -372.5v-438q0 -234 -148.5 -377.5t-392.5 -143.5q-243 0 -391 143.5t-148 377.5zM352 1708q28 67 78 101t109 34q56 0 133 -47q67 -37 98 -37q44 0 70 37q22 28 47 10l74 -49q28 -21 2 -63 q-36 -60 -87 -90.5t-102 -30.5q-57 0 -135 51q-49 33 -80 33q-48 0 -76 -35q-23 -29 -47 -10l-71 49q-28 21 -13 47zM385 487q0 -118 68.5 -190t181.5 -72q114 0 183 71.5t69 190.5v451q0 120 -69 192t-183 72q-113 0 -181.5 -72t-68.5 -192v-451z" />
<glyph unicode="&#xd6;" horiz-adv-x="1271" d="M96 498v438q0 231 148 372.5t391 141.5q244 0 392.5 -141.5t148.5 -372.5v-438q0 -234 -148.5 -377.5t-392.5 -143.5q-243 0 -391 143.5t-148 377.5zM293 1710q0 64 41 104.5t104 40.5q64 0 104 -40t40 -105q0 -64 -39.5 -103.5t-104.5 -39.5q-64 0 -104.5 39.5 t-40.5 103.5zM385 487q0 -118 68.5 -190t181.5 -72q114 0 183 71.5t69 190.5v451q0 120 -69 192t-183 72q-113 0 -181.5 -72t-68.5 -192v-451zM686 1710q0 65 39.5 105t105.5 40q64 0 104 -40t40 -105q0 -64 -39.5 -103.5t-104.5 -39.5q-66 0 -105.5 39t-39.5 104z" />
<glyph unicode="&#xd7;" horiz-adv-x="913" d="M84 397q-24 25 0 49l190 191q8 8 0 16l-190 191q-23 23 0 49l123 125q23 26 49 0l193 -193q8 -8 16 0l190 191q25 25 50 0l124 -125q25 -25 0 -49l-190 -191q-8 -8 0 -16l188 -189q25 -24 0 -49l-125 -123q-26 -23 -49 0l-186 187q-8 8 -16 0l-191 -191q-24 -24 -49 0z " />
<glyph unicode="&#xd8;" horiz-adv-x="1282" d="M104 498v438q0 231 148 372.5t391 141.5q129 0 227 -39q12 -4 17 6l37 74q12 25 41 25h94q20 0 27.5 -12t-1.5 -29l-69 -136q-4 -11 4 -16q164 -142 164 -387v-438q0 -234 -148.5 -377.5t-392.5 -143.5q-148 0 -270 58q-11 7 -17 -4l-41 -82q-11 -25 -41 -25h-94 q-20 0 -27.5 12t1.5 29l82 160q3 9 -3 18q-129 138 -129 355zM393 475q0 -9 6.5 -11t10.5 7l348 694q8 12 -6 15q-49 22 -109 22q-113 0 -181.5 -72t-68.5 -192v-451v-12zM485 289q-4 -12 4 -17q65 -47 154 -47q114 0 183 71.5t69 190.5v451q0 45 -14 96q-2 8 -8 8.5 t-9 -6.5z" />
<glyph unicode="&#xd9;" horiz-adv-x="1288" d="M115 475v924q0 35 35 35h219q34 0 34 -35v-926q0 -108 67 -175t175 -67t175 67t67 175v926q0 35 35 35h219q35 0 35 -35v-924q0 -221 -146.5 -356t-384.5 -135t-384 135t-146 356zM376.5 1822q5.5 13 26.5 13h207q28 0 41 -25l101 -186q9 -19 2 -30t-27 -11h-172 q-25 0 -41 23l-131 186q-12 17 -6.5 30z" />
<glyph unicode="&#xda;" horiz-adv-x="1288" d="M115 475v924q0 35 35 35h219q34 0 34 -35v-926q0 -108 67 -175t175 -67t175 67t67 175v926q0 35 35 35h219q35 0 35 -35v-924q0 -221 -146.5 -356t-384.5 -135t-384 135t-146 356zM518 1594q-7 11 2 30l101 186q13 25 41 25h206q22 0 28.5 -13t-5.5 -30l-131 -186 q-16 -23 -43 -23h-172q-20 0 -27 11z" />
<glyph unicode="&#xdb;" horiz-adv-x="1288" d="M115 475v924q0 35 35 35h219q34 0 34 -35v-926q0 -108 67 -175t175 -67t175 67t67 175v926q0 35 35 35h219q35 0 35 -35v-924q0 -221 -146.5 -356t-384.5 -135t-384 135t-146 356zM340.5 1590q-6.5 13 5.5 30l143 199q14 20 43 20h222q29 0 43 -20l147 -199q12 -17 6 -30 t-28 -13h-152q-25 0 -41 22l-76 117q-3 6 -8 6t-8 -6l-76 -117q-16 -22 -41 -22h-151q-22 0 -28.5 13z" />
<glyph unicode="&#xdc;" horiz-adv-x="1288" d="M115 475v924q0 35 35 35h219q34 0 34 -35v-926q0 -108 67 -175t175 -67t175 67t67 175v926q0 35 35 35h219q35 0 35 -35v-924q0 -221 -146.5 -356t-384.5 -135t-384 135t-146 356zM303 1720q0 64 41.5 105t104.5 41q64 0 103.5 -40.5t39.5 -105.5q0 -64 -39 -103.5 t-104 -39.5q-64 0 -105 39.5t-41 103.5zM696 1720q0 65 40 105.5t106 40.5q64 0 103.5 -40.5t39.5 -105.5q0 -64 -39.5 -103.5t-103.5 -39.5q-66 0 -106 39t-40 104z" />
<glyph unicode="&#xdd;" horiz-adv-x="1263" d="M67.5 1422q6.5 12 26.5 12h238q28 0 41 -27l250 -533q3 -6 8 -6t8 6l250 533q13 27 41 27h239q20 0 28 -12t-1 -29l-418 -834q-4 -8 -4 -16v-506q0 -35 -35 -35h-217q-35 0 -35 35v506q0 8 -4 16l-413 834q-9 17 -2.5 29zM503.5 1567q-6.5 11 2.5 30l100 187q12 24 41 24 h207q22 0 28.5 -13t-5.5 -30l-132 -186q-16 -23 -43 -23h-172q-20 0 -26.5 11z" />
<glyph unicode="&#xde;" horiz-adv-x="1189" d="M115 35v1364q0 35 35 35h219q34 0 34 -35v-238q0 -12 13 -12h270q202 0 327.5 -121t125.5 -315q0 -190 -133.5 -309t-333.5 -119h-256q-13 0 -13 -13v-237q0 -35 -34 -35h-219q-35 0 -35 35zM403 530q0 -12 13 -12h225q94 0 151.5 50t57.5 139q0 92 -57.5 143t-151.5 51 h-225q-13 0 -13 -12v-359z" />
<glyph unicode="&#xdf;" horiz-adv-x="1249" d="M111 37v954q0 216 133.5 337.5t367.5 121.5q243 0 385 -106t142 -291q3 -185 -144 -267q-6 -3 -6 -8t6 -8q76 -46 122 -138t46 -210q0 -203 -143.5 -312.5t-429.5 -109.5h-64q-34 0 -34 35v176q0 35 34 35h105q116 0 179.5 54t63.5 151q0 98 -59 151t-168 55h-100 q-35 0 -35 35v158q0 35 35 35h108q92 0 144.5 44.5t50.5 114.5q0 70 -51.5 115t-163.5 45q-96 0 -166 -50t-70 -136v-983q0 -35 -34 -35l-220 2q-34 0 -34 35z" />
<glyph unicode="&#xe0;" horiz-adv-x="1081" d="M53 291q0 157 110.5 244.5t315.5 87.5h207q12 0 12 12v43q0 67 -41.5 105t-121.5 38q-127 0 -156 -78q-12 -29 -41 -26l-227 28q-16 2 -25 9.5t-8 19.5q15 129 140.5 212t309.5 83q201 0 330 -100t129 -250v-684q0 -35 -35 -35h-219q-35 0 -35 35v49q0 8 -4 9t-10 -5 q-94 -104 -281 -104q-158 0 -254 77.5t-96 229.5zM264 1431q6 13 27 13h207q28 0 41 -25l100 -186q9 -19 2 -30t-27 -11h-172q-25 0 -41 22l-131 187q-12 17 -6 30zM342 317q0 -55 40 -86.5t105 -31.5q88 0 149.5 47t61.5 121v71q0 13 -12 13h-145q-93 0 -146 -35t-53 -99z " />
<glyph unicode="&#xe1;" horiz-adv-x="1081" d="M53 291q0 157 110.5 244.5t315.5 87.5h207q12 0 12 12v43q0 67 -41.5 105t-121.5 38q-127 0 -156 -78q-12 -29 -41 -26l-227 28q-16 2 -25 9.5t-8 19.5q15 129 140.5 212t309.5 83q201 0 330 -100t129 -250v-684q0 -35 -35 -35h-219q-35 0 -35 35v49q0 8 -4 9t-10 -5 q-94 -104 -281 -104q-158 0 -254 77.5t-96 229.5zM342 317q0 -55 40 -86.5t105 -31.5q88 0 149.5 47t61.5 121v71q0 13 -12 13h-145q-93 0 -146 -35t-53 -99zM405.5 1203q-6.5 11 2.5 30l100 186q12 25 41 25h207q22 0 28 -13t-6 -30l-131 -187q-16 -22 -43 -22h-172 q-20 0 -26.5 11z" />
<glyph unicode="&#xe2;" horiz-adv-x="1081" d="M53 291q0 157 110.5 244.5t315.5 87.5h207q12 0 12 12v43q0 67 -41.5 105t-121.5 38q-127 0 -156 -78q-12 -29 -41 -26l-227 28q-16 2 -25 9.5t-8 19.5q15 129 140.5 212t309.5 83q201 0 330 -100t129 -250v-684q0 -35 -35 -35h-219q-35 0 -35 35v49q0 8 -4 9t-10 -5 q-94 -104 -281 -104q-158 0 -254 77.5t-96 229.5zM227.5 1199q-6.5 13 5.5 30l144 198q15 21 43 21h221q28 0 43 -21l147 -198q12 -17 6 -30t-28 -13h-152q-25 0 -41 22l-75 117q-3 6 -8.5 6t-8.5 -6l-75 -117q-16 -22 -41 -22h-152q-22 0 -28.5 13zM342 317q0 -55 40 -86.5 t105 -31.5q88 0 149.5 47t61.5 121v71q0 13 -12 13h-145q-93 0 -146 -35t-53 -99z" />
<glyph unicode="&#xe3;" horiz-adv-x="1081" d="M53 291q0 157 110.5 244.5t315.5 87.5h207q12 0 12 12v43q0 67 -41.5 105t-121.5 38q-127 0 -156 -78q-12 -29 -41 -26l-227 28q-16 2 -25 9.5t-8 19.5q15 129 140.5 212t309.5 83q201 0 330 -100t129 -250v-684q0 -35 -35 -35h-219q-35 0 -35 35v49q0 8 -4 9t-10 -5 q-94 -104 -281 -104q-158 0 -254 77.5t-96 229.5zM250 1327q28 67 77.5 101t108.5 34q56 0 133 -47q67 -37 99 -37q43 0 69 37q22 28 47 10l74 -49q28 -21 2 -63q-36 -60 -87 -90.5t-101 -30.5q-57 0 -135 51q-49 33 -80 33q-48 0 -76 -35q-23 -29 -47 -10l-72 49 q-27 20 -12 47zM342 317q0 -55 40 -86.5t105 -31.5q88 0 149.5 47t61.5 121v71q0 13 -12 13h-145q-93 0 -146 -35t-53 -99z" />
<glyph unicode="&#xe4;" horiz-adv-x="1081" d="M53 291q0 157 110.5 244.5t315.5 87.5h207q12 0 12 12v43q0 67 -41.5 105t-121.5 38q-127 0 -156 -78q-12 -29 -41 -26l-227 28q-16 2 -25 9.5t-8 19.5q15 129 140.5 212t309.5 83q201 0 330 -100t129 -250v-684q0 -35 -35 -35h-219q-35 0 -35 35v49q0 8 -4 9t-10 -5 q-94 -104 -281 -104q-158 0 -254 77.5t-96 229.5zM190 1329q0 64 41.5 105t104.5 41q64 0 103.5 -40.5t39.5 -105.5t-39.5 -104t-103.5 -39t-105 39.5t-41 103.5zM342 317q0 -55 40 -86.5t105 -31.5q88 0 149.5 47t61.5 121v71q0 13 -12 13h-145q-93 0 -146 -35t-53 -99z M584 1329q0 65 39.5 105.5t105.5 40.5q64 0 103.5 -40.5t39.5 -105.5t-39 -104t-104 -39q-66 0 -105.5 39t-39.5 104z" />
<glyph unicode="&#xe5;" horiz-adv-x="1081" d="M53 291q0 157 110.5 244.5t315.5 87.5h207q12 0 12 12v43q0 67 -41.5 105t-121.5 38q-127 0 -156 -78q-12 -29 -41 -26l-227 28q-16 2 -25 9.5t-8 19.5q15 129 140.5 212t309.5 83q201 0 330 -100t129 -250v-684q0 -35 -35 -35h-219q-35 0 -35 35v49q0 8 -4 9t-10 -5 q-94 -104 -281 -104q-158 0 -254 77.5t-96 229.5zM303 1391q0 95 66 161t163 66q96 0 163 -66t67 -161t-67.5 -161.5t-162.5 -66.5q-96 0 -162.5 66.5t-66.5 161.5zM342 317q0 -55 40 -86.5t105 -31.5q88 0 149.5 47t61.5 121v71q0 13 -12 13h-145q-93 0 -146 -35t-53 -99z M434 1391q0 -40 28.5 -68.5t69.5 -28.5q40 0 68.5 28.5t28.5 68.5q0 42 -28.5 70t-68.5 28q-42 0 -70 -28t-28 -70z" />
<glyph unicode="&#xe6;" horiz-adv-x="1718" d="M53 291q0 150 110.5 238.5t313.5 88.5h207q12 0 12 13v39q0 69 -43 110t-125 41q-58 0 -100 -21t-57 -57q-12 -29 -41 -26l-221 28q-16 2 -25 12t-6 27q20 122 144 203.5t286 81.5q113 0 206.5 -45.5t137.5 -112.5q8 -8 16 0q41 63 126 110.5t188 47.5q144 0 267.5 -83 t166.5 -220q31 -101 33 -295q0 -37 -35 -37h-608q-13 0 -13 -12q0 -10 6 -45q13 -70 75 -105.5t153 -35.5q142 0 211 81q24 30 47 7l108 -103q23 -23 6 -49q-66 -86 -168 -137t-229 -51q-119 0 -213 45.5t-135 115.5q-9 12 -14 7q-47 -74 -152 -121t-239 -47 q-177 0 -286.5 78t-109.5 229zM342 313q0 -52 41 -86t111 -34q82 0 142 45t60 124v60q0 12 -12 12h-145q-92 0 -144.5 -31t-52.5 -90zM991 631q0 -13 13 -13h339q14 0 11 13q-4 41 -11 61q-15 58 -59.5 93.5t-109.5 35.5t-111.5 -35.5t-61.5 -93.5q-6 -19 -10 -61z" />
<glyph unicode="&#xe7;" horiz-adv-x="1099" d="M80 532q0 135 35 238q50 139 170.5 219t283.5 80q165 0 288.5 -82t164.5 -207q12 -30 16 -63q3 -30 -30 -37l-215 -33q-15 -3 -26.5 3.5t-12.5 19.5l-6 28q-14 53 -63.5 88t-117.5 35q-65 0 -110 -32.5t-64 -90.5q-22 -61 -22 -168q0 -106 20 -168q19 -61 64.5 -96 t111.5 -35q64 0 111.5 34t66.5 91l3 11q2 9 13.5 20t26.5 8l216 -33q34 -7 28 -38q-5 -34 -10 -48q-36 -112 -127.5 -185t-218.5 -97q-7 -1 -8.5 -7t4.5 -10q110 -107 82 -227q-15 -54 -53 -86t-85.5 -38.5t-91 -2.5t-82.5 17q-27 8 -24 41l10 81q6 34 43 25q78 -17 96 43 q17 67 -100 160q-8 4 -14 6q-121 26 -209 102.5t-129 192.5q-35 101 -35 241z" />
<glyph unicode="&#xe8;" horiz-adv-x="1120" d="M84 535q0 119 22 200q42 152 165.5 244t293.5 92q201 0 318.5 -119.5t152.5 -333.5q10 -77 13 -149q0 -35 -35 -35h-629q-12 0 -12 -12q7 -44 14 -64q22 -63 81 -97t146 -34q134 6 207 95q25 28 49 4l117 -113q22 -22 4 -49q-67 -84 -172.5 -132t-230.5 -48 q-189 0 -313 96.5t-166 263.5q-25 92 -25 191zM290.5 1433q5.5 13 26.5 13h207q28 0 41 -25l101 -186q9 -19 2 -30t-27 -11h-172q-25 0 -41 23l-131 186q-12 17 -6.5 30zM379 649q-3 -12 10 -12h348q14 0 11 12q-3 24 -9 43q-19 61 -64.5 95t-113.5 34q-132 0 -170 -121 q-11 -37 -12 -51z" />
<glyph unicode="&#xe9;" horiz-adv-x="1120" d="M84 535q0 119 22 200q42 152 165.5 244t293.5 92q201 0 318.5 -119.5t152.5 -333.5q10 -77 13 -149q0 -35 -35 -35h-629q-12 0 -12 -12q7 -44 14 -64q22 -63 81 -97t146 -34q134 6 207 95q25 28 49 4l117 -113q22 -22 4 -49q-67 -84 -172.5 -132t-230.5 -48 q-189 0 -313 96.5t-166 263.5q-25 92 -25 191zM379 649q-3 -12 10 -12h348q14 0 11 12q-3 24 -9 43q-19 61 -64.5 95t-113.5 34q-132 0 -170 -121q-11 -37 -12 -51zM432 1205q-7 11 2 30l101 186q13 25 40 25h207q22 0 28.5 -13t-5.5 -30l-131 -186q-16 -23 -43 -23h-172 q-20 0 -27 11z" />
<glyph unicode="&#xea;" horiz-adv-x="1120" d="M84 535q0 119 22 200q42 152 165.5 244t293.5 92q201 0 318.5 -119.5t152.5 -333.5q10 -77 13 -149q0 -35 -35 -35h-629q-12 0 -12 -12q7 -44 14 -64q22 -63 81 -97t146 -34q134 6 207 95q25 28 49 4l117 -113q22 -22 4 -49q-67 -84 -172.5 -132t-230.5 -48 q-189 0 -313 96.5t-166 263.5q-25 92 -25 191zM254.5 1201q-6.5 13 5.5 30l143 199q14 20 43 20h222q29 0 43 -20l147 -199q12 -17 6 -30t-28 -13h-152q-25 0 -41 22l-76 117q-3 6 -8 6t-8 -6l-76 -117q-16 -22 -41 -22h-151q-22 0 -28.5 13zM379 649q-3 -12 10 -12h348 q14 0 11 12q-3 24 -9 43q-19 61 -64.5 95t-113.5 34q-132 0 -170 -121q-11 -37 -12 -51z" />
<glyph unicode="&#xeb;" horiz-adv-x="1120" d="M84 535q0 119 22 200q42 152 165.5 244t293.5 92q201 0 318.5 -119.5t152.5 -333.5q10 -77 13 -149q0 -35 -35 -35h-629q-12 0 -12 -12q7 -44 14 -64q22 -63 81 -97t146 -34q134 6 207 95q25 28 49 4l117 -113q22 -22 4 -49q-67 -84 -172.5 -132t-230.5 -48 q-189 0 -313 96.5t-166 263.5q-25 92 -25 191zM217 1331q0 64 41 105t104 41q64 0 104 -40.5t40 -105.5q0 -64 -39.5 -103.5t-104.5 -39.5q-64 0 -104.5 39.5t-40.5 103.5zM379 649q-3 -12 10 -12h348q14 0 11 12q-3 24 -9 43q-19 61 -64.5 95t-113.5 34q-132 0 -170 -121 q-11 -37 -12 -51zM610 1331q0 65 40 105.5t106 40.5q64 0 103.5 -40.5t39.5 -105.5t-39.5 -104t-103.5 -39q-66 0 -106 39t-40 104z" />
<glyph unicode="&#xec;" horiz-adv-x="493" d="M-31 1437q6 13 27 13h207q29 0 41 -25l100 -186q9 -19 2 -30t-27 -11h-172q-25 0 -41 23l-131 186q-12 17 -6 30zM100 35v983q0 35 35 35h219q35 0 35 -35v-983q0 -35 -35 -35h-219q-35 0 -35 35z" />
<glyph unicode="&#xed;" horiz-adv-x="493" d="M100 35v983q0 35 35 35h219q35 0 35 -35v-983q0 -35 -35 -35h-219q-35 0 -35 35zM110.5 1209q-6.5 11 2.5 30l100 186q13 25 41 25h207q22 0 28 -13t-6 -30l-131 -186q-16 -23 -43 -23h-172q-20 0 -26.5 11z" />
<glyph unicode="&#xee;" horiz-adv-x="493" d="M-67 1205q-6 13 6 30l143 199q14 20 43 20h221q29 0 43 -20l148 -199q12 -17 5.5 -30t-28.5 -13h-152q-24 0 -40 22l-76 117q-3 6 -8.5 6t-8.5 -6l-75 -117q-16 -22 -41 -22h-152q-22 0 -28 13zM100 35v983q0 35 35 35h219q35 0 35 -35v-983q0 -35 -35 -35h-219 q-35 0 -35 35z" />
<glyph unicode="&#xef;" horiz-adv-x="548" d="M-76 1335q0 64 41.5 105t104.5 41q64 0 103.5 -40.5t39.5 -105.5t-39.5 -104t-103.5 -39t-105 39.5t-41 103.5zM129 35v983q0 35 35 35h219q35 0 35 -35v-983q0 -35 -35 -35h-219q-35 0 -35 35zM317 1335q0 65 40 105.5t106 40.5q64 0 103.5 -40.5t39.5 -105.5t-39 -104 t-104 -39q-66 0 -106 39t-40 104z" />
<glyph unicode="&#xf0;" horiz-adv-x="1107" d="M61 479q0 129 33 217q27 74 83 129t132 78q67 29 169 33t169 -23q6 -3 8.5 0.5t-0.5 10.5q-32 77 -82 159q-7 10 -16 7l-192 -54q-15 -4 -26.5 3.5t-16.5 23.5l-23 86q-9 31 25 41l127 35q13 3 4 16q-54 64 -140 150q-17 17 -11 30t30 13h225q25 0 43 -21t49 -59.5 t45 -55.5q6 -10 17 -6l161 45q15 4 27 -3.5t17 -22.5l22 -86q9 -31 -25 -41l-94 -25q-12 -3 -6 -16q137 -199 170 -393q29 -132 29 -271q0 -125 -33 -219q-51 -124 -169.5 -200t-274.5 -76q-157 0 -275 74.5t-168 201.5q-33 87 -33 219zM352 471q0 -90 23 -147 q18 -57 60.5 -90t101.5 -33t101.5 33t61.5 90q21 52 21 147q0 91 -21 143q-19 56 -61.5 87.5t-101.5 31.5t-102 -31.5t-62 -87.5q-21 -56 -21 -143z" />
<glyph unicode="&#xf1;" horiz-adv-x="1120" d="M106 35v983q0 35 35 35h219q35 0 35 -35v-57q0 -8 4.5 -10.5t8.5 3.5q84 115 247 115q164 0 264.5 -100.5t100.5 -272.5v-661q0 -35 -35 -35h-219q-35 0 -35 35v602q0 82 -45.5 133t-120.5 51t-122.5 -50.5t-47.5 -133.5v-602q0 -35 -35 -35h-219q-35 0 -35 35zM289 1311 q28 67 77.5 101t108.5 34q56 0 133 -47q67 -37 99 -37q43 0 69 37q22 28 47 10l74 -49q27 -20 12 -49q-38 -67 -91 -101t-107 -34q-58 0 -136 51q-49 33 -79 33q-48 0 -76 -35q-23 -30 -47 -11l-72 50q-27 20 -12 47z" />
<glyph unicode="&#xf2;" d="M80 528q0 122 31 217q46 152 168 238t296 86q168 0 287.5 -85.5t167.5 -235.5q31 -98 31 -216q0 -103 -27 -206q-46 -159 -168 -250.5t-293 -91.5q-174 0 -296.5 89.5t-167.5 245.5q-29 98 -29 209zM301 1431q6 13 27 13h207q27 0 40 -25l101 -186q9 -19 2 -30t-27 -11 h-172q-25 0 -41 22l-131 187q-12 17 -6 30zM371 528q0 -84 16 -143q21 -72 68.5 -113t117.5 -41q66 0 113 41t68 113q16 55 16 143q0 87 -16 146q-21 70 -68 108.5t-117 38.5q-68 0 -114.5 -39t-67.5 -108q-16 -59 -16 -146z" />
<glyph unicode="&#xf3;" d="M80 528q0 122 31 217q46 152 168 238t296 86q168 0 287.5 -85.5t167.5 -235.5q31 -98 31 -216q0 -103 -27 -206q-46 -159 -168 -250.5t-293 -91.5q-174 0 -296.5 89.5t-167.5 245.5q-29 98 -29 209zM371 528q0 -84 16 -143q21 -72 68.5 -113t117.5 -41q66 0 113 41 t68 113q16 55 16 143q0 87 -16 146q-21 70 -68 108.5t-117 38.5q-68 0 -114.5 -39t-67.5 -108q-16 -59 -16 -146zM442 1203q-7 11 2 30l101 186q13 25 41 25h207q22 0 28 -13t-6 -30l-131 -187q-16 -22 -43 -22h-172q-20 0 -27 11z" />
<glyph unicode="&#xf4;" d="M80 528q0 122 31 217q46 152 168 238t296 86q168 0 287.5 -85.5t167.5 -235.5q31 -98 31 -216q0 -103 -27 -206q-46 -159 -168 -250.5t-293 -91.5q-174 0 -296.5 89.5t-167.5 245.5q-29 98 -29 209zM264.5 1199q-6.5 13 5.5 30l144 198q15 21 43 21h221q28 0 43 -21 l147 -198q12 -17 6 -30t-28 -13h-152q-25 0 -41 22l-75 117q-3 6 -8.5 6t-8.5 -6l-76 -117q-16 -22 -41 -22h-151q-22 0 -28.5 13zM371 528q0 -84 16 -143q21 -72 68.5 -113t117.5 -41q66 0 113 41t68 113q16 55 16 143q0 87 -16 146q-21 70 -68 108.5t-117 38.5 q-68 0 -114.5 -39t-67.5 -108q-16 -59 -16 -146z" />
<glyph unicode="&#xf5;" d="M80 528q0 122 31 217q46 152 168 238t296 86q168 0 287.5 -85.5t167.5 -235.5q31 -98 31 -216q0 -103 -27 -206q-46 -159 -168 -250.5t-293 -91.5q-174 0 -296.5 89.5t-167.5 245.5q-29 98 -29 209zM287 1327q28 67 77.5 101t108.5 34q56 0 133 -47q67 -37 99 -37 q43 0 69 37q22 28 47 10l74 -49q28 -21 2 -63q-36 -60 -87 -90.5t-101 -30.5q-58 0 -136 51q-49 33 -79 33q-48 0 -76 -35q-23 -29 -47 -10l-72 49q-27 20 -12 47zM371 528q0 -84 16 -143q21 -72 68.5 -113t117.5 -41q66 0 113 41t68 113q16 55 16 143q0 87 -16 146 q-21 70 -68 108.5t-117 38.5q-68 0 -114.5 -39t-67.5 -108q-16 -59 -16 -146z" />
<glyph unicode="&#xf6;" d="M80 528q0 122 31 217q46 152 168 238t296 86q168 0 287.5 -85.5t167.5 -235.5q31 -98 31 -216q0 -103 -27 -206q-46 -159 -168 -250.5t-293 -91.5q-174 0 -296.5 89.5t-167.5 245.5q-29 98 -29 209zM227 1329q0 64 41.5 105t104.5 41q64 0 103.5 -40.5t39.5 -105.5 t-39 -104t-104 -39q-64 0 -105 39.5t-41 103.5zM371 528q0 -84 16 -143q21 -72 68.5 -113t117.5 -41q66 0 113 41t68 113q16 55 16 143q0 87 -16 146q-21 70 -68 108.5t-117 38.5q-68 0 -114.5 -39t-67.5 -108q-16 -59 -16 -146zM621 1329q0 65 39.5 105.5t105.5 40.5 q64 0 103.5 -40.5t39.5 -105.5t-39.5 -104t-103.5 -39q-66 0 -105.5 39t-39.5 104z" />
<glyph unicode="&#xf7;" horiz-adv-x="995" d="M59 549v178q0 35 35 35h807q35 0 35 -35v-178q0 -35 -35 -35h-807q-35 0 -35 35zM356 301q0 57 42 98t100 41q57 0 98 -41t41 -98q0 -58 -41 -99.5t-98 -41.5q-60 0 -101 41t-41 100zM356 995q0 57 42 98.5t100 41.5q57 0 98 -41.5t41 -98.5q0 -58 -41 -99.5t-98 -41.5 q-60 0 -101 41t-41 100z" />
<glyph unicode="&#xf8;" horiz-adv-x="1150" d="M90 528q0 122 31 217q46 152 168.5 238t296.5 86q121 0 221 -47q10 -3 16 6l62 90q19 28 49 8l70 -51q27 -20 8 -49l-66 -94q-6 -8 0 -17q63 -69 94 -167t31 -216q0 -103 -27 -206q-46 -159 -167.5 -250.5t-292.5 -91.5q-134 0 -240 53q-9 6 -16 -4l-66 -94 q-19 -29 -49 -9l-70 52q-27 20 -8 49l72 102q6 9 0 17q-59 68 -88 169q-29 98 -29 209zM381 528q0 -63 8 -104q2 -8 7 -8.5t10 6.5l253 369q7 10 -4 16q-32 14 -75 14q-68 0 -115 -39t-68 -108q-16 -59 -16 -146zM489 270q-5 -10 5 -16q41 -23 90 -23q66 0 112.5 41 t67.5 113q16 55 16 143q0 63 -10 121q-2 8 -6.5 8.5t-9.5 -6.5z" />
<glyph unicode="&#xf9;" horiz-adv-x="1116" d="M98 344v674q0 35 35 35h217q35 0 35 -35v-602q0 -83 44.5 -134t121.5 -51q70 0 115.5 42t54.5 110v635q0 35 35 35h219q35 0 35 -35v-983q0 -35 -35 -35h-219q-35 0 -35 35v55q0 7 -4.5 8.5t-9.5 -4.5q-79 -108 -252 -108q-156 0 -256.5 93.5t-100.5 264.5zM284.5 1414 q5.5 13 26.5 13h207q29 0 41 -24l100 -186q9 -19 2.5 -30t-26.5 -11h-172q-25 0 -41 22l-131 186q-12 17 -6.5 30z" />
<glyph unicode="&#xfa;" horiz-adv-x="1116" d="M98 344v674q0 35 35 35h217q35 0 35 -35v-602q0 -83 44.5 -134t121.5 -51q70 0 115.5 42t54.5 110v635q0 35 35 35h219q35 0 35 -35v-983q0 -35 -35 -35h-219q-35 0 -35 35v55q0 7 -4.5 8.5t-9.5 -4.5q-79 -108 -252 -108q-156 0 -256.5 93.5t-100.5 264.5zM426 1187 q-7 11 2 30l100 186q12 24 41 24h207q22 0 28.5 -13t-5.5 -30l-131 -186q-16 -22 -43 -22h-172q-20 0 -27 11z" />
<glyph unicode="&#xfb;" horiz-adv-x="1116" d="M98 344v674q0 35 35 35h217q35 0 35 -35v-602q0 -83 44.5 -134t121.5 -51q70 0 115.5 42t54.5 110v635q0 35 35 35h219q35 0 35 -35v-983q0 -35 -35 -35h-219q-35 0 -35 35v55q0 7 -4.5 8.5t-9.5 -4.5q-79 -108 -252 -108q-156 0 -256.5 93.5t-100.5 264.5zM248 1182 q-6 13 6 30l143 199q15 21 43 21h222q28 0 43 -21l147 -199q12 -17 5.5 -30t-28.5 -13h-151q-25 0 -41 23l-76 117q-3 6 -8 6t-8 -6l-76 -117q-16 -23 -41 -23h-152q-22 0 -28 13z" />
<glyph unicode="&#xfc;" horiz-adv-x="1116" d="M98 344v674q0 35 35 35h217q35 0 35 -35v-602q0 -83 44.5 -134t121.5 -51q70 0 115.5 42t54.5 110v635q0 35 35 35h219q35 0 35 -35v-983q0 -35 -35 -35h-219q-35 0 -35 35v55q0 7 -4.5 8.5t-9.5 -4.5q-79 -108 -252 -108q-156 0 -256.5 93.5t-100.5 264.5zM211 1313 q0 64 41 104.5t104 40.5q64 0 104 -40t40 -105t-40 -104.5t-104 -39.5q-63 0 -104 40t-41 104zM604 1313q0 65 40 105t106 40q64 0 103.5 -40t39.5 -105t-39.5 -104.5t-103.5 -39.5q-66 0 -106 39.5t-40 104.5z" />
<glyph unicode="&#xfd;" horiz-adv-x="1034" d="M41 1014q-6 17 2 28t27 11h235q29 0 39 -29l168 -610q2 -8 8 -8t8 8l160 608q7 31 39 31h236q19 0 26.5 -11t1.5 -28l-350 -1053q-22 -64 -40.5 -107.5t-42.5 -85t-51.5 -68t-64 -49t-84 -34.5t-107 -18.5t-136.5 -6.5h-15q-14 0 -14 35v168q0 35 12 35h13q126 0 181 32 t79 130q3 10 0 16zM389 1207q-7 11 2 30l101 186q12 25 40 25h207q22 0 28.5 -13t-5.5 -30l-131 -186q-16 -23 -43 -23h-172q-20 0 -27 11z" />
<glyph unicode="&#xfe;" horiz-adv-x="1114" d="M111 -375v1774q0 35 34 35h220q34 0 34 -35v-393q0 -7 4.5 -9.5t10.5 2.5q78 72 207 72q139 0 242.5 -78t148.5 -209q39 -102 39 -254q0 -146 -35 -245q-42 -136 -149 -218.5t-246 -82.5q-123 0 -207 77q-6 6 -10.5 5t-4.5 -9v-432q0 -35 -34 -35h-220q-34 0 -34 35z M399 369q0 -11 2 -17q1 -2 7 -12t8 -16q50 -88 139 -88q100 0 150 88q43 78 43 200q0 133 -50 215q-50 78 -143 78q-85 0 -137 -80l-15 -32q-4 -8 -4 -17v-319z" />
<glyph unicode="&#xff;" horiz-adv-x="1034" d="M41 1014q-6 17 2 28t27 11h235q29 0 39 -29l168 -610q2 -8 8 -8t8 8l160 608q7 31 39 31h236q19 0 26.5 -11t1.5 -28l-350 -1053q-22 -64 -40.5 -107.5t-42.5 -85t-51.5 -68t-64 -49t-84 -34.5t-107 -18.5t-136.5 -6.5h-15q-14 0 -14 35v168q0 35 12 35h13q126 0 181 32 t79 130q3 10 0 16zM174 1333q0 64 41 105t104 41q64 0 104 -40.5t40 -105.5q0 -64 -39.5 -103.5t-104.5 -39.5q-64 0 -104.5 39.5t-40.5 103.5zM567 1333q0 65 40 105.5t106 40.5q64 0 103.5 -40.5t39.5 -105.5t-39 -104t-104 -39q-66 0 -106 39t-40 104z" />
<glyph unicode="&#x152;" horiz-adv-x="1904" d="M96 485v461q0 220 131.5 362t321.5 142q168 0 301 -94q6 -4 10 -2t4 10v35q0 35 35 35h895q35 0 35 -35v-178q0 -35 -35 -35h-629q-12 0 -12 -12v-314q0 -12 12 -12h398q34 0 34 -35v-178q0 -35 -34 -35h-398q-12 0 -12 -12v-328q0 -12 12 -12h629q35 0 35 -35v-178 q0 -35 -35 -35h-895q-35 0 -35 35v31q0 8 -4 10t-10 -2q-137 -97 -301 -97q-124 0 -227 63.5t-164.5 180.5t-61.5 264zM385 477q0 -111 66.5 -181.5t171.5 -70.5q108 0 174.5 70.5t66.5 181.5v473q0 111 -66.5 181.5t-174.5 70.5q-105 0 -171.5 -70.5t-66.5 -181.5v-473z " />
<glyph unicode="&#x153;" horiz-adv-x="1785" d="M80 530q0 145 33 240q48 137 166.5 218t275.5 81q193 0 332 -145q8 -8 16 0q138 145 330 145q161 0 282.5 -84.5t165.5 -218.5q32 -89 35 -303q0 -37 -35 -37h-614q-13 0 -10 -12q2 -18 12 -54q42 -135 223 -135q47 0 97.5 23.5t83.5 62.5q22 28 47 6l127 -106 q28 -24 6 -49q-142 -178 -398 -178q-215 0 -352 147q-8 8 -16 0q-140 -147 -332 -147q-157 0 -274.5 82t-167.5 223q-33 98 -33 241zM371 530q0 -106 22 -170q18 -60 60 -94.5t102 -34.5q59 0 101.5 35.5t60.5 93.5q22 54 22 170q0 113 -22 164q-17 59 -60 93t-102 34 q-60 0 -102.5 -34t-61.5 -93q-20 -56 -20 -164zM1057 635q-3 -12 12 -12h340q13 0 10 12q-3 39 -10 57q-18 59 -63 94t-109 35t-107 -35t-61 -94q-5 -19 -12 -57z" />
<glyph unicode="&#x178;" horiz-adv-x="1263" d="M67.5 1422q6.5 12 26.5 12h238q28 0 41 -27l250 -533q3 -6 8 -6t8 6l250 533q13 27 41 27h239q20 0 28 -12t-1 -29l-418 -834q-4 -8 -4 -16v-506q0 -35 -35 -35h-217q-35 0 -35 35v506q0 8 -4 16l-413 834q-9 17 -2.5 29zM289 1694q0 64 41 104.5t104 40.5q64 0 104 -40 t40 -105q0 -64 -40 -104t-104 -40q-63 0 -104 40t-41 104zM682 1694q0 65 39.5 105t105.5 40q64 0 104 -40t40 -105q0 -64 -39.5 -104t-104.5 -40q-66 0 -105.5 39.5t-39.5 104.5z" />
<glyph unicode="&#x2c6;" horiz-adv-x="659" d="M25 1182q-6 13 6 30l143 199q15 21 43 21h221q28 0 43 -21l148 -199q12 -17 5.5 -30t-28.5 -13h-151q-25 0 -41 23l-76 117q-3 6 -8 6t-8 -6l-76 -117q-16 -23 -41 -23h-152q-22 0 -28 13z" />
<glyph unicode="&#x2dc;" horiz-adv-x="722" d="M51 1311q28 67 78 101t109 34q56 0 133 -47q67 -37 98 -37q44 0 70 37q22 28 47 10l73 -49q29 -22 3 -64q-36 -60 -87 -90t-102 -30q-57 0 -135 51q-49 33 -80 33q-48 0 -76 -35q-23 -30 -47 -11l-72 50q-27 20 -12 47z" />
<glyph unicode="&#x2000;" horiz-adv-x="991" />
<glyph unicode="&#x2001;" horiz-adv-x="1982" />
<glyph unicode="&#x2002;" horiz-adv-x="991" />
<glyph unicode="&#x2003;" horiz-adv-x="1982" />
<glyph unicode="&#x2004;" horiz-adv-x="660" />
<glyph unicode="&#x2005;" horiz-adv-x="495" />
<glyph unicode="&#x2006;" horiz-adv-x="330" />
<glyph unicode="&#x2007;" horiz-adv-x="330" />
<glyph unicode="&#x2008;" horiz-adv-x="247" />
<glyph unicode="&#x2009;" horiz-adv-x="396" />
<glyph unicode="&#x200a;" horiz-adv-x="110" />
<glyph unicode="&#x2010;" horiz-adv-x="837" d="M59 516v178q0 35 35 35h649q35 0 35 -35v-178q0 -35 -35 -35h-649q-35 0 -35 35z" />
<glyph unicode="&#x2011;" horiz-adv-x="837" d="M59 516v178q0 35 35 35h649q35 0 35 -35v-178q0 -35 -35 -35h-649q-35 0 -35 35z" />
<glyph unicode="&#x2012;" horiz-adv-x="837" d="M59 516v178q0 35 35 35h649q35 0 35 -35v-178q0 -35 -35 -35h-649q-35 0 -35 35z" />
<glyph unicode="&#x2013;" horiz-adv-x="974" d="M59 492v178q0 35 35 35h789q35 0 35 -35v-178q0 -35 -35 -35h-789q-35 0 -35 35z" />
<glyph unicode="&#x2014;" horiz-adv-x="1349" d="M59 494v176q0 35 35 35h1161q35 0 35 -35v-176q0 -35 -35 -35h-1161q-35 0 -35 35z" />
<glyph unicode="&#x2018;" horiz-adv-x="417" d="M16 1012l162 395q12 27 39 27h160q19 0 27.5 -11t3.5 -28l-107 -396q-9 -28 -39 -28h-219q-19 0 -26.5 12t-0.5 29z" />
<glyph unicode="&#x2019;" horiz-adv-x="417" d="M10 1010l107 395q10 29 39 29h219q19 0 26.5 -12t-0.5 -29l-161 -396q-12 -26 -39 -26h-160q-19 0 -27.5 11t-3.5 28z" />
<glyph unicode="&#x201a;" horiz-adv-x="1228" d="M86 -164l66 455q2 15 11.5 24t24.5 9h187q19 0 27.5 -11t3.5 -28l-123 -457q-10 -29 -39 -29h-127q-37 0 -31 37z" />
<glyph unicode="&#x201c;" horiz-adv-x="743" d="M14 1010l140 395q9 29 41 29h151q19 0 27.5 -11t3.5 -28l-90 -394q-6 -30 -37 -30h-207q-19 0 -27 11t-2 28zM377 1010l137 395q9 29 41 29h150q37 0 30 -39l-86 -394q-6 -30 -37 -30h-206q-19 0 -27 11t-2 28z" />
<glyph unicode="&#x201d;" horiz-adv-x="743" d="M8 1010l86 393q6 31 37 31h207q19 0 27 -11t2 -28l-138 -396q-8 -28 -41 -28h-149q-38 0 -31 39zM367 1010l90 393q6 31 37 31h206q19 0 27 -11t2 -28l-139 -396q-8 -28 -41 -28h-152q-19 0 -27 11t-3 28z" />
<glyph unicode="&#x201e;" horiz-adv-x="784" d="M8 -162l86 393q6 31 37 31h207q19 0 27 -11t2 -28l-138 -395q-9 -29 -41 -29h-149q-38 0 -31 39zM367 -162l90 393q6 31 37 31h206q19 0 27 -11t2 -28l-139 -395q-9 -29 -41 -29h-152q-19 0 -27 11t-3 28z" />
<glyph unicode="&#x2022;" horiz-adv-x="649" d="M59 567q0 110 78 187t189 77q109 0 186.5 -77t77.5 -187t-77.5 -189t-186.5 -79q-110 0 -188.5 79t-78.5 189z" />
<glyph unicode="&#x2026;" horiz-adv-x="1738" d="M84 170q0 72 57 124t129 52q75 0 133 -52t58 -124q0 -74 -55 -126t-136 -52t-133.5 51.5t-52.5 126.5zM682 170q0 72 57 124t129 52q75 0 133 -52t58 -124q0 -74 -55 -126t-136 -52t-133.5 51.5t-52.5 126.5zM1276 170q0 72 57 124t129 52q75 0 133 -52t58 -124 q0 -74 -55 -126t-136 -52t-133.5 51.5t-52.5 126.5z" />
<glyph unicode="&#x202f;" horiz-adv-x="396" />
<glyph unicode="&#x2039;" horiz-adv-x="686" d="M102 551q-15 25 0 49l187 309q14 23 41 23h182q20 0 27 -12t-4 -29l-187 -307q-6 -8 0 -17l187 -307q11 -17 4 -29t-27 -12h-182q-27 0 -41 23z" />
<glyph unicode="&#x203a;" horiz-adv-x="710" d="M147.5 231q-6.5 12 4.5 29l186 307q6 9 0 17l-186 307q-11 17 -4.5 29t26.5 12h182q27 0 41 -23l187 -309q15 -24 0 -49l-187 -309q-14 -23 -41 -23h-182q-20 0 -26.5 12z" />
<glyph unicode="&#x205f;" horiz-adv-x="495" />
<glyph unicode="&#x20ac;" horiz-adv-x="1298" d="M96 559v82q0 35 35 35h119q12 0 12 12v60q0 12 -12 12h-119q-35 0 -35 35v82q0 34 35 34h119q12 0 12 13v71q0 209 129.5 332t345.5 123q192 0 317.5 -93t153.5 -255q6 -36 -30 -39l-220 -27q-31 -3 -40 31q-14 62 -62.5 98.5t-118.5 36.5q-83 0 -134.5 -54.5 t-51.5 -143.5v-80q0 -13 12 -13h393q18 0 26 -10.5t3 -28.5l-24 -84q-9 -28 -39 -28h-359q-12 0 -12 -12v-60q0 -12 12 -12h324q38 0 28 -39l-24 -84q-10 -29 -39 -29h-289q-12 0 -12 -12v-84q0 -88 51.5 -142.5t134.5 -54.5q72 0 120.5 39t62.5 105q9 34 41 28l217 -38 q35 -7 26 -41q-29 -157 -154 -248.5t-313 -91.5q-215 0 -345 124.5t-130 331.5v72q0 12 -12 12h-119q-35 0 -35 35z" />
<glyph unicode="&#x2122;" horiz-adv-x="1372" d="M29 1333v66q0 35 34 35h496q35 0 35 -35v-66q0 -35 -35 -35h-160q-12 0 -12 -12v-536q0 -35 -35 -35h-88q-35 0 -35 35v536q0 12 -12 12h-154q-34 0 -34 35zM694 750v649q0 35 35 35h92q27 0 43 -23l129 -180q3 -5 8.5 -5t8.5 5l129 180q16 23 43 23h92q35 0 35 -35v-649 q0 -35 -35 -35h-88q-35 0 -35 35v417q0 8 -4.5 11t-9.5 -4l-86 -121q-14 -23 -41 -23h-17q-27 0 -41 23l-86 121q-4 7 -9 4t-5 -11v-417q0 -35 -35 -35h-88q-35 0 -35 35z" />
<glyph unicode="&#x25fc;" horiz-adv-x="1054" d="M0 0v1055h1055v-1055h-1055z" />
</font>
</defs>
</svg>
