<svg xmlns="http://www.w3.org/2000/svg" width="731" height="667" viewBox="0 0 731 667">
  <g id="chakra-img" transform="translate(-542.31 -158.078)">
    <g id="Group_5412" data-name="Group 5412" transform="translate(601.591 186.155)">
      <g id="Group_5408" data-name="Group 5408" transform="translate(41.481 40.805)">
        <path id="Path_2920" data-name="Path 2920" d="M670.083,242.842l-528.116,307.8Z" transform="translate(-141.967 -133.147)" fill="none" stroke="#d1d1d1" stroke-miterlimit="10" stroke-width="2"/>
        <path id="Path_6823" data-name="Path 6823" d="M666.217,242.842,141.967,548.385Z" transform="matrix(0.502, -0.865, 0.865, 0.502, -280.345, 417.492)" fill="none" stroke="#d1d1d1" stroke-miterlimit="10" stroke-width="2"/>
        <path id="Path_2921" data-name="Path 2921" d="M530.511,689.966,222.715,161.85Z" transform="translate(-113.35 -161.85)" fill="none" stroke="#d1d1d1" stroke-miterlimit="10" stroke-width="2"/>
      </g>
      <g id="Group_5409" data-name="Group 5409" transform="translate(39.589 39.925)">
        <path id="Path_2922" data-name="Path 2922" d="M528.23,161.2,224.766,691.818Z" transform="translate(-110.731 -161.2)" fill="none" stroke="#d1d1d1" stroke-miterlimit="10" stroke-width="2"/>
        <path id="Path_2923" data-name="Path 2923" d="M671.188,549.112,140.57,245.648Z" transform="translate(-140.57 -131.272)" fill="none" stroke="#d1d1d1" stroke-miterlimit="10" stroke-width="2"/>
        <path id="Path_6824" data-name="Path 6824" d="M671.188,549.112,140.57,245.648Z" transform="translate(-284.332 119.111) rotate(-29.5)" fill="none" stroke="#d1d1d1" stroke-miterlimit="10" stroke-width="2"/>
      </g>
      <circle id="Ellipse_285" data-name="Ellipse 285" cx="118.505" cy="118.505" r="118.505" transform="translate(187.22 188.423)" fill="#f9f9f9" stroke="#d1d1d1" stroke-miterlimit="10" stroke-width="1"/>
      <circle id="Ellipse_286" data-name="Ellipse 286" cx="6.554" cy="6.554" r="6.554" transform="translate(298.938 151.252)" fill="#d1d1d1"/>
      <circle id="Ellipse_291" data-name="Ellipse 291" cx="6.554" cy="6.554" r="6.554" transform="translate(166.982 72.603)" fill="#d1d1d1"/>
      <circle id="Ellipse_292" data-name="Ellipse 292" cx="6.554" cy="6.554" r="6.554" transform="translate(93.576 181.838)" fill="#d1d1d1"/>
      <circle id="Ellipse_293" data-name="Ellipse 293" cx="6.554" cy="6.554" r="6.554" transform="translate(142.513 298.065)" fill="#d1d1d1"/>
      <circle id="Ellipse_294" data-name="Ellipse 294" cx="6.554" cy="6.554" r="6.554" transform="translate(49.007 444.004)" fill="#d1d1d1"/>
      <circle id="Ellipse_295" data-name="Ellipse 295" cx="6.554" cy="6.554" r="6.554" transform="translate(182.712 499.932)" fill="#d1d1d1"/>
      <circle id="Ellipse_296" data-name="Ellipse 296" cx="6.554" cy="6.554" r="6.554" transform="translate(299.812 499.932)" fill="#d1d1d1"/>
      <circle id="Ellipse_297" data-name="Ellipse 297" cx="6.554" cy="6.554" r="6.554" transform="translate(422.156 510.419)" fill="#d1d1d1"/>
      <circle id="Ellipse_287" data-name="Ellipse 287" cx="6.554" cy="6.554" r="6.554" transform="translate(401.183 119.793)" fill="#d1d1d1"/>
      <circle id="Ellipse_288" data-name="Ellipse 288" cx="6.554" cy="6.554" r="6.554" transform="translate(432.643 220.289)" fill="#d1d1d1"/>
      <circle id="Ellipse_289" data-name="Ellipse 289" cx="6.554" cy="6.554" r="6.554" transform="translate(598.681 298.939)" fill="#d1d1d1"/>
      <circle id="Ellipse_290" data-name="Ellipse 290" cx="6.554" cy="6.554" r="6.554" transform="translate(485.95 406.427)" fill="#d1d1d1"/>
      <text id="_2" data-name="2" transform="translate(432.643 208.568)" font-size="12" font-family="SegoeUI, Segoe UI" letter-spacing="0.01em"><tspan x="0" y="0">2</tspan></text>
      <text id="_2.5" data-name="2.5" transform="translate(374.092 125.928)" font-size="15" font-family="SegoeUI, Segoe UI" letter-spacing="0.01em"><tspan x="0" y="0">2.5</tspan></text>
      <text id="_0.5" data-name="0.5" transform="translate(275.344 163.505)" font-size="15" font-family="SegoeUI, Segoe UI" letter-spacing="0.01em"><tspan x="0" y="0">0.5</tspan></text>
      <text id="_4" data-name="4" transform="translate(153 82.855)" font-size="13" font-family="SegoeUI, Segoe UI" letter-spacing="0.01em"><tspan x="0" y="0">4</tspan></text>
      <text id="_3.6" data-name="3.6" transform="translate(84.837 207.947)" font-size="14" font-family="SegoeUI, Segoe UI" letter-spacing="0.01em"><tspan x="0" y="0">3.6</tspan></text>
      <text id="_1.5" data-name="1.5" transform="translate(139.891 321.552)" font-size="14" font-family="SegoeUI, Segoe UI" letter-spacing="0.01em"><tspan x="0" y="0">1.5</tspan></text>
      <text id="_5.3" data-name="5.3" transform="translate(46.386 471.112)" font-size="15" font-family="SegoeUI, Segoe UI" letter-spacing="0.01em"><tspan x="0" y="0">5.3</tspan></text>
      <text id="_4.3" data-name="4.3" transform="translate(187.081 526.041)" font-size="14" font-family="SegoeUI, Segoe UI" letter-spacing="0.01em"><tspan x="0" y="0">4.3</tspan></text>
      <text id="_2.3" data-name="2.3" transform="translate(317.29 509.437)" font-size="14" font-family="SegoeUI, Segoe UI" letter-spacing="0.01em"><tspan x="0" y="0">2.3</tspan></text>
      <text id="_3.8" data-name="3.8" transform="translate(439.634 519.923)" font-size="14" font-family="SegoeUI, Segoe UI" letter-spacing="0.01em"><tspan x="0" y="0">3.8</tspan></text>
      <text id="_5" data-name="5" transform="translate(601.302 290.092)" font-size="14" font-family="SegoeUI, Segoe UI" letter-spacing="0.01em"><tspan x="0" y="0">5</tspan></text>
      <text id="_3" data-name="3" transform="translate(492.941 398.327)" font-size="13" font-family="SegoeUI, Segoe UI" letter-spacing="0.01em"><tspan x="0" y="0">3</tspan></text>
      <g id="Group_5687" data-name="Group 5687" transform="translate(-431.532 -155.926)">
        <path id="Path_270" data-name="Path 270" d="M882.749,360.849l-41.986,73.033,3.881,2.47h81.5Z" transform="translate(-146.882 0)" fill="#876fbd"/>
        <path id="Path_271" data-name="Path 271" d="M686.825,708.09l-40.574,70.916H728.1Z" transform="translate(0 -262.211)" fill="#ea9d57"/>
        <path id="Path_272" data-name="Path 272" d="M1076,690.8l-42.69,75.15H1120.1Z" transform="translate(-292.276 -249.155)" fill="#f7e74f"/>
        <path id="Path_273" data-name="Path 273" d="M869.58,682.155l38.458,21.522,37.751-21.522Z" transform="translate(-168.642 -242.627)" fill="#c760a1"/>
        <path id="Path_274" data-name="Path 274" d="M883.988,736.906l29.283,17.288v33.518Z" transform="translate(-179.522 -283.972)" fill="#c486b1"/>
        <path id="Path_275" data-name="Path 275" d="M1025.19,730.9l10.584-12,27.52-16.582-38.1,68.094Z" transform="translate(-286.148 -257.859)" fill="#e6b2d6"/>
        <path id="Path_276" data-name="Path 276" d="M901.278,1026.513h25.05V1068.5Z" transform="translate(-192.579 -502.663)" fill="#bf2e4a"/>
        <path id="Path_277" data-name="Path 277" d="M1226.906,610.346l11.644,19.052,26.108-42.338Z" transform="translate(-438.469 -170.818)" fill="#7fdfee"/>
        <path id="Path_278" data-name="Path 278" d="M1162.069,565.447l12.348,22.581,38.811-22.581Z" transform="translate(-389.509 -154.498)" fill="#1f93c9"/>
        <path id="Path_279" data-name="Path 279" d="M1025.19,1026.513h24.344l-23.991,41.984Z" transform="translate(-286.148 -502.663)" fill="#e55757"/>
        <path id="Path_280" data-name="Path 280" d="M656.337,565.447h50.806l-12.349,22.581Z" transform="translate(-7.616 -154.498)" fill="#3aa589"/>
        <path id="Path_281" data-name="Path 281" d="M646.251,587.06,683.3,608.229l-12,21.169Z" transform="translate(0 -170.818)" fill="#1f9da3"/>
      </g>
    </g>
    <text id="Title_12_" data-name="Title 12 " transform="translate(886.31 175.078)" font-size="16" font-family="SegoeUI, Segoe UI" letter-spacing="0.01em"><tspan x="0" y="0">Title 12 </tspan></text>
    <text id="Title_01" data-name="Title 01" transform="translate(1066.311 227.078)" font-size="16" font-family="SegoeUI, Segoe UI" letter-spacing="0.01em"><tspan x="0" y="0">Title 01</tspan></text>
    <text id="Title_02" data-name="Title 02" transform="translate(1179.311 336.078)" font-size="15" font-family="SegoeUI, Segoe UI" letter-spacing="0.01em"><tspan x="0" y="0">Title 02</tspan></text>
    <text id="Title_03" data-name="Title 03" transform="translate(1223.311 491.078)" font-size="15" font-family="SegoeUI, Segoe UI" letter-spacing="0.01em"><tspan x="0" y="0">Title 03</tspan></text>
    <text id="Title_04" data-name="Title 04" transform="translate(1179.311 663.078)" font-size="15" font-family="SegoeUI, Segoe UI" letter-spacing="0.01em"><tspan x="0" y="0">Title 04</tspan></text>
    <text id="Title_05" data-name="Title 05" transform="translate(1066.311 777.078)" font-size="15" font-family="SegoeUI, Segoe UI" letter-spacing="0.01em"><tspan x="0" y="0">Title 05</tspan></text>
    <text id="Title_06" data-name="Title 06" transform="translate(882.31 821.078)" font-size="15" font-family="SegoeUI, Segoe UI" letter-spacing="0.01em"><tspan x="0" y="0">Title 06</tspan></text>
    <text id="Title_07" data-name="Title 07" transform="translate(691.31 761.078)" font-size="15" font-family="SegoeUI, Segoe UI" letter-spacing="0.01em"><tspan x="0" y="0">Title 07</tspan></text>
    <text id="Title_08" data-name="Title 08" transform="translate(577.31 647.078)" font-size="16" font-family="SegoeUI, Segoe UI" letter-spacing="0.01em"><tspan x="0" y="0">Title 08</tspan></text>
    <text id="Title_09" data-name="Title 09" transform="translate(542.31 491.078)" font-size="15" font-family="SegoeUI, Segoe UI" letter-spacing="0.01em"><tspan x="0" y="0">Title 09</tspan></text>
    <text id="Title_10" data-name="Title 10" transform="translate(584.31 338.078)" font-size="16" font-family="SegoeUI, Segoe UI" letter-spacing="0.01em"><tspan x="0" y="0">Title 10</tspan></text>
    <text id="Title_11" data-name="Title 11" transform="translate(717.31 212.078)" font-size="16" font-family="SegoeUI, Segoe UI" letter-spacing="0.01em"><tspan x="0" y="0">Title 11</tspan></text>
  </g>
</svg>
