<svg xmlns="http://www.w3.org/2000/svg" xmlns:xlink="http://www.w3.org/1999/xlink" width="15.845" height="15.845" viewBox="0 0 15.845 15.845">
  <defs>
    <linearGradient id="linear-gradient" x1="0.084" y1="0.916" x2="0.916" y2="0.084" gradientUnits="objectBoundingBox">
      <stop offset="0" stop-color="#ffd600"/>
      <stop offset="0.5" stop-color="#ff0100"/>
      <stop offset="1" stop-color="#d800b9"/>
    </linearGradient>
    <linearGradient id="linear-gradient-2" x1="0.146" y1="0.854" x2="0.854" y2="0.146" gradientUnits="objectBoundingBox">
      <stop offset="0" stop-color="#ff6400"/>
      <stop offset="0.5" stop-color="#ff0100"/>
      <stop offset="1" stop-color="#fd0056"/>
    </linearGradient>
    <linearGradient id="linear-gradient-3" x1="0.146" y1="0.854" x2="0.854" y2="0.146" gradientUnits="objectBoundingBox">
      <stop offset="0" stop-color="#f30072"/>
      <stop offset="1" stop-color="#e50097"/>
    </linearGradient>
  </defs>
  <g id="instagram-icon" transform="translate(0 0)">
    <path id="Path_3262" data-name="Path 3262" d="M15.8,4.656a5.816,5.816,0,0,0-.368-1.923,3.883,3.883,0,0,0-.914-1.4,3.884,3.884,0,0,0-1.4-.914A5.815,5.815,0,0,0,11.189.048C10.344.009,10.074,0,7.922,0S5.5.009,4.656.047A5.817,5.817,0,0,0,2.733.416a3.883,3.883,0,0,0-1.4.914,3.884,3.884,0,0,0-.914,1.4A5.816,5.816,0,0,0,.048,4.656C.009,5.5,0,5.771,0,7.922s.009,2.422.048,3.267a5.815,5.815,0,0,0,.368,1.923,3.882,3.882,0,0,0,.914,1.4,3.882,3.882,0,0,0,1.4.914,5.813,5.813,0,0,0,1.923.368c.845.039,1.115.048,3.266.048s2.422-.009,3.266-.048a5.814,5.814,0,0,0,1.923-.368,4.05,4.05,0,0,0,2.317-2.317,5.814,5.814,0,0,0,.368-1.923c.038-.845.048-1.115.048-3.266S15.836,5.5,15.8,4.656Zm-1.426,6.468a4.383,4.383,0,0,1-.273,1.471,2.624,2.624,0,0,1-1.5,1.5,4.383,4.383,0,0,1-1.471.273c-.835.038-1.086.046-3.2.046s-2.366-.008-3.2-.046A4.385,4.385,0,0,1,3.25,14.1a2.455,2.455,0,0,1-.911-.593,2.454,2.454,0,0,1-.593-.911,4.383,4.383,0,0,1-.273-1.471c-.038-.835-.046-1.086-.046-3.2s.008-2.366.046-3.2A4.387,4.387,0,0,1,1.746,3.25a2.456,2.456,0,0,1,.593-.911,2.453,2.453,0,0,1,.911-.593,4.383,4.383,0,0,1,1.471-.273c.835-.038,1.086-.046,3.2-.046h0c2.115,0,2.366.008,3.2.046a4.384,4.384,0,0,1,1.471.273,2.456,2.456,0,0,1,.911.593,2.453,2.453,0,0,1,.593.911,4.379,4.379,0,0,1,.273,1.471c.038.835.046,1.086.046,3.2s-.008,2.366-.046,3.2Zm0,0" fill="url(#linear-gradient)"/>
    <path id="Path_3263" data-name="Path 3263" d="M128.607,124.539a4.068,4.068,0,1,0,4.068,4.068A4.068,4.068,0,0,0,128.607,124.539Zm0,6.709a2.641,2.641,0,1,1,2.641-2.641A2.641,2.641,0,0,1,128.607,131.248Zm0,0" transform="translate(-120.685 -120.685)" fill="url(#linear-gradient-2)"/>
    <path id="Path_3264" data-name="Path 3264" d="M363.831,89.576a.951.951,0,1,1-.951-.951A.951.951,0,0,1,363.831,89.576Zm0,0" transform="translate(-350.729 -85.883)" fill="url(#linear-gradient-3)"/>
  </g>
</svg>
