<svg xmlns="http://www.w3.org/2000/svg" width="343.868" height="361.091" viewBox="0 0 343.868 361.091">
  <g id="login-footer-img" transform="translate(-16.16 -125.093)">
    <g id="Group_6130" data-name="Group 6130" transform="translate(16.16 125.093)">
      <g id="Group_6112" data-name="Group 6112" opacity="0.1">
        <circle id="Ellipse_302" data-name="Ellipse 302" cx="156.673" cy="156.673" r="156.673" fill="#876fbd"/>
      </g>
      <g id="Group_6129" data-name="Group 6129" transform="translate(28.611 44.278)">
        <g id="Group_6115" data-name="Group 6115" transform="translate(234.005 158.434)">
          <g id="Group_6113" data-name="Group 6113" transform="translate(3.188)">
            <path id="Path_3148" data-name="Path 3148" d="M359.743,241.4a.612.612,0,0,1-.612-.612v-6.377a.611.611,0,0,1,1.223,0v6.377A.611.611,0,0,1,359.743,241.4Z" transform="translate(-359.131 -233.805)" fill="#2d3962"/>
          </g>
          <g id="Group_6114" data-name="Group 6114" transform="translate(0 3.188)">
            <path id="Path_3149" data-name="Path 3149" d="M362.931,238.217h-6.377a.612.612,0,0,1,0-1.224h6.377a.612.612,0,0,1,0,1.224Z" transform="translate(-355.943 -236.993)" fill="#2d3962"/>
          </g>
        </g>
        <g id="Group_6116" data-name="Group 6116" transform="translate(183.214)">
          <path id="Path_3150" data-name="Path 3150" d="M307.441,79.952a2.291,2.291,0,1,1,2.29-2.291A2.292,2.292,0,0,1,307.441,79.952Zm0-3.357a1.066,1.066,0,1,0,1.067,1.066A1.067,1.067,0,0,0,307.441,76.6Z" transform="translate(-305.152 -75.371)" fill="#2d3962"/>
        </g>
        <g id="Group_6119" data-name="Group 6119" transform="translate(53.238 5.584)">
          <g id="Group_6117" data-name="Group 6117" transform="translate(3.189)">
            <path id="Path_3151" data-name="Path 3151" d="M178.977,88.556a.612.612,0,0,1-.612-.612V81.567a.611.611,0,1,1,1.223,0v6.377A.611.611,0,0,1,178.977,88.556Z" transform="translate(-178.365 -80.955)" fill="#2d3962"/>
          </g>
          <g id="Group_6118" data-name="Group 6118" transform="translate(0 3.189)">
            <path id="Path_3152" data-name="Path 3152" d="M182.165,85.368h-6.377a.612.612,0,0,1,0-1.224h6.377a.612.612,0,0,1,0,1.224Z" transform="translate(-175.176 -84.144)" fill="#2d3962"/>
          </g>
        </g>
        <g id="Group_6122" data-name="Group 6122" transform="translate(48.367 105.762)">
          <g id="Group_6120" data-name="Group 6120" transform="translate(3.189)">
            <path id="Path_3153" data-name="Path 3153" d="M174.106,188.733a.612.612,0,0,1-.612-.612v-6.376a.611.611,0,1,1,1.223,0v6.376A.612.612,0,0,1,174.106,188.733Z" transform="translate(-173.494 -181.133)" fill="#2d3962"/>
          </g>
          <g id="Group_6121" data-name="Group 6121" transform="translate(0 3.188)">
            <path id="Path_3154" data-name="Path 3154" d="M177.294,185.545h-6.377a.612.612,0,1,1,0-1.224h6.377a.612.612,0,0,1,0,1.224Z" transform="translate(-170.305 -184.321)" fill="#2d3962"/>
          </g>
        </g>
        <g id="Group_6123" data-name="Group 6123" transform="translate(204.017 97.636)">
          <path id="Path_3155" data-name="Path 3155" d="M328.245,177.588a2.29,2.29,0,1,1,2.29-2.29A2.293,2.293,0,0,1,328.245,177.588Zm0-3.357a1.067,1.067,0,1,0,1.067,1.067A1.068,1.068,0,0,0,328.245,174.231Z" transform="translate(-325.955 -173.007)" fill="#2d3962"/>
        </g>
        <g id="Group_6124" data-name="Group 6124" transform="translate(10.671 171.754)">
          <path id="Path_3156" data-name="Path 3156" d="M134.9,251.705a2.29,2.29,0,1,1,2.29-2.289A2.292,2.292,0,0,1,134.9,251.705Zm0-3.356a1.066,1.066,0,1,0,1.066,1.067A1.068,1.068,0,0,0,134.9,248.349Z" transform="translate(-132.609 -247.125)" fill="#2d3962"/>
        </g>
        <g id="Group_6125" data-name="Group 6125" transform="translate(0 79.651)">
          <path id="Path_3157" data-name="Path 3157" d="M124.228,159.6a2.29,2.29,0,1,1,2.291-2.29A2.292,2.292,0,0,1,124.228,159.6Zm0-3.357a1.067,1.067,0,1,0,1.067,1.067A1.069,1.069,0,0,0,124.228,156.245Z" transform="translate(-121.938 -155.022)" fill="#2d3962"/>
        </g>
        <g id="Group_6128" data-name="Group 6128" transform="translate(235.267 52.47)">
          <g id="Group_6126" data-name="Group 6126" transform="translate(3.188)">
            <path id="Path_3158" data-name="Path 3158" d="M361,135.442a.612.612,0,0,1-.611-.612v-6.377a.611.611,0,1,1,1.223,0v6.377A.612.612,0,0,1,361,135.442Z" transform="translate(-360.393 -127.841)" fill="#2d3962"/>
          </g>
          <g id="Group_6127" data-name="Group 6127" transform="translate(0 3.189)">
            <path id="Path_3159" data-name="Path 3159" d="M364.193,132.253h-6.377a.612.612,0,0,1,0-1.223h6.377a.612.612,0,0,1,0,1.223Z" transform="translate(-357.205 -131.03)" fill="#2d3962"/>
          </g>
        </g>
      </g>
    </g>
    <g id="Group_6189" data-name="Group 6189" transform="translate(16.16 438.238)">
      <path id="Path_3207" data-name="Path 3207" d="M77.763,461.615l59.14-46.376H362.138l54.107,47.945Z" transform="translate(-77.763 -415.238)" fill="#876fbd" opacity="0.65"/>
    </g>
    <g id="Group_6188" data-name="Group 6188" transform="translate(49.135 191.339)">
      <g id="Group_6131" data-name="Group 6131" transform="translate(0 202.191)">
        <path id="Path_3160" data-name="Path 3160" d="M215.528,277.53s-62.435,12.257-84.809,41.976c-4.242,5.634-5.314,12.956-4.312,20,5.118,35.991,121.271,1.46,121.271,1.46s117.6,35.364,125.408-3.431c1.473-7.324,1.244-16.257-2.279-22.028-15.263-25.01-79.22-37.5-79.22-37.5Z" transform="translate(-126.058 -277.53)" fill="#00213d"/>
      </g>
      <g id="Group_6132" data-name="Group 6132" transform="translate(83.584 18.604)">
        <path id="Path_3161" data-name="Path 3161" d="M290.107,160.722s.807-29.7-.906-37.594c-3.819-17.606-20.174-30.187-42.731-29.122s-33.7,12.753-36.24,30.61c-1.083,7.61-.337,37.176-.337,37.176C209.235,168.8,291.348,167.579,290.107,160.722Z" transform="translate(-209.643 -93.943)" fill="#2d3962"/>
      </g>
      <g id="Group_6133" data-name="Group 6133" transform="translate(59.651 100.467)">
        <path id="Path_3162" data-name="Path 3162" d="M234.048,177.669c17.922-2.37,17.981-2.981,36.733,1.187,17.751,3.945,38.439,23.217,43.776,41.728-7.087,2.923-20.491,9.685-20.491,9.685s2.51,47.2,1.431,48.608c-1.491,1.946-63.2,4.33-87.143-.833,1.477-16.2,2.139-46.825,2.139-46.825s-24.385-10.18-24.777-11.422C185.278,218.412,206.548,181.307,234.048,177.669Z" transform="translate(-185.709 -175.806)" fill="#ffc300"/>
      </g>
      <g id="Group_6135" data-name="Group 6135" transform="translate(82.296 169.619)" opacity="0.09">
        <g id="Group_6134" data-name="Group 6134">
          <path id="Path_3163" data-name="Path 3163" d="M294.789,244.958c.644,13.984,1.387,33.034.708,33.919-1.491,1.946-63.2,4.33-87.143-.833,0,0,40.734-5.186,58.473-14.9S294.789,244.958,294.789,244.958Z" transform="translate(-208.354 -244.958)" fill="#2d3962"/>
        </g>
      </g>
      <g id="Group_6156" data-name="Group 6156" transform="translate(79.226 21.72)">
        <g id="Group_6136" data-name="Group 6136" transform="translate(10.461 8.559)">
          <path id="Path_3164" data-name="Path 3164" d="M280.663,118.873a15.189,15.189,0,0,0-15.818-13.237l-34.2,1.654a15.207,15.207,0,0,0-14.452,14.4l-.032.607c-.017.321-.045.642-.081.961-.495,4.389-3.62,40.239,25.413,46.684l-.582,7.88,10.347.57,10.26-.875-.885-7.7C282.711,163.944,282.845,136.1,280.663,118.873Z" transform="translate(-215.746 -105.618)" fill="#f4d1bb"/>
        </g>
        <g id="Group_6137" data-name="Group 6137" transform="translate(35.631 58.601)" opacity="0.25">
          <path id="Path_3165" data-name="Path 3165" d="M277.249,155.66c-3.142,6.663-8.334,11.954-16.612,14.155l.885,7.7-10.26.875-10.347-.57s15.257-8.362,20.245-11.012C266.11,164.178,277.249,155.66,277.249,155.66Z" transform="translate(-240.915 -155.66)" fill="#d1aa95"/>
        </g>
        <g id="Group_6138" data-name="Group 6138" transform="translate(33.031 39.172)">
          <path id="Path_3166" data-name="Path 3166" d="M241.79,140.4h-.065a3.473,3.473,0,0,1-3.409-3.535.643.643,0,1,1,1.286.023,2.187,2.187,0,0,0,2.147,2.226,2.284,2.284,0,0,0,1.557-.613,2.166,2.166,0,0,0,.668-1.534.643.643,0,1,1,1.286.023,3.472,3.472,0,0,1-3.47,3.41Z" transform="translate(-238.315 -136.231)" fill="#2d3962"/>
        </g>
        <g id="Group_6139" data-name="Group 6139" transform="translate(49.826 39.172)">
          <path id="Path_3167" data-name="Path 3167" d="M258.585,140.4h-.064a3.478,3.478,0,0,1-3.41-3.535.693.693,0,0,1,.655-.632.644.644,0,0,1,.632.655,2.187,2.187,0,0,0,2.147,2.226,2.217,2.217,0,0,0,2.225-2.147.679.679,0,0,1,.655-.632.644.644,0,0,1,.632.655A3.477,3.477,0,0,1,258.585,140.4Z" transform="translate(-255.11 -136.231)" fill="#2d3962"/>
        </g>
        <g id="Group_6140" data-name="Group 6140" transform="translate(40.235 50.446)">
          <path id="Path_3168" data-name="Path 3168" d="M249.918,150.23a8.307,8.307,0,0,1-4.073-1.023.643.643,0,0,1,.635-1.119,7.145,7.145,0,0,0,4.087.828,7.309,7.309,0,0,0,3.641-1.289.644.644,0,0,1,.754,1.043,8.515,8.515,0,0,1-4.289,1.529Q250.293,150.23,249.918,150.23Z" transform="translate(-245.519 -147.506)" fill="#2d3962"/>
        </g>
        <g id="Group_6145" data-name="Group 6145" transform="translate(0 38.891)">
          <g id="Group_6141" data-name="Group 6141">
            <path id="Path_3169" data-name="Path 3169" d="M218.012,136.638c-3.233-.61-9.325-1.611-11.612,1.169a5.421,5.421,0,0,0,1.3,7.77c4.173,2.97,11.008,3.13,13.064,3.313" transform="translate(-205.284 -135.95)" fill="#f4d1bb"/>
          </g>
          <g id="Group_6144" data-name="Group 6144" transform="translate(2.981 2.812)">
            <g id="Group_6142" data-name="Group 6142">
              <path id="Path_3170" data-name="Path 3170" d="M208.909,141.065a.644.644,0,0,1-.337-1.192,6.5,6.5,0,0,1,5.036-.953.643.643,0,0,1-.374,1.231,5.249,5.249,0,0,0-3.988.818A.646.646,0,0,1,208.909,141.065Z" transform="translate(-208.266 -138.763)" fill="#2d3962"/>
            </g>
            <g id="Group_6143" data-name="Group 6143" transform="translate(1.741 0.866)">
              <path id="Path_3171" data-name="Path 3171" d="M212.661,143.719a.64.64,0,0,1-.456-.19,15.69,15.69,0,0,1-2.11-2.932.643.643,0,1,1,1.11-.65,14.877,14.877,0,0,0,1.913,2.676.643.643,0,0,1-.457,1.1Z" transform="translate(-210.007 -139.628)" fill="#2d3962"/>
            </g>
          </g>
        </g>
        <g id="Group_6146" data-name="Group 6146" transform="translate(6.508)">
          <path id="Path_3172" data-name="Path 3172" d="M235.949,131.874q1.895-.052,3.967-.126,1.864-.066,3.881-.149,2.136-.089,4.45-.2c21.129-1,33.434-3.227,37.12-3.983a1.235,1.235,0,0,0,.862-1.551c-5.047-19.172-21.3-29.641-40.016-28.757-18.667.881-31.121,13.031-34.4,32.514a1.629,1.629,0,0,0,1.213,1.9c2.023.384,4.137.6,15.045.5l3.511-9.653Z" transform="translate(-211.793 -97.059)" fill="#2d3962"/>
        </g>
        <g id="Group_6147" data-name="Group 6147" transform="translate(34.988 79.813)">
          <path id="Path_3173" data-name="Path 3173" d="M250.538,179.193a60.029,60.029,0,0,1-9.74-.74.643.643,0,0,1,.234-1.265,60.706,60.706,0,0,0,20.362-.3.643.643,0,1,1,.256,1.26A56.506,56.506,0,0,1,250.538,179.193Z" transform="translate(-240.272 -176.872)" fill="#2d3962"/>
        </g>
        <g id="Group_6148" data-name="Group 6148" transform="translate(48.498 65.186)">
          <path id="Path_3174" data-name="Path 3174" d="M254.424,171.788a.643.643,0,0,1-.032-1.286c4.58-.235,13.075-1.591,18.514-8.028a.643.643,0,1,1,.982.83c-5.751,6.808-14.641,8.237-19.429,8.483Z" transform="translate(-253.782 -162.245)" fill="#2d3962"/>
        </g>
        <g id="Group_6153" data-name="Group 6153" transform="translate(70.944 38.428)">
          <g id="Group_6149" data-name="Group 6149">
            <path id="Path_3175" data-name="Path 3175" d="M278.62,136.36c3.214-.705,9.273-1.887,11.642.824a5.422,5.422,0,0,1-1.074,7.806c-4.083,3.092-10.91,3.455-12.96,3.7" transform="translate(-276.228 -135.488)" fill="#f4d1bb"/>
          </g>
          <g id="Group_6152" data-name="Group 6152" transform="translate(6.425 2.825)">
            <g id="Group_6150" data-name="Group 6150">
              <path id="Path_3176" data-name="Path 3176" d="M287.831,140.515a.646.646,0,0,1-.321-.085,5.25,5.25,0,0,0-4.006-.7.643.643,0,1,1-.415-1.218,6.506,6.506,0,0,1,5.064.8.644.644,0,0,1-.322,1.2Z" transform="translate(-282.653 -138.312)" fill="#2d3962"/>
            </g>
            <g id="Group_6151" data-name="Group 6151" transform="translate(0.864 0.818)">
              <path id="Path_3177" data-name="Path 3177" d="M284.161,143.28a.643.643,0,0,1-.472-1.081,14.873,14.873,0,0,0,1.833-2.733.643.643,0,0,1,1.129.617,15.688,15.688,0,0,1-2.022,2.994A.638.638,0,0,1,284.161,143.28Z" transform="translate(-283.517 -139.131)" fill="#2d3962"/>
            </g>
          </g>
        </g>
        <g id="Group_6154" data-name="Group 6154" transform="translate(53.411 46.678)" opacity="0.42">
          <path id="Path_3178" data-name="Path 3178" d="M264.72,146.75a3.012,3.012,0,1,1-3.012-3.013A3.012,3.012,0,0,1,264.72,146.75Z" transform="translate(-258.695 -143.737)" fill="#e5899d"/>
        </g>
        <g id="Group_6155" data-name="Group 6155" transform="translate(31.743 46.693)" opacity="0.42">
          <path id="Path_3179" data-name="Path 3179" d="M243.053,146.765a3.013,3.013,0,1,1-3.013-3.013A3.013,3.013,0,0,1,243.053,146.765Z" transform="translate(-237.027 -143.752)" fill="#e5899d"/>
        </g>
      </g>
      <g id="Group_6157" data-name="Group 6157" transform="translate(49.021 134.018)">
        <path id="Path_3180" data-name="Path 3180" d="M190.168,219.059s-23.654,35.742-11.729,49.3c10.336,11.753,60.531-19.664,71.494-27.187a4.108,4.108,0,0,0,1.869-3.244c.21-6.767.8-28.431-.226-28.546-8.735-.979-11.312,24.068-11.312,24.068l-39.14,15.89,9.988-21.32Z" transform="translate(-175.079 -209.357)" fill="#f4d1bb"/>
      </g>
      <g id="Group_6158" data-name="Group 6158" transform="translate(49.035 183.437)" opacity="0.25">
        <path id="Path_3181" data-name="Path 3181" d="M206.338,265.446c-12.4,5.224-23.6,7.8-27.9,2.916a14.864,14.864,0,0,1-3.346-9.586s8.279,3.592,13.547,4.762S206.338,265.446,206.338,265.446Z" transform="translate(-175.093 -258.776)" fill="#d1aa95"/>
      </g>
      <g id="Group_6159" data-name="Group 6159" transform="translate(125.979 133.86)">
        <path id="Path_3182" data-name="Path 3182" d="M311.844,218.472s19.891,34.671,8.7,49.749c-9.672,13.033-55.854-19.629-66.439-27.2a4.136,4.136,0,0,1-1.8-3.252c-.176-6.767-.662-28.434.336-28.545,8.463-.941,10.855,24.116,10.855,24.116L301.34,249.4l-8.715-23.88Z" transform="translate(-252.037 -209.199)" fill="#f4d1bb"/>
      </g>
      <g id="Group_6160" data-name="Group 6160" transform="translate(168.272 177.727)" opacity="0.25">
        <path id="Path_3183" data-name="Path 3183" d="M323.838,253.066c.46,5.757-.318,11.148-3.292,15.155-4.068,5.481-14.6,2.879-26.216-2.54,0,0,14.162,1.059,22.843-3.422C322.637,259.439,323.838,253.066,323.838,253.066Z" transform="translate(-294.33 -253.066)" fill="#d1aa95"/>
      </g>
      <g id="Group_6161" data-name="Group 6161" transform="translate(57.996 102.33)">
        <path id="Path_3184" data-name="Path 3184" d="M210.071,234.023s-25.6-13.412-26.011-14.654c-.452-1.385,23.08-37,50.886-41.7Z" transform="translate(-184.054 -177.669)" fill="#ffc300"/>
      </g>
      <g id="Group_6162" data-name="Group 6162" transform="translate(144.723 103.517)">
        <path id="Path_3185" data-name="Path 3185" d="M293.6,235.488s17.557-11.528,25.092-16.406c-10.491-16.907-30.156-36.281-47.907-40.226Z" transform="translate(-270.781 -178.856)" fill="#ffc300"/>
      </g>
      <g id="Group_6163" data-name="Group 6163" transform="translate(61.72 230.852)">
        <path id="Path_3186" data-name="Path 3186" d="M238.639,334.881c-15.09-7.447-50.564-22.8-50.842-24.97a3.346,3.346,0,0,1,2.314-3.259,10.639,10.639,0,0,1,4.364-.423l22.567.941a59.5,59.5,0,0,1,10,.985c3.713.794,6.345,3.8,9.676,5.608,3.378,1.837,7.451,2.492,10.622,4.645Z" transform="translate(-187.778 -306.191)" fill="#f4d1bb"/>
      </g>
      <g id="Group_6165" data-name="Group 6165" transform="translate(61.72 230.852)" opacity="0.25">
        <g id="Group_6164" data-name="Group 6164">
          <path id="Path_3187" data-name="Path 3187" d="M241.426,329.6l-2.787,5.277c-15.09-7.447-50.564-22.8-50.842-24.97a3.346,3.346,0,0,1,2.314-3.259,10.639,10.639,0,0,1,4.364-.423s9.388,2.3,11.956,4.866,15.973,4.849,21.393,7.416S241.426,329.6,241.426,329.6Z" transform="translate(-187.778 -306.191)" fill="#d1aa95"/>
        </g>
      </g>
      <g id="Group_6166" data-name="Group 6166" transform="translate(147.873 243.967)">
        <path id="Path_3188" data-name="Path 3188" d="M337,324.419a.418.418,0,0,1-.061,0c-14.608-1.739-62.054-4.085-62.531-4.108a.5.5,0,0,1-.475-.524.488.488,0,0,1,.524-.474c.478.023,47.958,2.37,62.6,4.114a.5.5,0,0,1-.058,1Z" transform="translate(-273.931 -319.307)" fill="#fff"/>
      </g>
      <g id="Group_6167" data-name="Group 6167" transform="translate(114.668 239.743)">
        <path id="Path_3189" data-name="Path 3189" d="M243.376,336.429c16.716-1.935,55.286-4.449,56.279-6.4a3.345,3.345,0,0,0-1.081-3.848,10.665,10.665,0,0,0-3.968-1.866L273.039,317.6a59.615,59.615,0,0,0-9.748-2.439c-3.764-.5-7.252,1.441-11,2.025-3.8.593-7.855-.161-11.566.8Z" transform="translate(-240.726 -315.082)" fill="#f4d1bb"/>
      </g>
      <g id="Group_6169" data-name="Group 6169" transform="translate(116.36 250.839)" opacity="0.25">
        <g id="Group_6168" data-name="Group 6168">
          <path id="Path_3190" data-name="Path 3190" d="M298.574,326.178a3.345,3.345,0,0,1,1.081,3.848c-.993,1.954-39.563,4.468-56.279,6.4l-.958-6.664s10.846-2.037,14.1-1.882,18.3.776,22.648-.465S298.574,326.178,298.574,326.178Z" transform="translate(-242.418 -326.178)" fill="#d1aa95"/>
        </g>
      </g>
      <g id="Group_6170" data-name="Group 6170" transform="translate(49.251 238.41)">
        <path id="Path_3191" data-name="Path 3191" d="M175.309,318.283s34.574-6.653,68.9-3.841c5.857.48,3.2,26.91,3.2,26.91S223,348.179,183.57,350.739" transform="translate(-175.309 -313.749)" fill="#00213d"/>
      </g>
      <g id="Group_6171" data-name="Group 6171" transform="translate(37.831 237.811)">
        <path id="Path_3192" data-name="Path 3192" d="M247.314,341.845l-.047,0a.5.5,0,0,1-.451-.545c.02-.215,1.979-21.49-1.725-25.91a1.689,1.689,0,0,0-1.16-.683c-33.865-2.771-79,5.745-79.448,5.83a.5.5,0,1,1-.188-.982c.454-.086,45.715-8.631,79.718-5.844a2.669,2.669,0,0,1,1.844,1.036c3.97,4.739,2.039,25.754,1.954,26.647A.5.5,0,0,1,247.314,341.845Z" transform="translate(-163.889 -313.15)" fill="#fff"/>
      </g>
      <g id="Group_6172" data-name="Group 6172" transform="translate(109.282)">
        <path id="Path_3193" data-name="Path 3193" d="M239.355,95.128a8.618,8.618,0,0,1-3.918-6.188c-.709-5.581,2.341-13.89,13.419-13.593,9.144.245,12.264,5.689,12.224,10.591s-3.24,9.262-3.24,9.262Z" transform="translate(-235.34 -75.339)" fill="#2d3962"/>
      </g>
      <g id="Group_6173" data-name="Group 6173" transform="translate(109.19 16.757)">
        <path id="Path_3194" data-name="Path 3194" d="M259.815,97.636l-22.4.526a2,2,0,0,1-2.121-1.854l-.048-1.734a1.982,1.982,0,0,1,2.015-1.952l22.4-.525a2,2,0,0,1,2.121,1.853l.048,1.735A1.98,1.98,0,0,1,259.815,97.636Z" transform="translate(-235.248 -92.096)" fill="#6b8df2"/>
      </g>
      <g id="Group_6174" data-name="Group 6174" transform="translate(67.318 167.345)">
        <path id="Path_3195" data-name="Path 3195" d="M194.02,252.964a.643.643,0,0,1-.239-1.241l22.484-8.993a.643.643,0,1,1,.477,1.194l-22.484,8.994A.625.625,0,0,1,194.02,252.964Z" transform="translate(-193.376 -242.685)" fill="#2d3962"/>
      </g>
      <g id="Group_6175" data-name="Group 6175" transform="translate(161.108 167.682)">
        <path id="Path_3196" data-name="Path 3196" d="M308.182,252.9a.65.65,0,0,1-.25-.051l-20.373-8.6a.644.644,0,0,1,.5-1.186l20.373,8.6a.644.644,0,0,1-.25,1.237Z" transform="translate(-287.166 -243.021)" fill="#2d3962"/>
      </g>
      <g id="Group_6176" data-name="Group 6176" transform="translate(83.751 144.124)">
        <path id="Path_3197" data-name="Path 3197" d="M210.452,237.94h-.011a.643.643,0,0,1-.632-.654l.284-17.19a.611.611,0,0,1,.654-.632.643.643,0,0,1,.632.654l-.284,17.19A.642.642,0,0,1,210.452,237.94Z" transform="translate(-209.809 -219.463)" fill="#2d3962"/>
      </g>
      <g id="Group_6177" data-name="Group 6177" transform="translate(166.519 144.124)">
        <path id="Path_3198" data-name="Path 3198" d="M294.21,240.487a.644.644,0,0,1-.642-.611l-.99-19.737a.644.644,0,0,1,.61-.675.667.667,0,0,1,.675.611l.99,19.736a.644.644,0,0,1-.61.675Z" transform="translate(-292.577 -219.463)" fill="#2d3962"/>
      </g>
      <g id="Group_6178" data-name="Group 6178" transform="translate(88.62 118.015)" opacity="0.38">
        <circle id="Ellipse_303" data-name="Ellipse 303" cx="4.494" cy="4.494" r="4.494" fill="#fff"/>
      </g>
      <g id="Group_6179" data-name="Group 6179" transform="translate(112.523 109.98)" opacity="0.38">
        <path id="Path_3199" data-name="Path 3199" d="M247.57,189.814a4.495,4.495,0,1,1-4.494-4.495A4.494,4.494,0,0,1,247.57,189.814Z" transform="translate(-238.581 -185.319)" fill="#fff"/>
      </g>
      <g id="Group_6180" data-name="Group 6180" transform="translate(99.467 136.897)" opacity="0.38">
        <path id="Path_3200" data-name="Path 3200" d="M234.514,216.73a4.495,4.495,0,1,1-4.5-4.494A4.5,4.5,0,0,1,234.514,216.73Z" transform="translate(-225.525 -212.236)" fill="#fff"/>
      </g>
      <g id="Group_6181" data-name="Group 6181" transform="translate(142.653 117.814)" opacity="0.38">
        <path id="Path_3201" data-name="Path 3201" d="M277.7,197.648a4.495,4.495,0,1,1-4.494-4.495A4.494,4.494,0,0,1,277.7,197.648Z" transform="translate(-268.711 -193.153)" fill="#fff"/>
      </g>
      <g id="Group_6182" data-name="Group 6182" transform="translate(146.269 143.123)" opacity="0.38">
        <path id="Path_3202" data-name="Path 3202" d="M281.316,222.957a4.495,4.495,0,1,1-4.494-4.495A4.494,4.494,0,0,1,281.316,222.957Z" transform="translate(-272.327 -218.462)" fill="#fff"/>
      </g>
      <g id="Group_6183" data-name="Group 6183" transform="translate(119.152 174.86)" opacity="0.38">
        <circle id="Ellipse_304" data-name="Ellipse 304" cx="4.495" cy="4.495" r="4.495" fill="#fff"/>
      </g>
      <g id="Group_6184" data-name="Group 6184" transform="translate(143.457 188.319)" opacity="0.38">
        <path id="Path_3203" data-name="Path 3203" d="M278.5,268.152a4.494,4.494,0,1,1-4.495-4.494A4.5,4.5,0,0,1,278.5,268.152Z" transform="translate(-269.515 -263.658)" fill="#fff"/>
      </g>
      <g id="Group_6185" data-name="Group 6185" transform="translate(98.864 191.131)" opacity="0.38">
        <path id="Path_3204" data-name="Path 3204" d="M233.911,270.964a4.494,4.494,0,1,1-4.494-4.494A4.494,4.494,0,0,1,233.911,270.964Z" transform="translate(-224.922 -266.47)" fill="#fff"/>
      </g>
      <g id="Group_6186" data-name="Group 6186" transform="translate(67.328 134.888)" opacity="0.38">
        <path id="Path_3205" data-name="Path 3205" d="M202.375,214.721a4.494,4.494,0,1,1-4.495-4.494A4.494,4.494,0,0,1,202.375,214.721Z" transform="translate(-193.386 -210.227)" fill="#fff"/>
      </g>
      <g id="Group_6187" data-name="Group 6187" transform="translate(168.766 129.063)" opacity="0.38">
        <path id="Path_3206" data-name="Path 3206" d="M303.813,208.9a4.494,4.494,0,1,1-4.494-4.494A4.495,4.495,0,0,1,303.813,208.9Z" transform="translate(-294.824 -204.402)" fill="#fff"/>
      </g>
    </g>
    <g id="Group_6192" data-name="Group 6192" transform="translate(187.988 457.347)">
      <g id="Group_6190" data-name="Group 6190" opacity="0.31">
        <path id="Path_3208" data-name="Path 3208" d="M383.7,434.347l32.542,28.836-138.927-.644s64.158-6.525,78.415-12.069S383.7,434.347,383.7,434.347Z" transform="translate(-277.318 -434.347)" fill="#876fbd" opacity="0.65"/>
      </g>
    </g>
    <g id="Group_6250" data-name="Group 6250" transform="translate(16.16 394.346)">
      <g id="Group_6239" data-name="Group 6239" transform="translate(0 14.357)" opacity="0.7">
        <circle id="Ellipse_306" data-name="Ellipse 306" cx="1.958" cy="1.958" r="1.958" fill="#dbdbdb"/>
      </g>
      <g id="Group_6240" data-name="Group 6240" transform="translate(88.097 7.178)" opacity="0.7">
        <path id="Path_3244" data-name="Path 3244" d="M108.172,403.482a1.957,1.957,0,1,1-1.957-1.958A1.958,1.958,0,0,1,108.172,403.482Z" transform="translate(-104.257 -401.524)" fill="#dbdbdb"/>
      </g>
      <g id="Group_6241" data-name="Group 6241" transform="translate(185.948 84.182)" opacity="0.7">
        <path id="Path_3245" data-name="Path 3245" d="M274.578,480.485a1.958,1.958,0,1,1-1.958-1.957A1.958,1.958,0,0,1,274.578,480.485Z" transform="translate(-270.662 -478.528)" fill="#dbdbdb"/>
      </g>
      <g id="Group_6242" data-name="Group 6242" transform="translate(271.295 6.526)" opacity="0.7">
        <circle id="Ellipse_307" data-name="Ellipse 307" cx="1.958" cy="1.958" r="1.958" fill="#dbdbdb"/>
      </g>
      <g id="Group_6243" data-name="Group 6243" transform="translate(339.953 22.188)" opacity="0.7">
        <circle id="Ellipse_308" data-name="Ellipse 308" cx="1.958" cy="1.958" r="1.958" fill="#dbdbdb"/>
      </g>
      <g id="Group_6244" data-name="Group 6244" transform="translate(254.607 79.614)" opacity="0.7">
        <path id="Path_3246" data-name="Path 3246" d="M368.548,475.917a1.958,1.958,0,1,1-1.958-1.957A1.957,1.957,0,0,1,368.548,475.917Z" transform="translate(-364.633 -473.96)" fill="#dbdbdb"/>
      </g>
      <g id="Group_6245" data-name="Group 6245" transform="translate(321.028 77.003)" opacity="0.7">
        <path id="Path_3247" data-name="Path 3247" d="M466.434,473.307a1.958,1.958,0,1,1-1.958-1.958A1.958,1.958,0,0,1,466.434,473.307Z" transform="translate(-462.518 -471.349)" fill="#dbdbdb"/>
      </g>
      <g id="Group_6246" data-name="Group 6246" transform="translate(132.549)" opacity="0.7">
        <path id="Path_3248" data-name="Path 3248" d="M201.49,396.3a1.958,1.958,0,1,1-1.958-1.958A1.958,1.958,0,0,1,201.49,396.3Z" transform="translate(-197.575 -394.346)" fill="#dbdbdb"/>
      </g>
      <g id="Group_6247" data-name="Group 6247" transform="translate(193.69 9.178)" opacity="0.7">
        <path id="Path_3249" data-name="Path 3249" d="M285.172,405.482a1.958,1.958,0,1,1-1.957-1.958A1.958,1.958,0,0,1,285.172,405.482Z" transform="translate(-281.257 -403.524)" fill="#dbdbdb"/>
      </g>
      <g id="Group_6248" data-name="Group 6248" transform="translate(37.196 54.816)" opacity="0.7">
        <path id="Path_3250" data-name="Path 3250" d="M57.272,451.12a1.958,1.958,0,1,1-1.958-1.958A1.958,1.958,0,0,1,57.272,451.12Z" transform="translate(-53.356 -449.162)" fill="#dbdbdb"/>
      </g>
      <g id="Group_6249" data-name="Group 6249" transform="translate(7.178 85.487)" opacity="0.7">
        <circle id="Ellipse_309" data-name="Ellipse 309" cx="1.958" cy="1.958" r="1.958" fill="#dbdbdb"/>
      </g>
    </g>
  </g>
</svg>
