<svg xmlns="http://www.w3.org/2000/svg" xmlns:xlink="http://www.w3.org/1999/xlink" width="208" height="181" viewBox="0 0 208 181">
  <defs>
    <linearGradient id="linear-gradient" x1="0.46" y1="0.042" x2="0.5" y2="1" gradientUnits="objectBoundingBox">
      <stop offset="0" stop-color="#f0f5fd"/>
      <stop offset="1" stop-color="#fff" stop-opacity="0"/>
    </linearGradient>
  </defs>
  <g id="no-download-right-now-img" transform="translate(-1049 -522)">
    <ellipse id="Ellipse_338" data-name="Ellipse 338" cx="104" cy="90.5" rx="104" ry="90.5" transform="translate(1049 522)" fill="url(#linear-gradient)"/>
    <g id="ringing" transform="translate(1104.344 587.334) rotate(-16)">
      <path id="Path_48311" data-name="Path 48311" d="M76.332,42.332c-8.288-12.691-7.407-25.7-11.4-31.816S49.028-6.146,20.9,12.229-.081,50.58,4.315,57.306C24.889,88.8,91.012,64.808,76.332,42.332Z" transform="translate(0 0)" fill="#efefef"/>
      <g id="Group_6916" data-name="Group 6916" transform="translate(57.402 54.499)">
        <path id="Path_48312" data-name="Path 48312" d="M0,0H2.191V4.383H0Z" transform="translate(9.298 10.474) rotate(-45)" fill="#a4afc1"/>
        <path id="Path_48313" data-name="Path 48313" d="M0,0H4.383V2.191H0Z" transform="translate(0 12.008) rotate(-45)" fill="#a4afc1"/>
        <path id="Path_48314" data-name="Path 48314" d="M0,0H4.383V2.191H0Z" transform="translate(8.911 3.099) rotate(-45)" fill="#a4afc1"/>
      </g>
      <g id="Icon_feather-arrow-down-circle" data-name="Icon feather-arrow-down-circle" transform="translate(25.567 18.427) rotate(16)">
        <path id="Path_48319" data-name="Path 48319" d="M33,18A15,15,0,1,1,18,3,15,15,0,0,1,33,18Z" fill="none" stroke="#000" stroke-linecap="round" stroke-linejoin="round" stroke-width="2"/>
        <path id="Path_48320" data-name="Path 48320" d="M12,18l6,6,6-6" fill="none" stroke="#000" stroke-linecap="round" stroke-linejoin="round" stroke-width="2"/>
        <path id="Path_48321" data-name="Path 48321" d="M18,12V24" fill="none" stroke="#000" stroke-linecap="round" stroke-linejoin="round" stroke-width="2"/>
      </g>
    </g>
  </g>
</svg>
