<svg xmlns="http://www.w3.org/2000/svg" xmlns:xlink="http://www.w3.org/1999/xlink" width="566.998" height="425.656" viewBox="0 0 566.998 425.656">
  <defs>
    <linearGradient id="linear-gradient" x1="-1.107" y1="-0.227" x2="-1.107" y2="0.559" gradientUnits="objectBoundingBox">
      <stop offset="0" stop-color="#e5e5e5"/>
      <stop offset="0.476" stop-color="#f3f3f3"/>
      <stop offset="1" stop-color="#fff"/>
    </linearGradient>
    <linearGradient id="linear-gradient-2" x1="-2.864" y1="3.923" x2="-2.412" y2="4.303" gradientUnits="objectBoundingBox">
      <stop offset="0" stop-color="#4e9cff"/>
      <stop offset="0.193" stop-color="#4090f4"/>
      <stop offset="0.709" stop-color="#2274dc"/>
      <stop offset="1" stop-color="#176ad4"/>
    </linearGradient>
    <linearGradient id="linear-gradient-3" x1="-177.657" y1="75.077" x2="-178" y2="76.69" gradientUnits="objectBoundingBox">
      <stop offset="0" stop-color="#510394"/>
      <stop offset="0.143" stop-color="#4a0387"/>
      <stop offset="0.403" stop-color="#370367"/>
      <stop offset="0.748" stop-color="#1a0332"/>
      <stop offset="1" stop-color="#030408"/>
    </linearGradient>
    <linearGradient id="linear-gradient-4" x1="-0.059" y1="0.434" x2="0.699" y2="1.012" xlink:href="#linear-gradient-2"/>
    <linearGradient id="linear-gradient-5" x1="-1.302" y1="2.207" x2="-0.318" y2="2.049" gradientUnits="objectBoundingBox">
      <stop offset="0" stop-color="#a50404"/>
      <stop offset="1" stop-color="#e64d4e"/>
    </linearGradient>
    <linearGradient id="linear-gradient-6" x1="0.069" y1="1.696" x2="0.467" y2="2.364" xlink:href="#linear-gradient-2"/>
    <linearGradient id="linear-gradient-7" x1="-0.429" y1="1.408" x2="0.307" y2="1.943" xlink:href="#linear-gradient-2"/>
  </defs>
  <g id="no-internet-available-img" transform="translate(-1064.267 -497.512)">
    <g id="Group_6857" data-name="Group 6857" transform="translate(1064.267 669.843)">
      <g id="Group_6855" data-name="Group 6855" transform="translate(76.662 0)">
        <path id="Path_24737" data-name="Path 24737" d="M1276.25,806.352c3.813,5.393.667,12.411-3.129,16.358-4.667,4.854-9.408,4.1-11.568,8.4-2.61,5.187,2.946,9,.049,14.424-1.78,3.332-4.223,2.538-7.762,6.768-4.312,5.153-.085,6.619-3.143,10.388-9.827,12.113-13.763,3.711-19.746,6.895-7.755,4.127-12.942,7.653-16.739,6.827-14.92-3.245-10.325-13.055-17.567-16.835-9.788-5.109-14.569-26.018-7.851-33.386,3.518-3.858,7-4.326,7.322-7.54.472-4.637-6.531-5.986-7.242-11.565-.806-6.327,7.589-9.391,6.339-14.735-1.219-5.21-9.835-5.023-10.388-8.744-.838-5.644,17.55-15.751,36.593-15.123,9.107.3,23.94,3.239,26.409,10.827,1.425,4.382-2.283,7.209-.193,12.869,1.52,4.116,4.881,6.418,9.334,9.383C1261.2,804.377,1269.5,796.811,1276.25,806.352Z" transform="translate(-1184.797 -768.454)" fill="#eee"/>
        <path id="Path_24738" data-name="Path 24738" d="M1243.887,822.477c3-.151,4.523,19.827,2.786,22.447s-5,4.553-5.221,7.412,1.06,53.529,2.117,52.8,9.831-14.011,8.079-17.1-3.737-7.872-3.326-11.914.415-9.8,1.547-9.658.183,10.057.97,11.979.924,3.427,2.054,3.46,1.155-10.458,2.88-10.274.553,15.645-.041,18.508-2.62,12.744-4.492,16.383-7.558,7.454-7.7,8.694.772,30.748.772,30.748l-14.9.27s5.5-58.183,4.276-60.119-9-17.656-10.665-19.261-2.661-11.4-1.782-11.544,1.366,9.413,3.193,9.568,2.811-18.485,4.135-18.32-1.285,19.338-.572,20.521,4.869,8.279,6.25,8.128-.759-52.33.425-52.917,2.074-.1,2.8,5.359,2.14,17.388,2.958,17.373,2.861-1.813,2.9-3.009S1242.554,822.543,1243.887,822.477Z" transform="translate(-1197.944 -787.974)" fill="#bdbdbd"/>
      </g>
      <g id="Group_6856" data-name="Group 6856" transform="translate(444.505 72.299)">
        <path id="Path_24739" data-name="Path 24739" d="M1764.107,903.581c-2.159,3.053-.378,7.026,1.771,9.261,2.642,2.748,5.327,2.324,6.55,4.755,1.478,2.937-1.668,5.1-.027,8.166,1.008,1.886,2.391,1.437,4.395,3.832,2.441,2.917.048,3.747,1.779,5.881,5.564,6.858,7.792,2.1,11.18,3.9,4.391,2.337,7.327,4.333,9.477,3.866,8.447-1.838,5.845-7.391,9.946-9.532,5.541-2.893,8.249-14.731,4.445-18.9-1.991-2.184-3.96-2.449-4.145-4.269-.268-2.625,3.7-3.389,4.1-6.547.457-3.582-4.3-5.317-3.589-8.342.69-2.95,5.569-2.844,5.881-4.95.474-3.2-9.936-8.918-20.718-8.562-5.156.17-13.554,1.834-14.951,6.13-.807,2.481,1.292,4.081.109,7.286-.861,2.33-2.764,3.634-5.285,5.312C1772.629,902.463,1767.926,898.179,1764.107,903.581Z" transform="translate(-1763.128 -882.124)" fill="#eee"/>
        <path id="Path_24740" data-name="Path 24740" d="M1801.033,912.71c-1.7-.085-2.561,11.225-1.577,12.709s2.834,2.578,2.956,4.2-.6,30.306-1.2,29.891-5.566-7.933-4.574-9.684,2.115-4.457,1.883-6.745-.235-5.548-.876-5.468-.1,5.694-.55,6.782-.522,1.94-1.162,1.959-.655-5.921-1.631-5.817-.313,8.858.023,10.478,1.484,7.215,2.543,9.275,4.279,4.22,4.358,4.922-.438,17.409-.438,17.409l8.436.153s-3.116-32.941-2.421-34.038,5.1-10,6.039-10.9,1.506-6.456,1.009-6.536-.773,5.329-1.808,5.417-1.591-10.465-2.341-10.373.728,10.949.324,11.618-2.756,4.688-3.538,4.6.43-29.628-.24-29.961-1.175-.057-1.587,3.035-1.212,9.845-1.674,9.836a2.532,2.532,0,0,1-1.644-1.7C1801.321,923.087,1801.788,912.748,1801.033,912.71Z" transform="translate(-1774.288 -893.176)" fill="#bdbdbd"/>
      </g>
      <ellipse id="Ellipse_346" data-name="Ellipse 346" cx="283.499" cy="59.997" rx="283.499" ry="59.997" transform="translate(0 133.332)" fill="url(#linear-gradient)"/>
    </g>
    <g id="Group_6858" data-name="Group 6858" transform="translate(1229.631 497.512)">
      <path id="Path_24741" data-name="Path 24741" d="M1386.623,631.46a8.777,8.777,0,0,1-.959-4.972c.252-.839,3.112-1.841,3.942-.988S1386.623,631.46,1386.623,631.46Z" transform="translate(-1346.574 -543.976)" fill="url(#linear-gradient-2)"/>
      <path id="Path_24742" data-name="Path 24742" d="M1329.561,517.259h0a1.559,1.559,0,0,1-.145-2.2l14.91-17.015a1.559,1.559,0,0,1,2.2-.145h0a1.559,1.559,0,0,1,.144,2.2l-14.91,17.015A1.559,1.559,0,0,1,1329.561,517.259Z" transform="translate(-1325.993 -497.512)" fill="url(#linear-gradient-3)"/>
      <path id="Path_24743" data-name="Path 24743" d="M1341.2,502.873c1.065.78-.579,2.7-1.793,3.583s-3.273,1.879-2.975,2.063,4.672,1.207,4.591,2.769-4.16.844-4.668.6-2.6-1.3-2.9-.943,3.584,1.733,4.292,2.705a1.329,1.329,0,0,1-.454,2.038c-.48.234-4.6-2.047-5.26-1.937s-2.6.806-2.668,1.586,1.909,1.109,2.864,1.6,4.48,2.107,4.344,3.307-3.613.371-3.92.848-1.395,5.211-.7,6.9,9.429,22.575,10.039,25.164,2.525,4.035,8.942,6.576,14.016,4.55,14.9,4.989,4.306,10.921,3.606,13.931-1.82,4.507-3.141,4.735-27.493-13.343-32.087-18.679-7.234-26.113-7.482-29.34-1.939-6.491-2.258-8.1-.534-11.69,1.394-14.09,8.613-6.451,10.046-7.437S1340.478,502.346,1341.2,502.873Z" transform="translate(-1324.256 -499.436)" fill="#f2dad4"/>
      <path id="Path_24744" data-name="Path 24744" d="M1419.664,824.209s2.977,12.793,4.713,15.577,2.661,24.984,5.759,37.38,4.937,20.5,4.742,24.718.854,7.087,3.974,7.811,6.114-.654,6.194-1.537.688-9.116-.074-13.005-1.518-18.05-.957-24.233-1-34.567-1.132-37.671-1.528-11.189-3.169-14.313S1419.664,824.209,1419.664,824.209Z" transform="translate(-1358.98 -614.244)" fill="#f2dad4"/>
      <path id="Path_24745" data-name="Path 24745" d="M1462.31,828.094a79.616,79.616,0,0,0,6.892,22.155c5.468,11.705,17.982,50.053,18.6,52.276s.889,9.057,4.863,8.744,3.957-5.76,3.989-8.067-4.258-41.371-6.73-49.435-5.443-15.212-5.978-19-.183-9.232-.894-11.18S1462.31,828.094,1462.31,828.094Z" transform="translate(-1374.502 -616.055)" fill="#f2dad4"/>
      <path id="Path_24746" data-name="Path 24746" d="M1398.539,729.4c-2.427,2.739-3.662,18.545-1.35,26.5s10.094,26.6,10.415,29.2-.1,7.03.812,7.6,14.9-3.321,17.662-3.133,6.434.164,6.451-1.108-2.589-12.908-1.618-12.82,1.757,5.138,1.885,8.766.049,8.066.606,8.7,11.662,2.166,18.148,1.313,7.774-3.1,8.179-5.1.644-28.278.016-32.813-1.783-16.431-2.7-18.078-16.557-6.35-26.253-8.167S1402.988,724.381,1398.539,729.4Z" transform="translate(-1350.353 -581.029)" fill="#1c2b6b"/>
      <path id="Path_24747" data-name="Path 24747" d="M1416.681,604.747c-3.537-.41-9.258-3.056-12.373-3.585s-16.9-2.177-17.319-1.906,2.18,12.935,1.86,15.914-3.073,6.479-1.144,7.477,6.809-.935,6.59,5.906,2.227,16.4,1.434,30.67-4.871,22.151-1.546,25.57,15.269,11.917,28.768,12.7c5.289.307,10.845-5.965,11.9-3.882,2.115,4.2,5.565,1.79,6.995,1.5,10.389-5.6,11.169,1.433,13.614.051,2.164-1.223-2.809-20.272-3.895-27.826s.08-28.295,1.581-27.265,5.359-4.46,7.636-5.854,7.148-1.327,7.763-2.863-7.792-20.784-13.35-22.643-23.477-3.653-27.988-3.954S1416.681,604.747,1416.681,604.747Z" transform="translate(-1347.072 -534.532)" fill="url(#linear-gradient-4)"/>
      <path id="Path_24748" data-name="Path 24748" d="M1485.751,561.5c2.579,4.6-1.988,12.086-7.307,10.945s-4.985-11.273-3.648-12.98S1483.057,556.7,1485.751,561.5Z" transform="translate(-1378.742 -519.538)" fill="url(#linear-gradient-5)"/>
      <path id="Path_24749" data-name="Path 24749" d="M1446.369,550.325c3.732-2.336,17.594-3.11,21.238,7.007s.888,23.044-6.717,25.6-11.495-1.528-12.6-3.074S1446.369,550.325,1446.369,550.325Z" transform="translate(-1368.7 -516.195)" fill="#e64d4e"/>
      <path id="Path_24750" data-name="Path 24750" d="M1439.48,550.072c-2.145.486-9.827,5.677-10.327,7.365-.321,1.086-.411,2.449-1.55,2.811s-4.1,2.706-3.879,3.956c.207,1.165,1.721,1.869,1.7,3.285s-3.089,8.551-1.813,9.985,6.636,1.792,7.505,4.448.357,4.235-.064,4.626-2.076-.2-2.479,1.089c-.354,1.135.985,14.683,7.258,15.034s17.051-12.938,17.565-14.012-4.983-2.266-5.547-4.455-.121-5.552,1.086-6.857,5.429-5.475,3.685-8.407-5-1.325-5.8-.873-2.459,1.023-3.1-.7,6.432-7.931,1.735-13.4C1444.106,552.394,1441.625,549.585,1439.48,550.072Z" transform="translate(-1360.304 -516.622)" fill="#f2dad4"/>
      <path id="Path_24751" data-name="Path 24751" d="M1490.664,651.6c3.088,2.617,4.534,12.664,5.987,19.248s3.286,13.56.314,16.3-19.719,18.646-21.751,20.394-8.522,7.527-12.538,7.548-2.817-2.9-4.594-2.844-4.322-.214-4.776-.915,3.19-1.732,4.439-2.641,6.32-4.7,10.68-7.266,13.386-13.019,14.492-14.857,4.61-3.875,2.988-9.38-6.317-15.719-6.974-18.431c2.024-1.251,2.709-3.01,5.7-5.281C1486.207,652.275,1489.267,651.937,1490.664,651.6Z" transform="translate(-1371.211 -553.594)" fill="#f2dad4"/>
      <path id="Path_24752" data-name="Path 24752" d="M1438.16,955.668a9.635,9.635,0,0,0-7.1,3.138c-1.8,2.093-4.56,6.057-7.1,6.787s-6.278,2.385-6.386,4.09.226,3.063,4.576,3.417,10.523.735,12.414.173,6.329-2.325,9.33-2.283,6.114-.162,6.312-1.09c.763-3.572-3.584-11.606-4.969-11.987C1441.116,956.781,1441.167,955.511,1438.16,955.668Z" transform="translate(-1358.213 -664.257)" fill="url(#linear-gradient-6)"/>
      <path id="Path_24753" data-name="Path 24753" d="M1507.229,948.034c2.5-.181,5.628,4.73,5.754,5.456s4.379,6.846,5.161,9.08.972,8.065-.113,8.118-16.671-.232-16.671-.232c-1.014-.888-.336-2.934.231-4.756s1.51-3.489.316-5.4S1501.733,948.432,1507.229,948.034Z" transform="translate(-1388.524 -661.482)" fill="url(#linear-gradient-7)"/>
    </g>
  </g>
</svg>
