<svg id="rating-img" xmlns="http://www.w3.org/2000/svg" width="21.581" height="21.581" viewBox="0 0 21.581 21.581">
  <g id="_019---Heart-Chakra" data-name="019---Heart-Chakra" transform="translate(0)">
    <path id="Shape" d="M19.72,12.595a2.4,2.4,0,0,1-.848.361,2.385,2.385,0,0,1,.554.737c.495,1.042.063,2.121.707,2.493-.644-.372-1.362.54-2.512.633A2.316,2.316,0,0,1,16.7,16.7a2.268,2.268,0,0,1,.115.919c-.093,1.15-1,1.868-.633,2.512-.372-.644-1.451-.212-2.493-.707a2.385,2.385,0,0,1-.737-.554,2.4,2.4,0,0,1-.361.848c-.655.949-1.8,1.116-1.8,1.86,0-.744-1.15-.912-1.8-1.86a2.4,2.4,0,0,1-.361-.848,2.385,2.385,0,0,1-.737.554c-1.042.495-2.121.063-2.493.707.372-.644-.54-1.362-.633-2.512a2.316,2.316,0,0,1,.115-.919,2.267,2.267,0,0,1-.919.115c-1.15-.093-1.868-1-2.512-.633.644-.372.212-1.451.707-2.493a2.385,2.385,0,0,1,.554-.737,2.4,2.4,0,0,1-.848-.361C.912,11.94.744,10.79,0,10.79c.744,0,.912-1.15,1.86-1.8a2.4,2.4,0,0,1,.848-.361,2.385,2.385,0,0,1-.554-.737C1.659,6.846,2.091,5.767,1.447,5.4c.644.372,1.362-.54,2.512-.633a2.316,2.316,0,0,1,.919.115,2.267,2.267,0,0,1-.115-.919c.093-1.15,1-1.868.633-2.512.372.644,1.451.212,2.493.707a2.385,2.385,0,0,1,.737.554,2.4,2.4,0,0,1,.361-.848C9.641.912,10.79.744,10.79,0c0,.744,1.15.912,1.8,1.86a2.4,2.4,0,0,1,.361.848,2.385,2.385,0,0,1,.737-.554c1.042-.495,2.121-.063,2.493-.707-.372.644.54,1.362.633,2.512a2.316,2.316,0,0,1-.115.919,2.267,2.267,0,0,1,.919-.115c1.15.093,1.868,1,2.512.633-.644.372-.212,1.451-.707,2.493a2.385,2.385,0,0,1-.554.737,2.4,2.4,0,0,1,.848.361c.949.655,1.116,1.8,1.86,1.8C20.836,10.79,20.669,11.94,19.72,12.595Z" transform="translate(0)" fill="#33907c"/>
    <circle id="Oval" cx="7.5" cy="7.5" r="7.5" transform="translate(3 3.77)" fill="#14a085"/>
    <path id="Shape-2" data-name="Shape" d="M24.484,17.238l-2.307,4.227L19.744,25.93l-1.827,3.349L16.09,25.93l-2.433-4.465L11.35,17.238c.048-.082.1-.16.156-.238H24.328c.056.078.108.156.156.238Z" transform="translate(-7.127 -10.675)" fill="#26b99a"/>
    <path id="Shape-3" data-name="Shape" d="M24.484,20.04c-.048.082-.1.16-.156.238H11.506c-.056-.078-.108-.156-.156-.238L17.917,8Z" transform="translate(-7.127 -5.023)" fill="#81ccb8"/>
  </g>
</svg>
