<svg xmlns="http://www.w3.org/2000/svg" width="320.029" height="304.987" viewBox="0 0 320.029 304.987">
  <path id="submit-practitioner-form-message-img" d="M26.809,166.671A7.008,7.008,0,0,1,19.8,173.68H7.009a7.009,7.009,0,1,1,0-14.017H19.8A7.009,7.009,0,0,1,26.809,166.671Zm66.724,61.465a7.008,7.008,0,0,0,6.981,7.625h13.5a7.009,7.009,0,1,0,0-14.017H109c5.415-17.529,23.749-32.384,48.3-38.494,24.547,6.109,42.882,20.964,48.3,38.494h-5.017a7.009,7.009,0,1,0,0,14.017h13.506a7.008,7.008,0,0,0,6.981-7.625c-1.22-13.83-8.026-26.79-19.678-37.48-11.074-10.159-25.775-17.574-42.512-21.442a7.012,7.012,0,0,0-3.156,0c-16.737,3.869-31.437,11.283-42.512,21.442C101.558,201.345,94.754,214.306,93.534,228.136ZM254.04,76.654A6.988,6.988,0,0,0,259,74.6l9.043-9.044a7.009,7.009,0,0,0-9.913-9.912l-9.043,9.044a7.009,7.009,0,0,0,4.957,11.964ZM157.013,36.466a7.008,7.008,0,0,0,7.009-7.009V16.667a7.009,7.009,0,0,0-14.017,0V29.457A7.008,7.008,0,0,0,157.013,36.466ZM55.033,74.6a7.008,7.008,0,0,0,9.91-9.912L55.9,55.646a7.009,7.009,0,1,0-9.911,9.912Zm86.061,206.522a7.008,7.008,0,0,0-7.009,7.009v6.495H83.635a16.565,16.565,0,0,1,0-33.13h50.092a7.009,7.009,0,1,0,0-14.017H83.635a30.582,30.582,0,0,0,0,61.165h57.46a7.008,7.008,0,0,0,7.009-7.009v-13.5A7.009,7.009,0,0,0,141.094,281.124ZM307.021,159.663H294.23a7.009,7.009,0,1,0,0,14.017h12.791a7.009,7.009,0,1,0,0-14.017ZM157.013,53.974A114.553,114.553,0,0,0,60.581,230.319a7.009,7.009,0,1,0,11.795-7.575,100.513,100.513,0,1,1,169.274,0,7.009,7.009,0,0,0,11.794,7.576A114.548,114.548,0,0,0,157.013,53.974Zm-1.84,101.232a34.157,34.157,0,0,1,0-65.082,7.021,7.021,0,0,1,4.254,0,34.158,34.158,0,0,1,0,65.082,7.007,7.007,0,0,1-4.256,0ZM157.3,141.04a20.146,20.146,0,0,0,0-36.748,20.146,20.146,0,0,0,0,36.748Zm73.667,106.44H180.874a7.009,7.009,0,1,0,0,14.017h50.094a16.565,16.565,0,0,1,0,33.13H180.517v-6.495a7.009,7.009,0,0,0-14.017,0v13.5a7.008,7.008,0,0,0,7.009,7.009h57.46a30.582,30.582,0,0,0,0-61.165ZM157.3,197.89a7.008,7.008,0,0,0-7.009,7.009v49.591a7.009,7.009,0,0,0,14.017,0V204.9A7.008,7.008,0,0,0,157.3,197.89Z" transform="translate(3 -6.658)" fill="#876fbd" stroke="#fff" stroke-width="6"/>
</svg>
