<svg xmlns="http://www.w3.org/2000/svg" width="20.602" height="23.258" viewBox="0 0 20.602 23.258">
  <g id="Group_6611" data-name="Group 6611" transform="translate(-646.251 -360.849)">
    <g id="Path_270" data-name="Path 270" transform="translate(-189.108 0)" fill="none">
      <path d="M845.527,360.849l-4.764,8.287.44.28h9.247Z" stroke="none"/>
      <path d="M 845.5270385742188 361.8526000976563 L 841.4663696289063 368.9160766601563 L 849.5869750976563 368.9160766601563 L 845.5270385742188 361.8526000976563 M 845.527099609375 360.8493041992188 L 850.4510498046875 369.4160766601563 L 841.2037353515625 369.4160766601563 L 840.7633056640625 369.1358337402344 L 845.527099609375 360.8493041992188 Z" stroke="none" fill="#707070"/>
    </g>
    <g id="Path_271" data-name="Path 271" transform="translate(0 -337.593)" fill="none">
      <path d="M650.855,708.09l-4.6,8.046h9.287Z" stroke="none"/>
      <path d="M 650.8584594726563 709.0900268554688 L 647.11328125 715.6361083984375 L 654.6688842773438 715.6361083984375 L 650.8584594726563 709.0900268554688 M 650.854736328125 708.0897216796875 L 655.5384521484375 716.1361083984375 L 646.2511596679688 716.1361083984375 L 650.854736328125 708.0897216796875 Z" stroke="none" fill="#707070"/>
    </g>
    <g id="Path_272" data-name="Path 272" transform="translate(-376.3 -320.783)" fill="none">
      <path d="M1038.148,690.8l-4.844,8.527h9.848Z" stroke="none"/>
      <path d="M 1038.155517578125 691.799560546875 L 1034.163818359375 698.826416015625 L 1042.279418945313 698.826416015625 L 1038.155517578125 691.799560546875 M 1038.1484375 690.7996826171875 L 1043.152587890625 699.326416015625 L 1033.3046875 699.326416015625 L 1038.1484375 690.7996826171875 Z" stroke="none" fill="#707070"/>
    </g>
    <g id="Path_273" data-name="Path 273" transform="translate(-217.124 -312.378)" fill="none">
      <path d="M869.58,682.155l4.364,2.442,4.283-2.442Z" stroke="none"/>
      <path d="M 871.4971313476563 682.6547241210938 L 873.9411010742188 684.0224609375 L 876.3401489257813 682.6547241210938 L 871.4971313476563 682.6547241210938 M 869.579833984375 682.1547241210938 L 878.2267456054688 682.1547241210938 L 873.943359375 684.5966796875 L 869.579833984375 682.1547241210938 Z" stroke="none" fill="#707070"/>
    </g>
    <g id="Path_274" data-name="Path 274" transform="translate(-231.132 -365.609)" fill="none">
      <path d="M883.988,736.906l3.323,1.962v3.8Z" stroke="none"/>
      <path d="M 885.370361328125 738.3029174804688 L 886.8108520507813 740.8021240234375 L 886.8108520507813 739.1533813476563 L 885.370361328125 738.3029174804688 M 883.98828125 736.9063110351563 L 887.3108520507813 738.867919921875 L 887.3108520507813 742.6708984375 L 883.98828125 736.9063110351563 Z" stroke="none" fill="#707070"/>
    </g>
    <g id="Path_275" data-name="Path 275" transform="translate(-368.41 -331.99)" fill="none">
      <path d="M1025.19,705.569l1.2-1.361,3.123-1.881-4.323,7.726Z" stroke="none"/>
      <path d="M 1028.155883789063 703.7278442382813 L 1026.714599609375 704.5963134765625 L 1025.689697265625 705.7579956054688 L 1025.689697265625 708.135009765625 L 1028.155883789063 703.7278442382813 M 1029.51318359375 702.3263549804688 L 1025.189697265625 710.0524291992188 L 1025.189697265625 705.5689697265625 L 1026.390625 704.207763671875 L 1029.51318359375 702.3263549804688 Z" stroke="none" fill="#707070"/>
    </g>
    <g id="Path_276" data-name="Path 276" transform="translate(-247.942 -647.17)" fill="none">
      <path d="M901.278,1026.514h2.842v4.764Z" stroke="none"/>
      <path d="M 902.1588134765625 1027.013549804688 L 903.6204833984375 1029.46337890625 L 903.6204833984375 1027.013549804688 L 902.1588134765625 1027.013549804688 M 901.2782592773438 1026.513549804688 L 904.1204833984375 1026.513549804688 L 904.1204833984375 1031.277221679688 L 901.2782592773438 1026.513549804688 Z" stroke="none" fill="#707070"/>
    </g>
    <g id="Path_277" data-name="Path 277" transform="translate(-564.522 -219.926)" fill="none">
      <path d="M1226.906,589.7l1.321,2.162,2.962-4.8Z" stroke="none"/>
      <path d="M 1228.22900390625 590.907958984375 L 1229.65673828125 588.5926513671875 L 1227.592163085938 589.8660278320313 L 1228.22900390625 590.907958984375 M 1228.22705078125 591.8636474609375 L 1226.905883789063 589.701904296875 L 1231.189331054688 587.059814453125 L 1228.22705078125 591.8636474609375 Z" stroke="none" fill="#707070"/>
    </g>
    <g id="Path_278" data-name="Path 278" transform="translate(-501.486 -198.913)" fill="none">
      <path d="M1162.069,565.447l1.4,2.562,4.4-2.562Z" stroke="none"/>
      <path d="M 1162.912109375 565.9472045898438 L 1163.662353515625 567.3189086914063 L 1166.019897460938 565.9472045898438 L 1162.912109375 565.9472045898438 M 1162.06884765625 565.4472045898438 L 1167.87353515625 565.4472045898438 L 1163.469970703125 568.00927734375 L 1162.06884765625 565.4472045898438 Z" stroke="none" fill="#707070"/>
    </g>
    <g id="Path_279" data-name="Path 279" transform="translate(-368.41 -647.17)" fill="none">
      <path d="M1025.19,1026.514h2.762l-2.722,4.764Z" stroke="none"/>
      <path d="M 1025.693969726563 1027.013549804688 L 1025.714111328125 1029.421752929688 L 1027.09033203125 1027.013549804688 L 1025.693969726563 1027.013549804688 M 1025.189697265625 1026.513549804688 L 1027.951904296875 1026.513549804688 L 1025.229736328125 1031.277221679688 L 1025.189697265625 1026.513549804688 Z" stroke="none" fill="#707070"/>
    </g>
    <g id="Path_280" data-name="Path 280" transform="translate(-9.806 -198.913)" fill="none">
      <path d="M656.337,565.447H662.1l-1.4,2.562Z" stroke="none"/>
      <path d="M 658.1759033203125 565.9472045898438 L 660.5089721679688 567.3170776367188 L 661.2581176757813 565.9472045898438 L 658.1759033203125 565.9472045898438 M 656.3368530273438 565.4472045898438 L 662.1014404296875 565.4472045898438 L 660.7003173828125 568.00927734375 L 656.3368530273438 565.4472045898438 Z" stroke="none" fill="#707070"/>
    </g>
    <g id="Path_281" data-name="Path 281" transform="translate(0 -219.926)" fill="none">
      <path d="M646.251,587.06l4.2,2.4-1.361,2.4Z" stroke="none"/>
      <path d="M 647.6436157226563 588.4313354492188 L 649.0840454101563 590.865966796875 L 649.7738647460938 589.6486206054688 L 647.6436157226563 588.4313354492188 M 646.2511596679688 587.059814453125 L 650.4544677734375 589.461669921875 L 649.0933837890625 591.8636474609375 L 646.2511596679688 587.059814453125 Z" stroke="none" fill="#707070"/>
    </g>
  </g>
</svg>
